<?xml version="1.0" encoding="utf-8" standalone="no"?>
<!DOCTYPE svg PUBLIC "-//W3C//DTD SVG 1.1//EN"
  "http://www.w3.org/Graphics/SVG/1.1/DTD/svg11.dtd">
<svg height="432pt" version="1.1" viewBox="0 0 576 432" width="576pt" xmlns="http://www.w3.org/2000/svg" xmlns:xlink="http://www.w3.org/1999/xlink">
 <metadata>
  <rdf:RDF xmlns:cc="http://creativecommons.org/ns#" xmlns:dc="http://purl.org/dc/elements/1.1/" xmlns:rdf="http://www.w3.org/1999/02/22-rdf-syntax-ns#">
   <cc:Work>
    <dc:type rdf:resource="http://purl.org/dc/dcmitype/StillImage"/>
    <dc:date>1980-01-01T00:00:00+00:00</dc:date>
    <dc:format>image/svg+xml</dc:format>
    <dc:creator>
     <cc:Agent>
      <dc:title>Matplotlib v3.4.3, https://matplotlib.org/</dc:title>
     </cc:Agent>
    </dc:creator>
   </cc:Work>
  </rdf:RDF>
 </metadata>
 <defs>
  <style type="text/css">*{stroke-linecap:butt;stroke-linejoin:round;}</style>
 </defs>
 <g id="figure_1">
  <g id="patch_1">
   <path d="M 0 432 
L 576 432 
L 576 0 
L 0 0 
z
" style="fill:#ffffff;"/>
  </g>
  <g id="axes_1">
   <g id="patch_2">
    <path d="M 72 378 
L 518.4 378 
L 518.4 51.84 
L 72 51.84 
z
" style="fill:#eaeaf2;"/>
   </g>
   <g id="matplotlib.axis_1">
    <g id="xtick_1">
     <g id="line2d_1">
      <path clip-path="url(#pcdcac85cd9)" d="M 196.555107 378 
L 196.555107 51.84 
" style="fill:none;stroke:#ffffff;stroke-linecap:round;"/>
     </g>
     <g id="line2d_2">
      <defs>
       <path d="M 0 0 
L 0 6 
" id="mcb533b7e09" style="stroke:#262626;stroke-width:1.25;"/>
      </defs>
      <g>
       <use style="fill:#262626;stroke:#262626;stroke-width:1.25;" x="196.555107" xlink:href="#mcb533b7e09" y="378"/>
      </g>
     </g>
     <g id="text_1">
      <!-- $\mathdefault{10^{2}}$ -->
      <g style="fill:#262626;" transform="translate(187.920107 398.84375)scale(0.11 -0.11)">
       <defs>
        <path d="M 2384 0 
L 1822 0 
L 1822 3584 
Q 1619 3391 1289 3197 
Q 959 3003 697 2906 
L 697 3450 
Q 1169 3672 1522 3987 
Q 1875 4303 2022 4600 
L 2384 4600 
L 2384 0 
z
" id="ArialMT-31" transform="scale(0.015625)"/>
        <path d="M 266 2259 
Q 266 3072 433 3567 
Q 600 4063 929 4331 
Q 1259 4600 1759 4600 
Q 2128 4600 2406 4451 
Q 2684 4303 2865 4023 
Q 3047 3744 3150 3342 
Q 3253 2941 3253 2259 
Q 3253 1453 3087 958 
Q 2922 463 2592 192 
Q 2263 -78 1759 -78 
Q 1097 -78 719 397 
Q 266 969 266 2259 
z
M 844 2259 
Q 844 1131 1108 757 
Q 1372 384 1759 384 
Q 2147 384 2411 759 
Q 2675 1134 2675 2259 
Q 2675 3391 2411 3762 
Q 2147 4134 1753 4134 
Q 1366 4134 1134 3806 
Q 844 3388 844 2259 
z
" id="ArialMT-30" transform="scale(0.015625)"/>
        <path d="M 3222 541 
L 3222 0 
L 194 0 
Q 188 203 259 391 
Q 375 700 629 1000 
Q 884 1300 1366 1694 
Q 2113 2306 2375 2664 
Q 2638 3022 2638 3341 
Q 2638 3675 2398 3904 
Q 2159 4134 1775 4134 
Q 1369 4134 1125 3890 
Q 881 3647 878 3216 
L 300 3275 
Q 359 3922 746 4261 
Q 1134 4600 1788 4600 
Q 2447 4600 2831 4234 
Q 3216 3869 3216 3328 
Q 3216 3053 3103 2787 
Q 2991 2522 2730 2228 
Q 2469 1934 1863 1422 
Q 1356 997 1212 845 
Q 1069 694 975 541 
L 3222 541 
z
" id="ArialMT-32" transform="scale(0.015625)"/>
       </defs>
       <use transform="translate(0 0.99375)" xlink:href="#ArialMT-31"/>
       <use transform="translate(55.615234 0.99375)" xlink:href="#ArialMT-30"/>
       <use transform="translate(112.972813 70.6875)scale(0.7)" xlink:href="#ArialMT-32"/>
      </g>
     </g>
    </g>
    <g id="xtick_2">
     <g id="line2d_3">
      <path clip-path="url(#pcdcac85cd9)" d="M 371.579206 378 
L 371.579206 51.84 
" style="fill:none;stroke:#ffffff;stroke-linecap:round;"/>
     </g>
     <g id="line2d_4">
      <g>
       <use style="fill:#262626;stroke:#262626;stroke-width:1.25;" x="371.579206" xlink:href="#mcb533b7e09" y="378"/>
      </g>
     </g>
     <g id="text_2">
      <!-- $\mathdefault{10^{3}}$ -->
      <g style="fill:#262626;" transform="translate(362.944206 398.84375)scale(0.11 -0.11)">
       <defs>
        <path d="M 269 1209 
L 831 1284 
Q 928 806 1161 595 
Q 1394 384 1728 384 
Q 2125 384 2398 659 
Q 2672 934 2672 1341 
Q 2672 1728 2419 1979 
Q 2166 2231 1775 2231 
Q 1616 2231 1378 2169 
L 1441 2663 
Q 1497 2656 1531 2656 
Q 1891 2656 2178 2843 
Q 2466 3031 2466 3422 
Q 2466 3731 2256 3934 
Q 2047 4138 1716 4138 
Q 1388 4138 1169 3931 
Q 950 3725 888 3313 
L 325 3413 
Q 428 3978 793 4289 
Q 1159 4600 1703 4600 
Q 2078 4600 2393 4439 
Q 2709 4278 2876 4000 
Q 3044 3722 3044 3409 
Q 3044 3113 2884 2869 
Q 2725 2625 2413 2481 
Q 2819 2388 3044 2092 
Q 3269 1797 3269 1353 
Q 3269 753 2831 336 
Q 2394 -81 1725 -81 
Q 1122 -81 723 278 
Q 325 638 269 1209 
z
" id="ArialMT-33" transform="scale(0.015625)"/>
       </defs>
       <use transform="translate(0 0.99375)" xlink:href="#ArialMT-31"/>
       <use transform="translate(55.615234 0.99375)" xlink:href="#ArialMT-30"/>
       <use transform="translate(112.972813 70.6875)scale(0.7)" xlink:href="#ArialMT-33"/>
      </g>
     </g>
    </g>
    <g id="xtick_3">
     <g id="line2d_5">
      <defs>
       <path d="M 0 0 
L 0 4 
" id="mdce92e469d" style="stroke:#262626;"/>
      </defs>
      <g>
       <use style="fill:#262626;stroke:#262626;" x="74.218511" xlink:href="#mdce92e469d" y="378"/>
      </g>
     </g>
    </g>
    <g id="xtick_4">
     <g id="line2d_6">
      <g>
       <use style="fill:#262626;stroke:#262626;" x="105.038725" xlink:href="#mdce92e469d" y="378"/>
      </g>
     </g>
    </g>
    <g id="xtick_5">
     <g id="line2d_7">
      <g>
       <use style="fill:#262626;stroke:#262626;" x="126.906015" xlink:href="#mdce92e469d" y="378"/>
      </g>
     </g>
    </g>
    <g id="xtick_6">
     <g id="line2d_8">
      <g>
       <use style="fill:#262626;stroke:#262626;" x="143.867603" xlink:href="#mdce92e469d" y="378"/>
      </g>
     </g>
    </g>
    <g id="xtick_7">
     <g id="line2d_9">
      <g>
       <use style="fill:#262626;stroke:#262626;" x="157.726229" xlink:href="#mdce92e469d" y="378"/>
      </g>
     </g>
    </g>
    <g id="xtick_8">
     <g id="line2d_10">
      <g>
       <use style="fill:#262626;stroke:#262626;" x="169.44353" xlink:href="#mdce92e469d" y="378"/>
      </g>
     </g>
    </g>
    <g id="xtick_9">
     <g id="line2d_11">
      <g>
       <use style="fill:#262626;stroke:#262626;" x="179.593519" xlink:href="#mdce92e469d" y="378"/>
      </g>
     </g>
    </g>
    <g id="xtick_10">
     <g id="line2d_12">
      <g>
       <use style="fill:#262626;stroke:#262626;" x="188.546443" xlink:href="#mdce92e469d" y="378"/>
      </g>
     </g>
    </g>
    <g id="xtick_11">
     <g id="line2d_13">
      <g>
       <use style="fill:#262626;stroke:#262626;" x="249.242611" xlink:href="#mdce92e469d" y="378"/>
      </g>
     </g>
    </g>
    <g id="xtick_12">
     <g id="line2d_14">
      <g>
       <use style="fill:#262626;stroke:#262626;" x="280.062825" xlink:href="#mdce92e469d" y="378"/>
      </g>
     </g>
    </g>
    <g id="xtick_13">
     <g id="line2d_15">
      <g>
       <use style="fill:#262626;stroke:#262626;" x="301.930115" xlink:href="#mdce92e469d" y="378"/>
      </g>
     </g>
    </g>
    <g id="xtick_14">
     <g id="line2d_16">
      <g>
       <use style="fill:#262626;stroke:#262626;" x="318.891702" xlink:href="#mdce92e469d" y="378"/>
      </g>
     </g>
    </g>
    <g id="xtick_15">
     <g id="line2d_17">
      <g>
       <use style="fill:#262626;stroke:#262626;" x="332.750329" xlink:href="#mdce92e469d" y="378"/>
      </g>
     </g>
    </g>
    <g id="xtick_16">
     <g id="line2d_18">
      <g>
       <use style="fill:#262626;stroke:#262626;" x="344.46763" xlink:href="#mdce92e469d" y="378"/>
      </g>
     </g>
    </g>
    <g id="xtick_17">
     <g id="line2d_19">
      <g>
       <use style="fill:#262626;stroke:#262626;" x="354.617619" xlink:href="#mdce92e469d" y="378"/>
      </g>
     </g>
    </g>
    <g id="xtick_18">
     <g id="line2d_20">
      <g>
       <use style="fill:#262626;stroke:#262626;" x="363.570543" xlink:href="#mdce92e469d" y="378"/>
      </g>
     </g>
    </g>
    <g id="xtick_19">
     <g id="line2d_21">
      <g>
       <use style="fill:#262626;stroke:#262626;" x="424.26671" xlink:href="#mdce92e469d" y="378"/>
      </g>
     </g>
    </g>
    <g id="xtick_20">
     <g id="line2d_22">
      <g>
       <use style="fill:#262626;stroke:#262626;" x="455.086925" xlink:href="#mdce92e469d" y="378"/>
      </g>
     </g>
    </g>
    <g id="xtick_21">
     <g id="line2d_23">
      <g>
       <use style="fill:#262626;stroke:#262626;" x="476.954214" xlink:href="#mdce92e469d" y="378"/>
      </g>
     </g>
    </g>
    <g id="xtick_22">
     <g id="line2d_24">
      <g>
       <use style="fill:#262626;stroke:#262626;" x="493.915802" xlink:href="#mdce92e469d" y="378"/>
      </g>
     </g>
    </g>
    <g id="xtick_23">
     <g id="line2d_25">
      <g>
       <use style="fill:#262626;stroke:#262626;" x="507.774429" xlink:href="#mdce92e469d" y="378"/>
      </g>
     </g>
    </g>
    <g id="text_3">
     <!-- linearization_size -->
     <g style="fill:#262626;" transform="translate(249.177188 413.619375)scale(0.12 -0.12)">
      <defs>
       <path d="M 409 0 
L 409 4581 
L 972 4581 
L 972 0 
L 409 0 
z
" id="ArialMT-6c" transform="scale(0.015625)"/>
       <path d="M 425 3934 
L 425 4581 
L 988 4581 
L 988 3934 
L 425 3934 
z
M 425 0 
L 425 3319 
L 988 3319 
L 988 0 
L 425 0 
z
" id="ArialMT-69" transform="scale(0.015625)"/>
       <path d="M 422 0 
L 422 3319 
L 928 3319 
L 928 2847 
Q 1294 3394 1984 3394 
Q 2284 3394 2536 3286 
Q 2788 3178 2913 3003 
Q 3038 2828 3088 2588 
Q 3119 2431 3119 2041 
L 3119 0 
L 2556 0 
L 2556 2019 
Q 2556 2363 2490 2533 
Q 2425 2703 2258 2804 
Q 2091 2906 1866 2906 
Q 1506 2906 1245 2678 
Q 984 2450 984 1813 
L 984 0 
L 422 0 
z
" id="ArialMT-6e" transform="scale(0.015625)"/>
       <path d="M 2694 1069 
L 3275 997 
Q 3138 488 2766 206 
Q 2394 -75 1816 -75 
Q 1088 -75 661 373 
Q 234 822 234 1631 
Q 234 2469 665 2931 
Q 1097 3394 1784 3394 
Q 2450 3394 2872 2941 
Q 3294 2488 3294 1666 
Q 3294 1616 3291 1516 
L 816 1516 
Q 847 969 1125 678 
Q 1403 388 1819 388 
Q 2128 388 2347 550 
Q 2566 713 2694 1069 
z
M 847 1978 
L 2700 1978 
Q 2663 2397 2488 2606 
Q 2219 2931 1791 2931 
Q 1403 2931 1139 2672 
Q 875 2413 847 1978 
z
" id="ArialMT-65" transform="scale(0.015625)"/>
       <path d="M 2588 409 
Q 2275 144 1986 34 
Q 1697 -75 1366 -75 
Q 819 -75 525 192 
Q 231 459 231 875 
Q 231 1119 342 1320 
Q 453 1522 633 1644 
Q 813 1766 1038 1828 
Q 1203 1872 1538 1913 
Q 2219 1994 2541 2106 
Q 2544 2222 2544 2253 
Q 2544 2597 2384 2738 
Q 2169 2928 1744 2928 
Q 1347 2928 1158 2789 
Q 969 2650 878 2297 
L 328 2372 
Q 403 2725 575 2942 
Q 747 3159 1072 3276 
Q 1397 3394 1825 3394 
Q 2250 3394 2515 3294 
Q 2781 3194 2906 3042 
Q 3031 2891 3081 2659 
Q 3109 2516 3109 2141 
L 3109 1391 
Q 3109 606 3145 398 
Q 3181 191 3288 0 
L 2700 0 
Q 2613 175 2588 409 
z
M 2541 1666 
Q 2234 1541 1622 1453 
Q 1275 1403 1131 1340 
Q 988 1278 909 1158 
Q 831 1038 831 891 
Q 831 666 1001 516 
Q 1172 366 1500 366 
Q 1825 366 2078 508 
Q 2331 650 2450 897 
Q 2541 1088 2541 1459 
L 2541 1666 
z
" id="ArialMT-61" transform="scale(0.015625)"/>
       <path d="M 416 0 
L 416 3319 
L 922 3319 
L 922 2816 
Q 1116 3169 1280 3281 
Q 1444 3394 1641 3394 
Q 1925 3394 2219 3213 
L 2025 2691 
Q 1819 2813 1613 2813 
Q 1428 2813 1281 2702 
Q 1134 2591 1072 2394 
Q 978 2094 978 1738 
L 978 0 
L 416 0 
z
" id="ArialMT-72" transform="scale(0.015625)"/>
       <path d="M 125 0 
L 125 456 
L 2238 2881 
Q 1878 2863 1603 2863 
L 250 2863 
L 250 3319 
L 2963 3319 
L 2963 2947 
L 1166 841 
L 819 456 
Q 1197 484 1528 484 
L 3063 484 
L 3063 0 
L 125 0 
z
" id="ArialMT-7a" transform="scale(0.015625)"/>
       <path d="M 1650 503 
L 1731 6 
Q 1494 -44 1306 -44 
Q 1000 -44 831 53 
Q 663 150 594 308 
Q 525 466 525 972 
L 525 2881 
L 113 2881 
L 113 3319 
L 525 3319 
L 525 4141 
L 1084 4478 
L 1084 3319 
L 1650 3319 
L 1650 2881 
L 1084 2881 
L 1084 941 
Q 1084 700 1114 631 
Q 1144 563 1211 522 
Q 1278 481 1403 481 
Q 1497 481 1650 503 
z
" id="ArialMT-74" transform="scale(0.015625)"/>
       <path d="M 213 1659 
Q 213 2581 725 3025 
Q 1153 3394 1769 3394 
Q 2453 3394 2887 2945 
Q 3322 2497 3322 1706 
Q 3322 1066 3130 698 
Q 2938 331 2570 128 
Q 2203 -75 1769 -75 
Q 1072 -75 642 372 
Q 213 819 213 1659 
z
M 791 1659 
Q 791 1022 1069 705 
Q 1347 388 1769 388 
Q 2188 388 2466 706 
Q 2744 1025 2744 1678 
Q 2744 2294 2464 2611 
Q 2184 2928 1769 2928 
Q 1347 2928 1069 2612 
Q 791 2297 791 1659 
z
" id="ArialMT-6f" transform="scale(0.015625)"/>
       <path d="M -97 -1272 
L -97 -866 
L 3631 -866 
L 3631 -1272 
L -97 -1272 
z
" id="ArialMT-5f" transform="scale(0.015625)"/>
       <path d="M 197 991 
L 753 1078 
Q 800 744 1014 566 
Q 1228 388 1613 388 
Q 2000 388 2187 545 
Q 2375 703 2375 916 
Q 2375 1106 2209 1216 
Q 2094 1291 1634 1406 
Q 1016 1563 777 1677 
Q 538 1791 414 1992 
Q 291 2194 291 2438 
Q 291 2659 392 2848 
Q 494 3038 669 3163 
Q 800 3259 1026 3326 
Q 1253 3394 1513 3394 
Q 1903 3394 2198 3281 
Q 2494 3169 2634 2976 
Q 2775 2784 2828 2463 
L 2278 2388 
Q 2241 2644 2061 2787 
Q 1881 2931 1553 2931 
Q 1166 2931 1000 2803 
Q 834 2675 834 2503 
Q 834 2394 903 2306 
Q 972 2216 1119 2156 
Q 1203 2125 1616 2013 
Q 2213 1853 2448 1751 
Q 2684 1650 2818 1456 
Q 2953 1263 2953 975 
Q 2953 694 2789 445 
Q 2625 197 2315 61 
Q 2006 -75 1616 -75 
Q 969 -75 630 194 
Q 291 463 197 991 
z
" id="ArialMT-73" transform="scale(0.015625)"/>
      </defs>
      <use xlink:href="#ArialMT-6c"/>
      <use x="22.216797" xlink:href="#ArialMT-69"/>
      <use x="44.433594" xlink:href="#ArialMT-6e"/>
      <use x="100.048828" xlink:href="#ArialMT-65"/>
      <use x="155.664062" xlink:href="#ArialMT-61"/>
      <use x="211.279297" xlink:href="#ArialMT-72"/>
      <use x="244.580078" xlink:href="#ArialMT-69"/>
      <use x="266.796875" xlink:href="#ArialMT-7a"/>
      <use x="316.796875" xlink:href="#ArialMT-61"/>
      <use x="372.412109" xlink:href="#ArialMT-74"/>
      <use x="400.195312" xlink:href="#ArialMT-69"/>
      <use x="422.412109" xlink:href="#ArialMT-6f"/>
      <use x="478.027344" xlink:href="#ArialMT-6e"/>
      <use x="533.642578" xlink:href="#ArialMT-5f"/>
      <use x="589.257812" xlink:href="#ArialMT-73"/>
      <use x="639.257812" xlink:href="#ArialMT-69"/>
      <use x="661.474609" xlink:href="#ArialMT-7a"/>
      <use x="711.474609" xlink:href="#ArialMT-65"/>
     </g>
    </g>
   </g>
   <g id="matplotlib.axis_2">
    <g id="ytick_1">
     <g id="line2d_26">
      <path clip-path="url(#pcdcac85cd9)" d="M 72 176.878216 
L 518.4 176.878216 
" style="fill:none;stroke:#ffffff;stroke-linecap:round;"/>
     </g>
     <g id="line2d_27">
      <defs>
       <path d="M 0 0 
L -6 0 
" id="m2f5cec5007" style="stroke:#262626;stroke-width:1.25;"/>
      </defs>
      <g>
       <use style="fill:#262626;stroke:#262626;stroke-width:1.25;" x="72" xlink:href="#m2f5cec5007" y="176.878216"/>
      </g>
     </g>
     <g id="text_4">
      <!-- $\mathdefault{10^{2}}$ -->
      <g style="fill:#262626;" transform="translate(45.23 182.550091)scale(0.11 -0.11)">
       <use transform="translate(0 0.99375)" xlink:href="#ArialMT-31"/>
       <use transform="translate(55.615234 0.99375)" xlink:href="#ArialMT-30"/>
       <use transform="translate(112.972813 70.6875)scale(0.7)" xlink:href="#ArialMT-32"/>
      </g>
     </g>
    </g>
    <g id="ytick_2">
     <g id="line2d_28">
      <defs>
       <path d="M 0 0 
L -4 0 
" id="mdb53f0586b" style="stroke:#262626;"/>
      </defs>
      <g>
       <use style="fill:#262626;stroke:#262626;" x="72" xlink:href="#mdb53f0586b" y="329.3783"/>
      </g>
     </g>
    </g>
    <g id="ytick_3">
     <g id="line2d_29">
      <g>
       <use style="fill:#262626;stroke:#262626;" x="72" xlink:href="#mdb53f0586b" y="290.959009"/>
      </g>
     </g>
    </g>
    <g id="ytick_4">
     <g id="line2d_30">
      <g>
       <use style="fill:#262626;stroke:#262626;" x="72" xlink:href="#mdb53f0586b" y="263.700089"/>
      </g>
     </g>
    </g>
    <g id="ytick_5">
     <g id="line2d_31">
      <g>
       <use style="fill:#262626;stroke:#262626;" x="72" xlink:href="#mdb53f0586b" y="242.556427"/>
      </g>
     </g>
    </g>
    <g id="ytick_6">
     <g id="line2d_32">
      <g>
       <use style="fill:#262626;stroke:#262626;" x="72" xlink:href="#mdb53f0586b" y="225.280798"/>
      </g>
     </g>
    </g>
    <g id="ytick_7">
     <g id="line2d_33">
      <g>
       <use style="fill:#262626;stroke:#262626;" x="72" xlink:href="#mdb53f0586b" y="210.674461"/>
      </g>
     </g>
    </g>
    <g id="ytick_8">
     <g id="line2d_34">
      <g>
       <use style="fill:#262626;stroke:#262626;" x="72" xlink:href="#mdb53f0586b" y="198.021877"/>
      </g>
     </g>
    </g>
    <g id="ytick_9">
     <g id="line2d_35">
      <g>
       <use style="fill:#262626;stroke:#262626;" x="72" xlink:href="#mdb53f0586b" y="186.861507"/>
      </g>
     </g>
    </g>
    <g id="ytick_10">
     <g id="line2d_36">
      <g>
       <use style="fill:#262626;stroke:#262626;" x="72" xlink:href="#mdb53f0586b" y="111.200004"/>
      </g>
     </g>
    </g>
    <g id="ytick_11">
     <g id="line2d_37">
      <g>
       <use style="fill:#262626;stroke:#262626;" x="72" xlink:href="#mdb53f0586b" y="72.780714"/>
      </g>
     </g>
    </g>
    <g id="text_5">
     <!-- duration_micros -->
     <g style="fill:#262626;" transform="translate(38.845 257.6025)rotate(-90)scale(0.12 -0.12)">
      <defs>
       <path d="M 2575 0 
L 2575 419 
Q 2259 -75 1647 -75 
Q 1250 -75 917 144 
Q 584 363 401 755 
Q 219 1147 219 1656 
Q 219 2153 384 2558 
Q 550 2963 881 3178 
Q 1213 3394 1622 3394 
Q 1922 3394 2156 3267 
Q 2391 3141 2538 2938 
L 2538 4581 
L 3097 4581 
L 3097 0 
L 2575 0 
z
M 797 1656 
Q 797 1019 1065 703 
Q 1334 388 1700 388 
Q 2069 388 2326 689 
Q 2584 991 2584 1609 
Q 2584 2291 2321 2609 
Q 2059 2928 1675 2928 
Q 1300 2928 1048 2622 
Q 797 2316 797 1656 
z
" id="ArialMT-64" transform="scale(0.015625)"/>
       <path d="M 2597 0 
L 2597 488 
Q 2209 -75 1544 -75 
Q 1250 -75 995 37 
Q 741 150 617 320 
Q 494 491 444 738 
Q 409 903 409 1263 
L 409 3319 
L 972 3319 
L 972 1478 
Q 972 1038 1006 884 
Q 1059 663 1231 536 
Q 1403 409 1656 409 
Q 1909 409 2131 539 
Q 2353 669 2445 892 
Q 2538 1116 2538 1541 
L 2538 3319 
L 3100 3319 
L 3100 0 
L 2597 0 
z
" id="ArialMT-75" transform="scale(0.015625)"/>
       <path d="M 422 0 
L 422 3319 
L 925 3319 
L 925 2853 
Q 1081 3097 1340 3245 
Q 1600 3394 1931 3394 
Q 2300 3394 2536 3241 
Q 2772 3088 2869 2813 
Q 3263 3394 3894 3394 
Q 4388 3394 4653 3120 
Q 4919 2847 4919 2278 
L 4919 0 
L 4359 0 
L 4359 2091 
Q 4359 2428 4304 2576 
Q 4250 2725 4106 2815 
Q 3963 2906 3769 2906 
Q 3419 2906 3187 2673 
Q 2956 2441 2956 1928 
L 2956 0 
L 2394 0 
L 2394 2156 
Q 2394 2531 2256 2718 
Q 2119 2906 1806 2906 
Q 1569 2906 1367 2781 
Q 1166 2656 1075 2415 
Q 984 2175 984 1722 
L 984 0 
L 422 0 
z
" id="ArialMT-6d" transform="scale(0.015625)"/>
       <path d="M 2588 1216 
L 3141 1144 
Q 3050 572 2676 248 
Q 2303 -75 1759 -75 
Q 1078 -75 664 370 
Q 250 816 250 1647 
Q 250 2184 428 2587 
Q 606 2991 970 3192 
Q 1334 3394 1763 3394 
Q 2303 3394 2647 3120 
Q 2991 2847 3088 2344 
L 2541 2259 
Q 2463 2594 2264 2762 
Q 2066 2931 1784 2931 
Q 1359 2931 1093 2626 
Q 828 2322 828 1663 
Q 828 994 1084 691 
Q 1341 388 1753 388 
Q 2084 388 2306 591 
Q 2528 794 2588 1216 
z
" id="ArialMT-63" transform="scale(0.015625)"/>
      </defs>
      <use xlink:href="#ArialMT-64"/>
      <use x="55.615234" xlink:href="#ArialMT-75"/>
      <use x="111.230469" xlink:href="#ArialMT-72"/>
      <use x="144.53125" xlink:href="#ArialMT-61"/>
      <use x="200.146484" xlink:href="#ArialMT-74"/>
      <use x="227.929688" xlink:href="#ArialMT-69"/>
      <use x="250.146484" xlink:href="#ArialMT-6f"/>
      <use x="305.761719" xlink:href="#ArialMT-6e"/>
      <use x="361.376953" xlink:href="#ArialMT-5f"/>
      <use x="416.992188" xlink:href="#ArialMT-6d"/>
      <use x="500.292969" xlink:href="#ArialMT-69"/>
      <use x="522.509766" xlink:href="#ArialMT-63"/>
      <use x="572.509766" xlink:href="#ArialMT-72"/>
      <use x="605.810547" xlink:href="#ArialMT-6f"/>
      <use x="661.425781" xlink:href="#ArialMT-73"/>
     </g>
    </g>
   </g>
   <g id="PathCollection_1">
    <defs>
     <path d="M 0 3 
C 0.795609 3 1.55874 2.683901 2.12132 2.12132 
C 2.683901 1.55874 3 0.795609 3 -0 
C 3 -0.795609 2.683901 -1.55874 2.12132 -2.12132 
C 1.55874 -2.683901 0.795609 -3 0 -3 
C -0.795609 -3 -1.55874 -2.683901 -2.12132 -2.12132 
C -2.683901 -1.55874 -3 -0.795609 -3 0 
C -3 0.795609 -2.683901 1.55874 -2.12132 2.12132 
C -1.55874 2.683901 -0.795609 3 0 3 
z
" id="C0_0_badb79aa54"/>
    </defs>
    <g clip-path="url(#pcdcac85cd9)">
     <use style="fill:#edd1cb;fill-opacity:0.3;stroke:#ffffff;stroke-opacity:0.3;stroke-width:0.48;" x="187.697138" xlink:href="#C0_0_badb79aa54" y="244.470707"/>
    </g>
    <g clip-path="url(#pcdcac85cd9)">
     <use style="fill:#eccdc8;fill-opacity:0.3;stroke:#ffffff;stroke-opacity:0.3;stroke-width:0.48;" x="187.697138" xlink:href="#C0_0_badb79aa54" y="308.234638"/>
    </g>
    <g clip-path="url(#pcdcac85cd9)">
     <use style="fill:#eac8c4;fill-opacity:0.3;stroke:#ffffff;stroke-opacity:0.3;stroke-width:0.48;" x="211.670158" xlink:href="#C0_0_badb79aa54" y="304.518333"/>
    </g>
    <g clip-path="url(#pcdcac85cd9)">
     <use style="fill:#e8c3c0;fill-opacity:0.3;stroke:#ffffff;stroke-opacity:0.3;stroke-width:0.48;" x="211.670158" xlink:href="#C0_0_badb79aa54" y="316.135349"/>
    </g>
    <g clip-path="url(#pcdcac85cd9)">
     <use style="fill:#e6bebc;fill-opacity:0.3;stroke:#ffffff;stroke-opacity:0.3;stroke-width:0.48;" x="277.747559" xlink:href="#C0_0_badb79aa54" y="214.824919"/>
    </g>
    <g clip-path="url(#pcdcac85cd9)">
     <use style="fill:#e5baba;fill-opacity:0.3;stroke:#ffffff;stroke-opacity:0.3;stroke-width:0.48;" x="290.465765" xlink:href="#C0_0_badb79aa54" y="237.035237"/>
    </g>
    <g clip-path="url(#pcdcac85cd9)">
     <use style="fill:#e3b5b7;fill-opacity:0.3;stroke:#ffffff;stroke-opacity:0.3;stroke-width:0.48;" x="290.465765" xlink:href="#C0_0_badb79aa54" y="268.560314"/>
    </g>
    <g clip-path="url(#pcdcac85cd9)">
     <use style="fill:#e0b0b3;fill-opacity:0.3;stroke:#ffffff;stroke-opacity:0.3;stroke-width:0.48;" x="290.465765" xlink:href="#C0_0_badb79aa54" y="252.539718"/>
    </g>
    <g clip-path="url(#pcdcac85cd9)">
     <use style="fill:#dfacb1;fill-opacity:0.3;stroke:#ffffff;stroke-opacity:0.3;stroke-width:0.48;" x="290.465765" xlink:href="#C0_0_badb79aa54" y="259.077043"/>
    </g>
    <g clip-path="url(#pcdcac85cd9)">
     <use style="fill:#dca6ae;fill-opacity:0.3;stroke:#ffffff;stroke-opacity:0.3;stroke-width:0.48;" x="290.465765" xlink:href="#C0_0_badb79aa54" y="263.700089"/>
    </g>
    <g clip-path="url(#pcdcac85cd9)">
     <use style="fill:#daa2ac;fill-opacity:0.3;stroke:#ffffff;stroke-opacity:0.3;stroke-width:0.48;" x="290.465765" xlink:href="#C0_0_badb79aa54" y="350.521961"/>
    </g>
    <g clip-path="url(#pcdcac85cd9)">
     <use style="fill:#d79ea9;fill-opacity:0.3;stroke:#ffffff;stroke-opacity:0.3;stroke-width:0.48;" x="290.465765" xlink:href="#C0_0_badb79aa54" y="204.137136"/>
    </g>
    <g clip-path="url(#pcdcac85cd9)">
     <use style="fill:#d499a7;fill-opacity:0.3;stroke:#ffffff;stroke-opacity:0.3;stroke-width:0.48;" x="290.465765" xlink:href="#C0_0_badb79aa54" y="194.53362"/>
    </g>
    <g clip-path="url(#pcdcac85cd9)">
     <use style="fill:#d295a5;fill-opacity:0.3;stroke:#ffffff;stroke-opacity:0.3;stroke-width:0.48;" x="290.465765" xlink:href="#C0_0_badb79aa54" y="320.347314"/>
    </g>
    <g clip-path="url(#pcdcac85cd9)">
     <use style="fill:#cf90a2;fill-opacity:0.3;stroke:#ffffff;stroke-opacity:0.3;stroke-width:0.48;" x="290.465765" xlink:href="#C0_0_badb79aa54" y="244.470707"/>
    </g>
    <g clip-path="url(#pcdcac85cd9)">
     <use style="fill:#cb8ca0;fill-opacity:0.3;stroke:#ffffff;stroke-opacity:0.3;stroke-width:0.48;" x="290.465765" xlink:href="#C0_0_badb79aa54" y="199.213762"/>
    </g>
    <g clip-path="url(#pcdcac85cd9)">
     <use style="fill:#c8879e;fill-opacity:0.3;stroke:#ffffff;stroke-opacity:0.3;stroke-width:0.48;" x="402.702862" xlink:href="#C0_0_badb79aa54" y="66.665455"/>
    </g>
    <g clip-path="url(#pcdcac85cd9)">
     <use style="fill:#c5849d;fill-opacity:0.3;stroke:#ffffff;stroke-opacity:0.3;stroke-width:0.48;" x="402.702862" xlink:href="#C0_0_badb79aa54" y="119.617084"/>
    </g>
    <g clip-path="url(#pcdcac85cd9)">
     <use style="fill:#c27f9a;fill-opacity:0.3;stroke:#ffffff;stroke-opacity:0.3;stroke-width:0.48;" x="402.702862" xlink:href="#C0_0_badb79aa54" y="162.001541"/>
    </g>
    <g clip-path="url(#pcdcac85cd9)">
     <use style="fill:#be7b98;fill-opacity:0.3;stroke:#ffffff;stroke-opacity:0.3;stroke-width:0.48;" x="402.702862" xlink:href="#C0_0_badb79aa54" y="287.852054"/>
    </g>
    <g clip-path="url(#pcdcac85cd9)">
     <use style="fill:#bb7797;fill-opacity:0.3;stroke:#ffffff;stroke-opacity:0.3;stroke-width:0.48;" x="402.702862" xlink:href="#C0_0_badb79aa54" y="225.280798"/>
    </g>
    <g clip-path="url(#pcdcac85cd9)">
     <use style="fill:#b57294;fill-opacity:0.3;stroke:#ffffff;stroke-opacity:0.3;stroke-width:0.48;" x="402.702862" xlink:href="#C0_0_badb79aa54" y="200.420831"/>
    </g>
    <g clip-path="url(#pcdcac85cd9)">
     <use style="fill:#b26f93;fill-opacity:0.3;stroke:#ffffff;stroke-opacity:0.3;stroke-width:0.48;" x="402.702862" xlink:href="#C0_0_badb79aa54" y="205.409016"/>
    </g>
    <g clip-path="url(#pcdcac85cd9)">
     <use style="fill:#ae6b91;fill-opacity:0.3;stroke:#ffffff;stroke-opacity:0.3;stroke-width:0.48;" x="402.702862" xlink:href="#C0_0_badb79aa54" y="240.680056"/>
    </g>
    <g clip-path="url(#pcdcac85cd9)">
     <use style="fill:#a9678f;fill-opacity:0.3;stroke:#ffffff;stroke-opacity:0.3;stroke-width:0.48;" x="402.702862" xlink:href="#C0_0_badb79aa54" y="206.698201"/>
    </g>
    <g clip-path="url(#pcdcac85cd9)">
     <use style="fill:#a5648d;fill-opacity:0.3;stroke:#ffffff;stroke-opacity:0.3;stroke-width:0.48;" x="402.702862" xlink:href="#C0_0_badb79aa54" y="121.711172"/>
    </g>
    <g clip-path="url(#pcdcac85cd9)">
     <use style="fill:#a1608b;fill-opacity:0.3;stroke:#ffffff;stroke-opacity:0.3;stroke-width:0.48;" x="402.702862" xlink:href="#C0_0_badb79aa54" y="235.264089"/>
    </g>
    <g clip-path="url(#pcdcac85cd9)">
     <use style="fill:#9b5c89;fill-opacity:0.3;stroke:#ffffff;stroke-opacity:0.3;stroke-width:0.48;" x="402.702862" xlink:href="#C0_0_badb79aa54" y="268.560314"/>
    </g>
    <g clip-path="url(#pcdcac85cd9)">
     <use style="fill:#965886;fill-opacity:0.3;stroke:#ffffff;stroke-opacity:0.3;stroke-width:0.48;" x="402.702862" xlink:href="#C0_0_badb79aa54" y="231.818123"/>
    </g>
    <g clip-path="url(#pcdcac85cd9)">
     <use style="fill:#925684;fill-opacity:0.3;stroke:#ffffff;stroke-opacity:0.3;stroke-width:0.48;" x="402.702862" xlink:href="#C0_0_badb79aa54" y="238.840122"/>
    </g>
    <g clip-path="url(#pcdcac85cd9)">
     <use style="fill:#8d5282;fill-opacity:0.3;stroke:#ffffff;stroke-opacity:0.3;stroke-width:0.48;" x="402.702862" xlink:href="#C0_0_badb79aa54" y="276.352673"/>
    </g>
    <g clip-path="url(#pcdcac85cd9)">
     <use style="fill:#884f7f;fill-opacity:0.3;stroke:#ffffff;stroke-opacity:0.3;stroke-width:0.48;" x="250.374324" xlink:href="#C0_0_badb79aa54" y="312.102671"/>
    </g>
    <g clip-path="url(#pcdcac85cd9)">
     <use style="fill:#834c7d;fill-opacity:0.3;stroke:#ffffff;stroke-opacity:0.3;stroke-width:0.48;" x="250.374324" xlink:href="#C0_0_badb79aa54" y="308.234638"/>
    </g>
    <g clip-path="url(#pcdcac85cd9)">
     <use style="fill:#7c4879;fill-opacity:0.3;stroke:#ffffff;stroke-opacity:0.3;stroke-width:0.48;" x="250.374324" xlink:href="#C0_0_badb79aa54" y="279.099347"/>
    </g>
    <g clip-path="url(#pcdcac85cd9)">
     <use style="fill:#784577;fill-opacity:0.3;stroke:#ffffff;stroke-opacity:0.3;stroke-width:0.48;" x="250.374324" xlink:href="#C0_0_badb79aa54" y="200.420831"/>
    </g>
    <g clip-path="url(#pcdcac85cd9)">
     <use style="fill:#724274;fill-opacity:0.3;stroke:#ffffff;stroke-opacity:0.3;stroke-width:0.48;" x="250.374324" xlink:href="#C0_0_badb79aa54" y="297.496334"/>
    </g>
    <g clip-path="url(#pcdcac85cd9)">
     <use style="fill:#6c3f70;fill-opacity:0.3;stroke:#ffffff;stroke-opacity:0.3;stroke-width:0.48;" x="250.374324" xlink:href="#C0_0_badb79aa54" y="281.928024"/>
    </g>
    <g clip-path="url(#pcdcac85cd9)">
     <use style="fill:#683d6e;fill-opacity:0.3;stroke:#ffffff;stroke-opacity:0.3;stroke-width:0.48;" x="250.374324" xlink:href="#C0_0_badb79aa54" y="300.9423"/>
    </g>
    <g clip-path="url(#pcdcac85cd9)">
     <use style="fill:#62396a;fill-opacity:0.3;stroke:#ffffff;stroke-opacity:0.3;stroke-width:0.48;" x="250.374324" xlink:href="#C0_0_badb79aa54" y="344.777558"/>
    </g>
    <g clip-path="url(#pcdcac85cd9)">
     <use style="fill:#5c3666;fill-opacity:0.3;stroke:#ffffff;stroke-opacity:0.3;stroke-width:0.48;" x="250.374324" xlink:href="#C0_0_badb79aa54" y="210.674461"/>
    </g>
    <g clip-path="url(#pcdcac85cd9)">
     <use style="fill:#563362;fill-opacity:0.3;stroke:#ffffff;stroke-opacity:0.3;stroke-width:0.48;" x="290.465765" xlink:href="#C0_0_badb79aa54" y="287.852054"/>
    </g>
    <g clip-path="url(#pcdcac85cd9)">
     <use style="fill:#52315f;fill-opacity:0.3;stroke:#ffffff;stroke-opacity:0.3;stroke-width:0.48;" x="277.747559" xlink:href="#C0_0_badb79aa54" y="250.457137"/>
    </g>
    <g clip-path="url(#pcdcac85cd9)">
     <use style="fill:#4c2e5a;fill-opacity:0.3;stroke:#ffffff;stroke-opacity:0.3;stroke-width:0.48;" x="277.747559" xlink:href="#C0_0_badb79aa54" y="363.174545"/>
    </g>
    <g clip-path="url(#pcdcac85cd9)">
     <use style="fill:#462b55;fill-opacity:0.3;stroke:#ffffff;stroke-opacity:0.3;stroke-width:0.48;" x="277.747559" xlink:href="#C0_0_badb79aa54" y="259.077043"/>
    </g>
    <g clip-path="url(#pcdcac85cd9)">
     <use style="fill:#422952;fill-opacity:0.3;stroke:#ffffff;stroke-opacity:0.3;stroke-width:0.48;" x="277.747559" xlink:href="#C0_0_badb79aa54" y="297.496334"/>
    </g>
    <g clip-path="url(#pcdcac85cd9)">
     <use style="fill:#3b264b;fill-opacity:0.3;stroke:#ffffff;stroke-opacity:0.3;stroke-width:0.48;" x="277.747559" xlink:href="#C0_0_badb79aa54" y="304.518333"/>
    </g>
    <g clip-path="url(#pcdcac85cd9)">
     <use style="fill:#362347;fill-opacity:0.3;stroke:#ffffff;stroke-opacity:0.3;stroke-width:0.48;" x="252.223855" xlink:href="#C0_0_badb79aa54" y="279.099347"/>
    </g>
    <g clip-path="url(#pcdcac85cd9)">
     <use style="fill:#312042;fill-opacity:0.3;stroke:#ffffff;stroke-opacity:0.3;stroke-width:0.48;" x="252.223855" xlink:href="#C0_0_badb79aa54" y="334.238526"/>
    </g>
    <g clip-path="url(#pcdcac85cd9)">
     <use style="fill:#2d1e3e;fill-opacity:0.3;stroke:#ffffff;stroke-opacity:0.3;stroke-width:0.48;" x="252.223855" xlink:href="#C0_0_badb79aa54" y="334.238526"/>
    </g>
   </g>
   <g id="PathCollection_2"/>
   <g id="PathCollection_3"/>
   <g id="PathCollection_4"/>
   <g id="PathCollection_5"/>
   <g id="PathCollection_6"/>
   <g id="PathCollection_7"/>
   <g id="PathCollection_8"/>
   <g id="patch_3">
    <path d="M 72 378 
L 72 51.84 
" style="fill:none;stroke:#ffffff;stroke-linecap:square;stroke-linejoin:miter;stroke-width:1.25;"/>
   </g>
   <g id="patch_4">
    <path d="M 518.4 378 
L 518.4 51.84 
" style="fill:none;stroke:#ffffff;stroke-linecap:square;stroke-linejoin:miter;stroke-width:1.25;"/>
   </g>
   <g id="patch_5">
    <path d="M 72 378 
L 518.4 378 
" style="fill:none;stroke:#ffffff;stroke-linecap:square;stroke-linejoin:miter;stroke-width:1.25;"/>
   </g>
   <g id="patch_6">
    <path d="M 72 51.84 
L 518.4 51.84 
" style="fill:none;stroke:#ffffff;stroke-linecap:square;stroke-linejoin:miter;stroke-width:1.25;"/>
   </g>
   <g id="legend_1">
    <g id="patch_7">
     <path d="M 463.265937 169.558906 
L 510.7 169.558906 
Q 512.9 169.558906 512.9 167.358906 
L 512.9 59.54 
Q 512.9 57.34 510.7 57.34 
L 463.265937 57.34 
Q 461.065937 57.34 461.065937 59.54 
L 461.065937 167.358906 
Q 461.065937 169.558906 463.265937 169.558906 
z
" style="fill:#eaeaf2;opacity:0.8;stroke:#cccccc;stroke-linejoin:miter;"/>
    </g>
    <g id="PathCollection_9">
     <defs>
      <path d="M 0 3 
C 0.795609 3 1.55874 2.683901 2.12132 2.12132 
C 2.683901 1.55874 3 0.795609 3 0 
C 3 -0.795609 2.683901 -1.55874 2.12132 -2.12132 
C 1.55874 -2.683901 0.795609 -3 0 -3 
C -0.795609 -3 -1.55874 -2.683901 -2.12132 -2.12132 
C -2.683901 -1.55874 -3 -0.795609 -3 0 
C -3 0.795609 -2.683901 1.55874 -2.12132 2.12132 
C -1.55874 2.683901 -0.795609 3 0 3 
z
" id="m548bc60fa3" style="stroke:#edd1cb;"/>
     </defs>
     <g>
      <use style="fill:#edd1cb;stroke:#edd1cb;" x="476.465937" xlink:href="#m548bc60fa3" y="66.726094"/>
     </g>
    </g>
    <g id="text_6">
     <!-- 0 -->
     <g style="fill:#262626;" transform="translate(496.265937 69.613594)scale(0.11 -0.11)">
      <use xlink:href="#ArialMT-30"/>
     </g>
    </g>
    <g id="PathCollection_10">
     <defs>
      <path d="M 0 3 
C 0.795609 3 1.55874 2.683901 2.12132 2.12132 
C 2.683901 1.55874 3 0.795609 3 0 
C 3 -0.795609 2.683901 -1.55874 2.12132 -2.12132 
C 1.55874 -2.683901 0.795609 -3 0 -3 
C -0.795609 -3 -1.55874 -2.683901 -2.12132 -2.12132 
C -2.683901 -1.55874 -3 -0.795609 -3 0 
C -3 0.795609 -2.683901 1.55874 -2.12132 2.12132 
C -1.55874 2.683901 -0.795609 3 0 3 
z
" id="m55129dd491" style="stroke:#dfacb1;"/>
     </defs>
     <g>
      <use style="fill:#dfacb1;stroke:#dfacb1;" x="476.465937" xlink:href="#m55129dd491" y="82.285937"/>
     </g>
    </g>
    <g id="text_7">
     <!-- 8 -->
     <g style="fill:#262626;" transform="translate(496.265937 85.173437)scale(0.11 -0.11)">
      <defs>
       <path d="M 1131 2484 
Q 781 2613 612 2850 
Q 444 3088 444 3419 
Q 444 3919 803 4259 
Q 1163 4600 1759 4600 
Q 2359 4600 2725 4251 
Q 3091 3903 3091 3403 
Q 3091 3084 2923 2848 
Q 2756 2613 2416 2484 
Q 2838 2347 3058 2040 
Q 3278 1734 3278 1309 
Q 3278 722 2862 322 
Q 2447 -78 1769 -78 
Q 1091 -78 675 323 
Q 259 725 259 1325 
Q 259 1772 486 2073 
Q 713 2375 1131 2484 
z
M 1019 3438 
Q 1019 3113 1228 2906 
Q 1438 2700 1772 2700 
Q 2097 2700 2305 2904 
Q 2513 3109 2513 3406 
Q 2513 3716 2298 3927 
Q 2084 4138 1766 4138 
Q 1444 4138 1231 3931 
Q 1019 3725 1019 3438 
z
M 838 1322 
Q 838 1081 952 856 
Q 1066 631 1291 507 
Q 1516 384 1775 384 
Q 2178 384 2440 643 
Q 2703 903 2703 1303 
Q 2703 1709 2433 1975 
Q 2163 2241 1756 2241 
Q 1359 2241 1098 1978 
Q 838 1716 838 1322 
z
" id="ArialMT-38" transform="scale(0.015625)"/>
      </defs>
      <use xlink:href="#ArialMT-38"/>
     </g>
    </g>
    <g id="PathCollection_11">
     <defs>
      <path d="M 0 3 
C 0.795609 3 1.55874 2.683901 2.12132 2.12132 
C 2.683901 1.55874 3 0.795609 3 0 
C 3 -0.795609 2.683901 -1.55874 2.12132 -2.12132 
C 1.55874 -2.683901 0.795609 -3 0 -3 
C -0.795609 -3 -1.55874 -2.683901 -2.12132 -2.12132 
C -2.683901 -1.55874 -3 -0.795609 -3 0 
C -3 0.795609 -2.683901 1.55874 -2.12132 2.12132 
C -1.55874 2.683901 -0.795609 3 0 3 
z
" id="mf1baf8365d" style="stroke:#c8879e;"/>
     </defs>
     <g>
      <use style="fill:#c8879e;stroke:#c8879e;" x="476.465937" xlink:href="#mf1baf8365d" y="97.845781"/>
     </g>
    </g>
    <g id="text_8">
     <!-- 16 -->
     <g style="fill:#262626;" transform="translate(496.265937 100.733281)scale(0.11 -0.11)">
      <defs>
       <path d="M 3184 3459 
L 2625 3416 
Q 2550 3747 2413 3897 
Q 2184 4138 1850 4138 
Q 1581 4138 1378 3988 
Q 1113 3794 959 3422 
Q 806 3050 800 2363 
Q 1003 2672 1297 2822 
Q 1591 2972 1913 2972 
Q 2475 2972 2870 2558 
Q 3266 2144 3266 1488 
Q 3266 1056 3080 686 
Q 2894 316 2569 119 
Q 2244 -78 1831 -78 
Q 1128 -78 684 439 
Q 241 956 241 2144 
Q 241 3472 731 4075 
Q 1159 4600 1884 4600 
Q 2425 4600 2770 4297 
Q 3116 3994 3184 3459 
z
M 888 1484 
Q 888 1194 1011 928 
Q 1134 663 1356 523 
Q 1578 384 1822 384 
Q 2178 384 2434 671 
Q 2691 959 2691 1453 
Q 2691 1928 2437 2201 
Q 2184 2475 1800 2475 
Q 1419 2475 1153 2201 
Q 888 1928 888 1484 
z
" id="ArialMT-36" transform="scale(0.015625)"/>
      </defs>
      <use xlink:href="#ArialMT-31"/>
      <use x="55.615234" xlink:href="#ArialMT-36"/>
     </g>
    </g>
    <g id="PathCollection_12">
     <defs>
      <path d="M 0 3 
C 0.795609 3 1.55874 2.683901 2.12132 2.12132 
C 2.683901 1.55874 3 0.795609 3 0 
C 3 -0.795609 2.683901 -1.55874 2.12132 -2.12132 
C 1.55874 -2.683901 0.795609 -3 0 -3 
C -0.795609 -3 -1.55874 -2.683901 -2.12132 -2.12132 
C -2.683901 -1.55874 -3 -0.795609 -3 0 
C -3 0.795609 -2.683901 1.55874 -2.12132 2.12132 
C -1.55874 2.683901 -0.795609 3 0 3 
z
" id="m39ec983b0b" style="stroke:#a9678f;"/>
     </defs>
     <g>
      <use style="fill:#a9678f;stroke:#a9678f;" x="476.465937" xlink:href="#m39ec983b0b" y="113.405625"/>
     </g>
    </g>
    <g id="text_9">
     <!-- 24 -->
     <g style="fill:#262626;" transform="translate(496.265937 116.293125)scale(0.11 -0.11)">
      <defs>
       <path d="M 2069 0 
L 2069 1097 
L 81 1097 
L 81 1613 
L 2172 4581 
L 2631 4581 
L 2631 1613 
L 3250 1613 
L 3250 1097 
L 2631 1097 
L 2631 0 
L 2069 0 
z
M 2069 1613 
L 2069 3678 
L 634 1613 
L 2069 1613 
z
" id="ArialMT-34" transform="scale(0.015625)"/>
      </defs>
      <use xlink:href="#ArialMT-32"/>
      <use x="55.615234" xlink:href="#ArialMT-34"/>
     </g>
    </g>
    <g id="PathCollection_13">
     <defs>
      <path d="M 0 3 
C 0.795609 3 1.55874 2.683901 2.12132 2.12132 
C 2.683901 1.55874 3 0.795609 3 0 
C 3 -0.795609 2.683901 -1.55874 2.12132 -2.12132 
C 1.55874 -2.683901 0.795609 -3 0 -3 
C -0.795609 -3 -1.55874 -2.683901 -2.12132 -2.12132 
C -2.683901 -1.55874 -3 -0.795609 -3 0 
C -3 0.795609 -2.683901 1.55874 -2.12132 2.12132 
C -1.55874 2.683901 -0.795609 3 0 3 
z
" id="mf12a9da1c4" style="stroke:#834c7d;"/>
     </defs>
     <g>
      <use style="fill:#834c7d;stroke:#834c7d;" x="476.465937" xlink:href="#mf12a9da1c4" y="128.965469"/>
     </g>
    </g>
    <g id="text_10">
     <!-- 32 -->
     <g style="fill:#262626;" transform="translate(496.265937 131.852969)scale(0.11 -0.11)">
      <use xlink:href="#ArialMT-33"/>
      <use x="55.615234" xlink:href="#ArialMT-32"/>
     </g>
    </g>
    <g id="PathCollection_14">
     <defs>
      <path d="M 0 3 
C 0.795609 3 1.55874 2.683901 2.12132 2.12132 
C 2.683901 1.55874 3 0.795609 3 0 
C 3 -0.795609 2.683901 -1.55874 2.12132 -2.12132 
C 1.55874 -2.683901 0.795609 -3 0 -3 
C -0.795609 -3 -1.55874 -2.683901 -2.12132 -2.12132 
C -2.683901 -1.55874 -3 -0.795609 -3 0 
C -3 0.795609 -2.683901 1.55874 -2.12132 2.12132 
C -1.55874 2.683901 -0.795609 3 0 3 
z
" id="m099dfe6007" style="stroke:#563362;"/>
     </defs>
     <g>
      <use style="fill:#563362;stroke:#563362;" x="476.465937" xlink:href="#m099dfe6007" y="144.525312"/>
     </g>
    </g>
    <g id="text_11">
     <!-- 40 -->
     <g style="fill:#262626;" transform="translate(496.265937 147.412812)scale(0.11 -0.11)">
      <use xlink:href="#ArialMT-34"/>
      <use x="55.615234" xlink:href="#ArialMT-30"/>
     </g>
    </g>
    <g id="PathCollection_15">
     <defs>
      <path d="M 0 3 
C 0.795609 3 1.55874 2.683901 2.12132 2.12132 
C 2.683901 1.55874 3 0.795609 3 0 
C 3 -0.795609 2.683901 -1.55874 2.12132 -2.12132 
C 1.55874 -2.683901 0.795609 -3 0 -3 
C -0.795609 -3 -1.55874 -2.683901 -2.12132 -2.12132 
C -2.683901 -1.55874 -3 -0.795609 -3 0 
C -3 0.795609 -2.683901 1.55874 -2.12132 2.12132 
C -1.55874 2.683901 -0.795609 3 0 3 
z
" id="m112c4dc45f" style="stroke:#2d1e3e;"/>
     </defs>
     <g>
      <use style="fill:#2d1e3e;stroke:#2d1e3e;" x="476.465937" xlink:href="#m112c4dc45f" y="160.085156"/>
     </g>
    </g>
    <g id="text_12">
     <!-- 48 -->
     <g style="fill:#262626;" transform="translate(496.265937 162.972656)scale(0.11 -0.11)">
      <use xlink:href="#ArialMT-34"/>
      <use x="55.615234" xlink:href="#ArialMT-38"/>
     </g>
    </g>
   </g>
  </g>
  <g id="axes_2">
   <g id="matplotlib.axis_3">
    <g id="ytick_12">
     <g id="line2d_38">
      <path clip-path="url(#pcdcac85cd9)" d="M 72 378 
L 518.4 378 
" style="fill:none;stroke:#ffffff;stroke-linecap:round;"/>
     </g>
     <g id="line2d_39">
      <defs>
       <path d="M 0 0 
L 6 0 
" id="mc925e6f09e" style="stroke:#262626;stroke-width:1.25;"/>
      </defs>
      <g>
       <use style="fill:#262626;stroke:#262626;stroke-width:1.25;" x="518.4" xlink:href="#mc925e6f09e" y="378"/>
      </g>
     </g>
     <g id="text_13">
      <!-- 0.0 -->
      <g style="fill:#262626;" transform="translate(527.9 381.936797)scale(0.11 -0.11)">
       <defs>
        <path d="M 581 0 
L 581 641 
L 1222 641 
L 1222 0 
L 581 0 
z
" id="ArialMT-2e" transform="scale(0.015625)"/>
       </defs>
       <use xlink:href="#ArialMT-30"/>
       <use x="55.615234" xlink:href="#ArialMT-2e"/>
       <use x="83.398438" xlink:href="#ArialMT-30"/>
      </g>
     </g>
    </g>
    <g id="ytick_13">
     <g id="line2d_40">
      <path clip-path="url(#pcdcac85cd9)" d="M 72 324.775252 
L 518.4 324.775252 
" style="fill:none;stroke:#ffffff;stroke-linecap:round;"/>
     </g>
     <g id="line2d_41">
      <g>
       <use style="fill:#262626;stroke:#262626;stroke-width:1.25;" x="518.4" xlink:href="#mc925e6f09e" y="324.775252"/>
      </g>
     </g>
     <g id="text_14">
      <!-- 0.2 -->
      <g style="fill:#262626;" transform="translate(527.9 328.712049)scale(0.11 -0.11)">
       <use xlink:href="#ArialMT-30"/>
       <use x="55.615234" xlink:href="#ArialMT-2e"/>
       <use x="83.398438" xlink:href="#ArialMT-32"/>
      </g>
     </g>
    </g>
    <g id="ytick_14">
     <g id="line2d_42">
      <path clip-path="url(#pcdcac85cd9)" d="M 72 271.550504 
L 518.4 271.550504 
" style="fill:none;stroke:#ffffff;stroke-linecap:round;"/>
     </g>
     <g id="line2d_43">
      <g>
       <use style="fill:#262626;stroke:#262626;stroke-width:1.25;" x="518.4" xlink:href="#mc925e6f09e" y="271.550504"/>
      </g>
     </g>
     <g id="text_15">
      <!-- 0.4 -->
      <g style="fill:#262626;" transform="translate(527.9 275.4873)scale(0.11 -0.11)">
       <use xlink:href="#ArialMT-30"/>
       <use x="55.615234" xlink:href="#ArialMT-2e"/>
       <use x="83.398438" xlink:href="#ArialMT-34"/>
      </g>
     </g>
    </g>
    <g id="ytick_15">
     <g id="line2d_44">
      <path clip-path="url(#pcdcac85cd9)" d="M 72 218.325755 
L 518.4 218.325755 
" style="fill:none;stroke:#ffffff;stroke-linecap:round;"/>
     </g>
     <g id="line2d_45">
      <g>
       <use style="fill:#262626;stroke:#262626;stroke-width:1.25;" x="518.4" xlink:href="#mc925e6f09e" y="218.325755"/>
      </g>
     </g>
     <g id="text_16">
      <!-- 0.6 -->
      <g style="fill:#262626;" transform="translate(527.9 222.262552)scale(0.11 -0.11)">
       <use xlink:href="#ArialMT-30"/>
       <use x="55.615234" xlink:href="#ArialMT-2e"/>
       <use x="83.398438" xlink:href="#ArialMT-36"/>
      </g>
     </g>
    </g>
    <g id="ytick_16">
     <g id="line2d_46">
      <path clip-path="url(#pcdcac85cd9)" d="M 72 165.101007 
L 518.4 165.101007 
" style="fill:none;stroke:#ffffff;stroke-linecap:round;"/>
     </g>
     <g id="line2d_47">
      <g>
       <use style="fill:#262626;stroke:#262626;stroke-width:1.25;" x="518.4" xlink:href="#mc925e6f09e" y="165.101007"/>
      </g>
     </g>
     <g id="text_17">
      <!-- 0.8 -->
      <g style="fill:#262626;" transform="translate(527.9 169.037804)scale(0.11 -0.11)">
       <use xlink:href="#ArialMT-30"/>
       <use x="55.615234" xlink:href="#ArialMT-2e"/>
       <use x="83.398438" xlink:href="#ArialMT-38"/>
      </g>
     </g>
    </g>
    <g id="ytick_17">
     <g id="line2d_48">
      <path clip-path="url(#pcdcac85cd9)" d="M 72 111.876259 
L 518.4 111.876259 
" style="fill:none;stroke:#ffffff;stroke-linecap:round;"/>
     </g>
     <g id="line2d_49">
      <g>
       <use style="fill:#262626;stroke:#262626;stroke-width:1.25;" x="518.4" xlink:href="#mc925e6f09e" y="111.876259"/>
      </g>
     </g>
     <g id="text_18">
      <!-- 1.0 -->
      <g style="fill:#262626;" transform="translate(527.9 115.813056)scale(0.11 -0.11)">
       <use xlink:href="#ArialMT-31"/>
       <use x="55.615234" xlink:href="#ArialMT-2e"/>
       <use x="83.398438" xlink:href="#ArialMT-30"/>
      </g>
     </g>
    </g>
    <g id="ytick_18">
     <g id="line2d_50">
      <path clip-path="url(#pcdcac85cd9)" d="M 72 58.651511 
L 518.4 58.651511 
" style="fill:none;stroke:#ffffff;stroke-linecap:round;"/>
     </g>
     <g id="line2d_51">
      <g>
       <use style="fill:#262626;stroke:#262626;stroke-width:1.25;" x="518.4" xlink:href="#mc925e6f09e" y="58.651511"/>
      </g>
     </g>
     <g id="text_19">
      <!-- 1.2 -->
      <g style="fill:#262626;" transform="translate(527.9 62.588308)scale(0.11 -0.11)">
       <use xlink:href="#ArialMT-31"/>
       <use x="55.615234" xlink:href="#ArialMT-2e"/>
       <use x="83.398438" xlink:href="#ArialMT-32"/>
      </g>
     </g>
    </g>
    <g id="text_20">
     <!-- Density -->
     <g style="fill:#262626;" transform="translate(555.779375 234.92625)rotate(-90)scale(0.12 -0.12)">
      <defs>
       <path d="M 494 0 
L 494 4581 
L 2072 4581 
Q 2606 4581 2888 4516 
Q 3281 4425 3559 4188 
Q 3922 3881 4101 3404 
Q 4281 2928 4281 2316 
Q 4281 1794 4159 1391 
Q 4038 988 3847 723 
Q 3656 459 3429 307 
Q 3203 156 2883 78 
Q 2563 0 2147 0 
L 494 0 
z
M 1100 541 
L 2078 541 
Q 2531 541 2789 625 
Q 3047 709 3200 863 
Q 3416 1078 3536 1442 
Q 3656 1806 3656 2325 
Q 3656 3044 3420 3430 
Q 3184 3816 2847 3947 
Q 2603 4041 2063 4041 
L 1100 4041 
L 1100 541 
z
" id="ArialMT-44" transform="scale(0.015625)"/>
       <path d="M 397 -1278 
L 334 -750 
Q 519 -800 656 -800 
Q 844 -800 956 -737 
Q 1069 -675 1141 -563 
Q 1194 -478 1313 -144 
Q 1328 -97 1363 -6 
L 103 3319 
L 709 3319 
L 1400 1397 
Q 1534 1031 1641 628 
Q 1738 1016 1872 1384 
L 2581 3319 
L 3144 3319 
L 1881 -56 
Q 1678 -603 1566 -809 
Q 1416 -1088 1222 -1217 
Q 1028 -1347 759 -1347 
Q 597 -1347 397 -1278 
z
" id="ArialMT-79" transform="scale(0.015625)"/>
      </defs>
      <use xlink:href="#ArialMT-44"/>
      <use x="72.216797" xlink:href="#ArialMT-65"/>
      <use x="127.832031" xlink:href="#ArialMT-6e"/>
      <use x="183.447266" xlink:href="#ArialMT-73"/>
      <use x="233.447266" xlink:href="#ArialMT-69"/>
      <use x="255.664062" xlink:href="#ArialMT-74"/>
      <use x="283.447266" xlink:href="#ArialMT-79"/>
     </g>
    </g>
   </g>
   <g id="line2d_52">
    <path clip-path="url(#pcdcac85cd9)" d="M 92.290909 377.713702 
L 100.448058 377.39191 
L 106.565921 376.972845 
L 112.683783 376.323785 
L 116.762357 375.720119 
L 120.840932 374.944989 
L 124.919507 373.96613 
L 128.998081 372.750165 
L 133.076656 371.263904 
L 137.155231 369.475764 
L 141.233805 367.357148 
L 145.31238 364.883564 
L 149.390955 362.035262 
L 153.469529 358.797167 
L 157.548104 355.157929 
L 161.626679 351.108036 
L 165.705254 346.637041 
L 169.783828 341.730136 
L 173.862403 336.364458 
L 177.940978 330.505671 
L 182.019552 324.105448 
L 186.098127 317.100507 
L 190.176702 309.413772 
L 194.255276 300.958041 
L 198.333851 291.642305 
L 202.412426 281.380498 
L 206.491 270.102156 
L 210.569575 257.764123 
L 214.64815 244.362252 
L 218.726725 229.941921 
L 222.805299 214.606264 
L 226.883874 198.52119 
L 235.041023 165.083195 
L 241.158885 140.170922 
L 245.23746 124.365776 
L 249.316035 109.698161 
L 251.355322 102.926217 
L 253.394609 96.600068 
L 255.433897 90.771532 
L 257.473184 85.490446 
L 259.512471 80.804083 
L 261.551759 76.756576 
L 263.591046 73.388358 
L 265.630333 70.735613 
L 267.669621 68.829768 
L 269.708908 67.697 
L 271.748196 67.357795 
L 273.787483 67.826549 
L 275.82677 69.111223 
L 277.866058 71.213067 
L 279.905345 74.126405 
L 281.944632 77.838506 
L 283.98392 82.329533 
L 286.023207 87.572584 
L 288.062494 93.533824 
L 290.101782 100.172712 
L 292.141069 107.442322 
L 294.180356 115.289757 
L 298.258931 132.479723 
L 302.337506 151.220891 
L 308.455368 180.967774 
L 314.57323 210.841069 
L 318.651804 229.82106 
L 322.730379 247.400119 
L 324.769667 255.507649 
L 326.808954 263.086096 
L 328.848241 270.086076 
L 330.887529 276.463736 
L 332.926816 282.181012 
L 334.966103 287.205829 
L 337.005391 291.512262 
L 339.044678 295.080648 
L 341.083965 297.897671 
L 343.123253 299.956416 
L 345.16254 301.256403 
L 347.201827 301.8036 
L 349.241115 301.610412 
L 351.280402 300.695654 
L 353.319689 299.084502 
L 355.358977 296.808406 
L 357.398264 293.904978 
L 359.437551 290.417828 
L 361.476839 286.39635 
L 363.516126 281.895445 
L 365.555413 276.975174 
L 369.633988 266.139926 
L 373.712563 254.455902 
L 379.830425 236.682267 
L 383.909 225.587028 
L 385.948287 220.495452 
L 387.987574 215.803212 
L 390.026862 211.57601 
L 392.066149 207.873731 
L 394.105436 204.74952 
L 396.144724 202.248963 
L 398.184011 200.409382 
L 400.223298 199.259269 
L 402.262586 198.817879 
L 404.301873 199.09499 
L 406.34116 200.090839 
L 408.380448 201.796237 
L 410.419735 204.192864 
L 412.459022 207.253738 
L 414.49831 210.943833 
L 416.537597 215.220858 
L 418.576884 220.036141 
L 420.616172 225.335623 
L 422.655459 231.060929 
L 426.734034 243.540632 
L 430.812608 256.964525 
L 441.009045 291.405459 
L 445.08762 304.408746 
L 449.166195 316.47946 
L 453.244769 327.409169 
L 455.284057 332.404793 
L 457.323344 337.075735 
L 459.362631 341.418889 
L 461.401919 345.435294 
L 463.441206 349.129673 
L 465.480493 352.50996 
L 467.519781 355.586816 
L 469.559068 358.373139 
L 471.598355 360.883603 
L 473.637643 363.134206 
L 475.67693 365.141862 
L 477.716217 366.924017 
L 479.755505 368.498314 
L 481.794792 369.882294 
L 483.834079 371.093148 
L 485.873367 372.147503 
L 487.912654 373.061256 
L 491.991229 374.526161 
L 496.069804 375.596414 
L 498.109091 376.012962 
L 498.109091 376.012962 
" style="fill:none;stroke:#4c72b0;stroke-linecap:round;stroke-width:1.5;"/>
   </g>
   <g id="patch_8">
    <path d="M 72 378 
L 72 51.84 
" style="fill:none;stroke:#ffffff;stroke-linecap:square;stroke-linejoin:miter;stroke-width:1.25;"/>
   </g>
   <g id="patch_9">
    <path d="M 518.4 378 
L 518.4 51.84 
" style="fill:none;stroke:#ffffff;stroke-linecap:square;stroke-linejoin:miter;stroke-width:1.25;"/>
   </g>
   <g id="patch_10">
    <path d="M 72 378 
L 518.4 378 
" style="fill:none;stroke:#ffffff;stroke-linecap:square;stroke-linejoin:miter;stroke-width:1.25;"/>
   </g>
   <g id="patch_11">
    <path d="M 72 51.84 
L 518.4 51.84 
" style="fill:none;stroke:#ffffff;stroke-linecap:square;stroke-linejoin:miter;stroke-width:1.25;"/>
   </g>
  </g>
 </g>
 <defs>
  <clipPath id="pcdcac85cd9">
   <rect height="326.16" width="446.4" x="72" y="51.84"/>
  </clipPath>
 </defs>
</svg>
