<?xml version="1.0" encoding="utf-8" standalone="no"?>
<!DOCTYPE svg PUBLIC "-//W3C//DTD SVG 1.1//EN"
  "http://www.w3.org/Graphics/SVG/1.1/DTD/svg11.dtd">
<svg height="432pt" version="1.1" viewBox="0 0 576 432" width="576pt" xmlns="http://www.w3.org/2000/svg" xmlns:xlink="http://www.w3.org/1999/xlink">
 <metadata>
  <rdf:RDF xmlns:cc="http://creativecommons.org/ns#" xmlns:dc="http://purl.org/dc/elements/1.1/" xmlns:rdf="http://www.w3.org/1999/02/22-rdf-syntax-ns#">
   <cc:Work>
    <dc:type rdf:resource="http://purl.org/dc/dcmitype/StillImage"/>
    <dc:date>1980-01-01T00:00:00+00:00</dc:date>
    <dc:format>image/svg+xml</dc:format>
    <dc:creator>
     <cc:Agent>
      <dc:title>Matplotlib v3.4.3, https://matplotlib.org/</dc:title>
     </cc:Agent>
    </dc:creator>
   </cc:Work>
  </rdf:RDF>
 </metadata>
 <defs>
  <style type="text/css">*{stroke-linecap:butt;stroke-linejoin:round;}</style>
 </defs>
 <g id="figure_1">
  <g id="patch_1">
   <path d="M 0 432 
L 576 432 
L 576 0 
L 0 0 
z
" style="fill:#ffffff;"/>
  </g>
  <g id="axes_1">
   <g id="patch_2">
    <path d="M 72 378 
L 518.4 378 
L 518.4 51.84 
L 72 51.84 
z
" style="fill:#eaeaf2;"/>
   </g>
   <g id="matplotlib.axis_1">
    <g id="xtick_1">
     <g id="line2d_1">
      <path clip-path="url(#p74bbaccb6f)" d="M 92.290909 378 
L 92.290909 51.84 
" style="fill:none;stroke:#ffffff;stroke-linecap:round;"/>
     </g>
     <g id="text_1">
      <!-- $\mathdefault{10^{0}}$ -->
      <g style="fill:#262626;" transform="translate(83.655909 398.84375)scale(0.11 -0.11)">
       <defs>
        <path d="M 2384 0 
L 1822 0 
L 1822 3584 
Q 1619 3391 1289 3197 
Q 959 3003 697 2906 
L 697 3450 
Q 1169 3672 1522 3987 
Q 1875 4303 2022 4600 
L 2384 4600 
L 2384 0 
z
" id="ArialMT-31" transform="scale(0.015625)"/>
        <path d="M 266 2259 
Q 266 3072 433 3567 
Q 600 4063 929 4331 
Q 1259 4600 1759 4600 
Q 2128 4600 2406 4451 
Q 2684 4303 2865 4023 
Q 3047 3744 3150 3342 
Q 3253 2941 3253 2259 
Q 3253 1453 3087 958 
Q 2922 463 2592 192 
Q 2263 -78 1759 -78 
Q 1097 -78 719 397 
Q 266 969 266 2259 
z
M 844 2259 
Q 844 1131 1108 757 
Q 1372 384 1759 384 
Q 2147 384 2411 759 
Q 2675 1134 2675 2259 
Q 2675 3391 2411 3762 
Q 2147 4134 1753 4134 
Q 1366 4134 1134 3806 
Q 844 3388 844 2259 
z
" id="ArialMT-30" transform="scale(0.015625)"/>
       </defs>
       <use transform="translate(0 0.99375)" xlink:href="#ArialMT-31"/>
       <use transform="translate(55.615234 0.99375)" xlink:href="#ArialMT-30"/>
       <use transform="translate(112.972813 70.6875)scale(0.7)" xlink:href="#ArialMT-30"/>
      </g>
     </g>
    </g>
    <g id="xtick_2">
     <g id="line2d_2">
      <path clip-path="url(#p74bbaccb6f)" d="M 181.540585 378 
L 181.540585 51.84 
" style="fill:none;stroke:#ffffff;stroke-linecap:round;"/>
     </g>
     <g id="text_2">
      <!-- $\mathdefault{10^{1}}$ -->
      <g style="fill:#262626;" transform="translate(172.905585 398.84375)scale(0.11 -0.11)">
       <use transform="translate(0 0.99375)" xlink:href="#ArialMT-31"/>
       <use transform="translate(55.615234 0.99375)" xlink:href="#ArialMT-30"/>
       <use transform="translate(112.972813 70.6875)scale(0.7)" xlink:href="#ArialMT-31"/>
      </g>
     </g>
    </g>
    <g id="xtick_3">
     <g id="line2d_3">
      <path clip-path="url(#p74bbaccb6f)" d="M 270.790261 378 
L 270.790261 51.84 
" style="fill:none;stroke:#ffffff;stroke-linecap:round;"/>
     </g>
     <g id="text_3">
      <!-- $\mathdefault{10^{2}}$ -->
      <g style="fill:#262626;" transform="translate(262.155261 398.84375)scale(0.11 -0.11)">
       <defs>
        <path d="M 3222 541 
L 3222 0 
L 194 0 
Q 188 203 259 391 
Q 375 700 629 1000 
Q 884 1300 1366 1694 
Q 2113 2306 2375 2664 
Q 2638 3022 2638 3341 
Q 2638 3675 2398 3904 
Q 2159 4134 1775 4134 
Q 1369 4134 1125 3890 
Q 881 3647 878 3216 
L 300 3275 
Q 359 3922 746 4261 
Q 1134 4600 1788 4600 
Q 2447 4600 2831 4234 
Q 3216 3869 3216 3328 
Q 3216 3053 3103 2787 
Q 2991 2522 2730 2228 
Q 2469 1934 1863 1422 
Q 1356 997 1212 845 
Q 1069 694 975 541 
L 3222 541 
z
" id="ArialMT-32" transform="scale(0.015625)"/>
       </defs>
       <use transform="translate(0 0.99375)" xlink:href="#ArialMT-31"/>
       <use transform="translate(55.615234 0.99375)" xlink:href="#ArialMT-30"/>
       <use transform="translate(112.972813 70.6875)scale(0.7)" xlink:href="#ArialMT-32"/>
      </g>
     </g>
    </g>
    <g id="xtick_4">
     <g id="line2d_4">
      <path clip-path="url(#p74bbaccb6f)" d="M 360.039938 378 
L 360.039938 51.84 
" style="fill:none;stroke:#ffffff;stroke-linecap:round;"/>
     </g>
     <g id="text_4">
      <!-- $\mathdefault{10^{3}}$ -->
      <g style="fill:#262626;" transform="translate(351.404938 398.84375)scale(0.11 -0.11)">
       <defs>
        <path d="M 269 1209 
L 831 1284 
Q 928 806 1161 595 
Q 1394 384 1728 384 
Q 2125 384 2398 659 
Q 2672 934 2672 1341 
Q 2672 1728 2419 1979 
Q 2166 2231 1775 2231 
Q 1616 2231 1378 2169 
L 1441 2663 
Q 1497 2656 1531 2656 
Q 1891 2656 2178 2843 
Q 2466 3031 2466 3422 
Q 2466 3731 2256 3934 
Q 2047 4138 1716 4138 
Q 1388 4138 1169 3931 
Q 950 3725 888 3313 
L 325 3413 
Q 428 3978 793 4289 
Q 1159 4600 1703 4600 
Q 2078 4600 2393 4439 
Q 2709 4278 2876 4000 
Q 3044 3722 3044 3409 
Q 3044 3113 2884 2869 
Q 2725 2625 2413 2481 
Q 2819 2388 3044 2092 
Q 3269 1797 3269 1353 
Q 3269 753 2831 336 
Q 2394 -81 1725 -81 
Q 1122 -81 723 278 
Q 325 638 269 1209 
z
" id="ArialMT-33" transform="scale(0.015625)"/>
       </defs>
       <use transform="translate(0 0.99375)" xlink:href="#ArialMT-31"/>
       <use transform="translate(55.615234 0.99375)" xlink:href="#ArialMT-30"/>
       <use transform="translate(112.972813 70.6875)scale(0.7)" xlink:href="#ArialMT-33"/>
      </g>
     </g>
    </g>
    <g id="xtick_5">
     <g id="line2d_5">
      <path clip-path="url(#p74bbaccb6f)" d="M 449.289614 378 
L 449.289614 51.84 
" style="fill:none;stroke:#ffffff;stroke-linecap:round;"/>
     </g>
     <g id="text_5">
      <!-- $\mathdefault{10^{4}}$ -->
      <g style="fill:#262626;" transform="translate(440.654614 398.73375)scale(0.11 -0.11)">
       <defs>
        <path d="M 2069 0 
L 2069 1097 
L 81 1097 
L 81 1613 
L 2172 4581 
L 2631 4581 
L 2631 1613 
L 3250 1613 
L 3250 1097 
L 2631 1097 
L 2631 0 
L 2069 0 
z
M 2069 1613 
L 2069 3678 
L 634 1613 
L 2069 1613 
z
" id="ArialMT-34" transform="scale(0.015625)"/>
       </defs>
       <use transform="translate(0 0.201563)" xlink:href="#ArialMT-31"/>
       <use transform="translate(55.615234 0.201563)" xlink:href="#ArialMT-30"/>
       <use transform="translate(112.972813 69.895313)scale(0.7)" xlink:href="#ArialMT-34"/>
      </g>
     </g>
    </g>
    <g id="xtick_6"/>
    <g id="xtick_7"/>
    <g id="xtick_8"/>
    <g id="xtick_9"/>
    <g id="xtick_10"/>
    <g id="xtick_11"/>
    <g id="xtick_12"/>
    <g id="xtick_13"/>
    <g id="xtick_14"/>
    <g id="xtick_15"/>
    <g id="xtick_16"/>
    <g id="xtick_17"/>
    <g id="xtick_18"/>
    <g id="xtick_19"/>
    <g id="xtick_20"/>
    <g id="xtick_21"/>
    <g id="xtick_22"/>
    <g id="xtick_23"/>
    <g id="xtick_24"/>
    <g id="xtick_25"/>
    <g id="xtick_26"/>
    <g id="xtick_27"/>
    <g id="xtick_28"/>
    <g id="xtick_29"/>
    <g id="xtick_30"/>
    <g id="xtick_31"/>
    <g id="xtick_32"/>
    <g id="xtick_33"/>
    <g id="xtick_34"/>
    <g id="xtick_35"/>
    <g id="xtick_36"/>
    <g id="xtick_37"/>
    <g id="xtick_38"/>
    <g id="xtick_39"/>
    <g id="xtick_40"/>
    <g id="xtick_41"/>
    <g id="xtick_42"/>
    <g id="xtick_43"/>
    <g id="xtick_44"/>
    <g id="xtick_45"/>
    <g id="text_6">
     <!-- file_size -->
     <g style="fill:#262626;" transform="translate(273.524063 413.765625)scale(0.12 -0.12)">
      <defs>
       <path d="M 556 0 
L 556 2881 
L 59 2881 
L 59 3319 
L 556 3319 
L 556 3672 
Q 556 4006 616 4169 
Q 697 4388 901 4523 
Q 1106 4659 1475 4659 
Q 1713 4659 2000 4603 
L 1916 4113 
Q 1741 4144 1584 4144 
Q 1328 4144 1222 4034 
Q 1116 3925 1116 3625 
L 1116 3319 
L 1763 3319 
L 1763 2881 
L 1116 2881 
L 1116 0 
L 556 0 
z
" id="ArialMT-66" transform="scale(0.015625)"/>
       <path d="M 425 3934 
L 425 4581 
L 988 4581 
L 988 3934 
L 425 3934 
z
M 425 0 
L 425 3319 
L 988 3319 
L 988 0 
L 425 0 
z
" id="ArialMT-69" transform="scale(0.015625)"/>
       <path d="M 409 0 
L 409 4581 
L 972 4581 
L 972 0 
L 409 0 
z
" id="ArialMT-6c" transform="scale(0.015625)"/>
       <path d="M 2694 1069 
L 3275 997 
Q 3138 488 2766 206 
Q 2394 -75 1816 -75 
Q 1088 -75 661 373 
Q 234 822 234 1631 
Q 234 2469 665 2931 
Q 1097 3394 1784 3394 
Q 2450 3394 2872 2941 
Q 3294 2488 3294 1666 
Q 3294 1616 3291 1516 
L 816 1516 
Q 847 969 1125 678 
Q 1403 388 1819 388 
Q 2128 388 2347 550 
Q 2566 713 2694 1069 
z
M 847 1978 
L 2700 1978 
Q 2663 2397 2488 2606 
Q 2219 2931 1791 2931 
Q 1403 2931 1139 2672 
Q 875 2413 847 1978 
z
" id="ArialMT-65" transform="scale(0.015625)"/>
       <path d="M -97 -1272 
L -97 -866 
L 3631 -866 
L 3631 -1272 
L -97 -1272 
z
" id="ArialMT-5f" transform="scale(0.015625)"/>
       <path d="M 197 991 
L 753 1078 
Q 800 744 1014 566 
Q 1228 388 1613 388 
Q 2000 388 2187 545 
Q 2375 703 2375 916 
Q 2375 1106 2209 1216 
Q 2094 1291 1634 1406 
Q 1016 1563 777 1677 
Q 538 1791 414 1992 
Q 291 2194 291 2438 
Q 291 2659 392 2848 
Q 494 3038 669 3163 
Q 800 3259 1026 3326 
Q 1253 3394 1513 3394 
Q 1903 3394 2198 3281 
Q 2494 3169 2634 2976 
Q 2775 2784 2828 2463 
L 2278 2388 
Q 2241 2644 2061 2787 
Q 1881 2931 1553 2931 
Q 1166 2931 1000 2803 
Q 834 2675 834 2503 
Q 834 2394 903 2306 
Q 972 2216 1119 2156 
Q 1203 2125 1616 2013 
Q 2213 1853 2448 1751 
Q 2684 1650 2818 1456 
Q 2953 1263 2953 975 
Q 2953 694 2789 445 
Q 2625 197 2315 61 
Q 2006 -75 1616 -75 
Q 969 -75 630 194 
Q 291 463 197 991 
z
" id="ArialMT-73" transform="scale(0.015625)"/>
       <path d="M 125 0 
L 125 456 
L 2238 2881 
Q 1878 2863 1603 2863 
L 250 2863 
L 250 3319 
L 2963 3319 
L 2963 2947 
L 1166 841 
L 819 456 
Q 1197 484 1528 484 
L 3063 484 
L 3063 0 
L 125 0 
z
" id="ArialMT-7a" transform="scale(0.015625)"/>
      </defs>
      <use xlink:href="#ArialMT-66"/>
      <use x="27.783203" xlink:href="#ArialMT-69"/>
      <use x="50" xlink:href="#ArialMT-6c"/>
      <use x="72.216797" xlink:href="#ArialMT-65"/>
      <use x="127.832031" xlink:href="#ArialMT-5f"/>
      <use x="183.447266" xlink:href="#ArialMT-73"/>
      <use x="233.447266" xlink:href="#ArialMT-69"/>
      <use x="255.664062" xlink:href="#ArialMT-7a"/>
      <use x="305.664062" xlink:href="#ArialMT-65"/>
     </g>
    </g>
   </g>
   <g id="matplotlib.axis_2">
    <g id="ytick_1">
     <g id="line2d_6">
      <path clip-path="url(#p74bbaccb6f)" d="M 72 378 
L 518.4 378 
" style="fill:none;stroke:#ffffff;stroke-linecap:round;"/>
     </g>
     <g id="text_7">
      <!-- 0 -->
      <g style="fill:#262626;" transform="translate(56.382969 381.936797)scale(0.11 -0.11)">
       <use xlink:href="#ArialMT-30"/>
      </g>
     </g>
    </g>
    <g id="ytick_2">
     <g id="line2d_7">
      <path clip-path="url(#p74bbaccb6f)" d="M 72 327.243697 
L 518.4 327.243697 
" style="fill:none;stroke:#ffffff;stroke-linecap:round;"/>
     </g>
     <g id="text_8">
      <!-- 200 -->
      <g style="fill:#262626;" transform="translate(44.148906 331.180494)scale(0.11 -0.11)">
       <use xlink:href="#ArialMT-32"/>
       <use x="55.615234" xlink:href="#ArialMT-30"/>
       <use x="111.230469" xlink:href="#ArialMT-30"/>
      </g>
     </g>
    </g>
    <g id="ytick_3">
     <g id="line2d_8">
      <path clip-path="url(#p74bbaccb6f)" d="M 72 276.487395 
L 518.4 276.487395 
" style="fill:none;stroke:#ffffff;stroke-linecap:round;"/>
     </g>
     <g id="text_9">
      <!-- 400 -->
      <g style="fill:#262626;" transform="translate(44.148906 280.424192)scale(0.11 -0.11)">
       <use xlink:href="#ArialMT-34"/>
       <use x="55.615234" xlink:href="#ArialMT-30"/>
       <use x="111.230469" xlink:href="#ArialMT-30"/>
      </g>
     </g>
    </g>
    <g id="ytick_4">
     <g id="line2d_9">
      <path clip-path="url(#p74bbaccb6f)" d="M 72 225.731092 
L 518.4 225.731092 
" style="fill:none;stroke:#ffffff;stroke-linecap:round;"/>
     </g>
     <g id="text_10">
      <!-- 600 -->
      <g style="fill:#262626;" transform="translate(44.148906 229.667889)scale(0.11 -0.11)">
       <defs>
        <path d="M 3184 3459 
L 2625 3416 
Q 2550 3747 2413 3897 
Q 2184 4138 1850 4138 
Q 1581 4138 1378 3988 
Q 1113 3794 959 3422 
Q 806 3050 800 2363 
Q 1003 2672 1297 2822 
Q 1591 2972 1913 2972 
Q 2475 2972 2870 2558 
Q 3266 2144 3266 1488 
Q 3266 1056 3080 686 
Q 2894 316 2569 119 
Q 2244 -78 1831 -78 
Q 1128 -78 684 439 
Q 241 956 241 2144 
Q 241 3472 731 4075 
Q 1159 4600 1884 4600 
Q 2425 4600 2770 4297 
Q 3116 3994 3184 3459 
z
M 888 1484 
Q 888 1194 1011 928 
Q 1134 663 1356 523 
Q 1578 384 1822 384 
Q 2178 384 2434 671 
Q 2691 959 2691 1453 
Q 2691 1928 2437 2201 
Q 2184 2475 1800 2475 
Q 1419 2475 1153 2201 
Q 888 1928 888 1484 
z
" id="ArialMT-36" transform="scale(0.015625)"/>
       </defs>
       <use xlink:href="#ArialMT-36"/>
       <use x="55.615234" xlink:href="#ArialMT-30"/>
       <use x="111.230469" xlink:href="#ArialMT-30"/>
      </g>
     </g>
    </g>
    <g id="ytick_5">
     <g id="line2d_10">
      <path clip-path="url(#p74bbaccb6f)" d="M 72 174.97479 
L 518.4 174.97479 
" style="fill:none;stroke:#ffffff;stroke-linecap:round;"/>
     </g>
     <g id="text_11">
      <!-- 800 -->
      <g style="fill:#262626;" transform="translate(44.148906 178.911587)scale(0.11 -0.11)">
       <defs>
        <path d="M 1131 2484 
Q 781 2613 612 2850 
Q 444 3088 444 3419 
Q 444 3919 803 4259 
Q 1163 4600 1759 4600 
Q 2359 4600 2725 4251 
Q 3091 3903 3091 3403 
Q 3091 3084 2923 2848 
Q 2756 2613 2416 2484 
Q 2838 2347 3058 2040 
Q 3278 1734 3278 1309 
Q 3278 722 2862 322 
Q 2447 -78 1769 -78 
Q 1091 -78 675 323 
Q 259 725 259 1325 
Q 259 1772 486 2073 
Q 713 2375 1131 2484 
z
M 1019 3438 
Q 1019 3113 1228 2906 
Q 1438 2700 1772 2700 
Q 2097 2700 2305 2904 
Q 2513 3109 2513 3406 
Q 2513 3716 2298 3927 
Q 2084 4138 1766 4138 
Q 1444 4138 1231 3931 
Q 1019 3725 1019 3438 
z
M 838 1322 
Q 838 1081 952 856 
Q 1066 631 1291 507 
Q 1516 384 1775 384 
Q 2178 384 2440 643 
Q 2703 903 2703 1303 
Q 2703 1709 2433 1975 
Q 2163 2241 1756 2241 
Q 1359 2241 1098 1978 
Q 838 1716 838 1322 
z
" id="ArialMT-38" transform="scale(0.015625)"/>
       </defs>
       <use xlink:href="#ArialMT-38"/>
       <use x="55.615234" xlink:href="#ArialMT-30"/>
       <use x="111.230469" xlink:href="#ArialMT-30"/>
      </g>
     </g>
    </g>
    <g id="ytick_6">
     <g id="line2d_11">
      <path clip-path="url(#p74bbaccb6f)" d="M 72 124.218487 
L 518.4 124.218487 
" style="fill:none;stroke:#ffffff;stroke-linecap:round;"/>
     </g>
     <g id="text_12">
      <!-- 1000 -->
      <g style="fill:#262626;" transform="translate(38.031875 128.155284)scale(0.11 -0.11)">
       <use xlink:href="#ArialMT-31"/>
       <use x="55.615234" xlink:href="#ArialMT-30"/>
       <use x="111.230469" xlink:href="#ArialMT-30"/>
       <use x="166.845703" xlink:href="#ArialMT-30"/>
      </g>
     </g>
    </g>
    <g id="ytick_7">
     <g id="line2d_12">
      <path clip-path="url(#p74bbaccb6f)" d="M 72 73.462185 
L 518.4 73.462185 
" style="fill:none;stroke:#ffffff;stroke-linecap:round;"/>
     </g>
     <g id="text_13">
      <!-- 1200 -->
      <g style="fill:#262626;" transform="translate(38.031875 77.398982)scale(0.11 -0.11)">
       <use xlink:href="#ArialMT-31"/>
       <use x="55.615234" xlink:href="#ArialMT-32"/>
       <use x="111.230469" xlink:href="#ArialMT-30"/>
       <use x="166.845703" xlink:href="#ArialMT-30"/>
      </g>
     </g>
    </g>
    <g id="text_14">
     <!-- Count -->
     <g style="fill:#262626;" transform="translate(31.646875 230.929688)rotate(-90)scale(0.12 -0.12)">
      <defs>
       <path d="M 3763 1606 
L 4369 1453 
Q 4178 706 3683 314 
Q 3188 -78 2472 -78 
Q 1731 -78 1267 223 
Q 803 525 561 1097 
Q 319 1669 319 2325 
Q 319 3041 592 3573 
Q 866 4106 1370 4382 
Q 1875 4659 2481 4659 
Q 3169 4659 3637 4309 
Q 4106 3959 4291 3325 
L 3694 3184 
Q 3534 3684 3231 3912 
Q 2928 4141 2469 4141 
Q 1941 4141 1586 3887 
Q 1231 3634 1087 3207 
Q 944 2781 944 2328 
Q 944 1744 1114 1308 
Q 1284 872 1643 656 
Q 2003 441 2422 441 
Q 2931 441 3284 734 
Q 3638 1028 3763 1606 
z
" id="ArialMT-43" transform="scale(0.015625)"/>
       <path d="M 213 1659 
Q 213 2581 725 3025 
Q 1153 3394 1769 3394 
Q 2453 3394 2887 2945 
Q 3322 2497 3322 1706 
Q 3322 1066 3130 698 
Q 2938 331 2570 128 
Q 2203 -75 1769 -75 
Q 1072 -75 642 372 
Q 213 819 213 1659 
z
M 791 1659 
Q 791 1022 1069 705 
Q 1347 388 1769 388 
Q 2188 388 2466 706 
Q 2744 1025 2744 1678 
Q 2744 2294 2464 2611 
Q 2184 2928 1769 2928 
Q 1347 2928 1069 2612 
Q 791 2297 791 1659 
z
" id="ArialMT-6f" transform="scale(0.015625)"/>
       <path d="M 2597 0 
L 2597 488 
Q 2209 -75 1544 -75 
Q 1250 -75 995 37 
Q 741 150 617 320 
Q 494 491 444 738 
Q 409 903 409 1263 
L 409 3319 
L 972 3319 
L 972 1478 
Q 972 1038 1006 884 
Q 1059 663 1231 536 
Q 1403 409 1656 409 
Q 1909 409 2131 539 
Q 2353 669 2445 892 
Q 2538 1116 2538 1541 
L 2538 3319 
L 3100 3319 
L 3100 0 
L 2597 0 
z
" id="ArialMT-75" transform="scale(0.015625)"/>
       <path d="M 422 0 
L 422 3319 
L 928 3319 
L 928 2847 
Q 1294 3394 1984 3394 
Q 2284 3394 2536 3286 
Q 2788 3178 2913 3003 
Q 3038 2828 3088 2588 
Q 3119 2431 3119 2041 
L 3119 0 
L 2556 0 
L 2556 2019 
Q 2556 2363 2490 2533 
Q 2425 2703 2258 2804 
Q 2091 2906 1866 2906 
Q 1506 2906 1245 2678 
Q 984 2450 984 1813 
L 984 0 
L 422 0 
z
" id="ArialMT-6e" transform="scale(0.015625)"/>
       <path d="M 1650 503 
L 1731 6 
Q 1494 -44 1306 -44 
Q 1000 -44 831 53 
Q 663 150 594 308 
Q 525 466 525 972 
L 525 2881 
L 113 2881 
L 113 3319 
L 525 3319 
L 525 4141 
L 1084 4478 
L 1084 3319 
L 1650 3319 
L 1650 2881 
L 1084 2881 
L 1084 941 
Q 1084 700 1114 631 
Q 1144 563 1211 522 
Q 1278 481 1403 481 
Q 1497 481 1650 503 
z
" id="ArialMT-74" transform="scale(0.015625)"/>
      </defs>
      <use xlink:href="#ArialMT-43"/>
      <use x="72.216797" xlink:href="#ArialMT-6f"/>
      <use x="127.832031" xlink:href="#ArialMT-75"/>
      <use x="183.447266" xlink:href="#ArialMT-6e"/>
      <use x="239.0625" xlink:href="#ArialMT-74"/>
     </g>
    </g>
   </g>
   <g id="patch_3">
    <path clip-path="url(#p74bbaccb6f)" d="M 92.290909 378 
L 98.258824 378 
L 98.258824 369.878992 
L 92.290909 369.878992 
z
" style="fill:#4c72b0;fill-opacity:0.5;stroke:#ffffff;stroke-linejoin:miter;stroke-width:0.596791;"/>
   </g>
   <g id="patch_4">
    <path clip-path="url(#p74bbaccb6f)" d="M 98.258824 378 
L 104.226738 378 
L 104.226738 378 
L 98.258824 378 
z
" style="fill:#4c72b0;fill-opacity:0.5;stroke:#ffffff;stroke-linejoin:miter;stroke-width:0.596791;"/>
   </g>
   <g id="patch_5">
    <path clip-path="url(#p74bbaccb6f)" d="M 104.226738 378 
L 110.194652 378 
L 110.194652 378 
L 104.226738 378 
z
" style="fill:#4c72b0;fill-opacity:0.5;stroke:#ffffff;stroke-linejoin:miter;stroke-width:0.596791;"/>
   </g>
   <g id="patch_6">
    <path clip-path="url(#p74bbaccb6f)" d="M 110.194652 378 
L 116.162567 378 
L 116.162567 378 
L 110.194652 378 
z
" style="fill:#4c72b0;fill-opacity:0.5;stroke:#ffffff;stroke-linejoin:miter;stroke-width:0.596791;"/>
   </g>
   <g id="patch_7">
    <path clip-path="url(#p74bbaccb6f)" d="M 116.162567 378 
L 122.130481 378 
L 122.130481 375.969748 
L 116.162567 375.969748 
z
" style="fill:#4c72b0;fill-opacity:0.5;stroke:#ffffff;stroke-linejoin:miter;stroke-width:0.596791;"/>
   </g>
   <g id="patch_8">
    <path clip-path="url(#p74bbaccb6f)" d="M 122.130481 378 
L 128.098396 378 
L 128.098396 378 
L 122.130481 378 
z
" style="fill:#4c72b0;fill-opacity:0.5;stroke:#ffffff;stroke-linejoin:miter;stroke-width:0.596791;"/>
   </g>
   <g id="patch_9">
    <path clip-path="url(#p74bbaccb6f)" d="M 128.098396 378 
L 134.06631 378 
L 134.06631 378 
L 128.098396 378 
z
" style="fill:#4c72b0;fill-opacity:0.5;stroke:#ffffff;stroke-linejoin:miter;stroke-width:0.596791;"/>
   </g>
   <g id="patch_10">
    <path clip-path="url(#p74bbaccb6f)" d="M 134.06631 378 
L 140.034225 378 
L 140.034225 375.715966 
L 134.06631 375.715966 
z
" style="fill:#4c72b0;fill-opacity:0.5;stroke:#ffffff;stroke-linejoin:miter;stroke-width:0.596791;"/>
   </g>
   <g id="patch_11">
    <path clip-path="url(#p74bbaccb6f)" d="M 140.034225 378 
L 146.002139 378 
L 146.002139 378 
L 140.034225 378 
z
" style="fill:#4c72b0;fill-opacity:0.5;stroke:#ffffff;stroke-linejoin:miter;stroke-width:0.596791;"/>
   </g>
   <g id="patch_12">
    <path clip-path="url(#p74bbaccb6f)" d="M 146.002139 378 
L 151.970053 378 
L 151.970053 377.238655 
L 146.002139 377.238655 
z
" style="fill:#4c72b0;fill-opacity:0.5;stroke:#ffffff;stroke-linejoin:miter;stroke-width:0.596791;"/>
   </g>
   <g id="patch_13">
    <path clip-path="url(#p74bbaccb6f)" d="M 151.970053 378 
L 157.937968 378 
L 157.937968 377.492437 
L 151.970053 377.492437 
z
" style="fill:#4c72b0;fill-opacity:0.5;stroke:#ffffff;stroke-linejoin:miter;stroke-width:0.596791;"/>
   </g>
   <g id="patch_14">
    <path clip-path="url(#p74bbaccb6f)" d="M 157.937968 378 
L 163.905882 378 
L 163.905882 377.238655 
L 157.937968 377.238655 
z
" style="fill:#4c72b0;fill-opacity:0.5;stroke:#ffffff;stroke-linejoin:miter;stroke-width:0.596791;"/>
   </g>
   <g id="patch_15">
    <path clip-path="url(#p74bbaccb6f)" d="M 163.905882 378 
L 169.873797 378 
L 169.873797 376.731092 
L 163.905882 376.731092 
z
" style="fill:#4c72b0;fill-opacity:0.5;stroke:#ffffff;stroke-linejoin:miter;stroke-width:0.596791;"/>
   </g>
   <g id="patch_16">
    <path clip-path="url(#p74bbaccb6f)" d="M 169.873797 378 
L 175.841711 378 
L 175.841711 377.492437 
L 169.873797 377.492437 
z
" style="fill:#4c72b0;fill-opacity:0.5;stroke:#ffffff;stroke-linejoin:miter;stroke-width:0.596791;"/>
   </g>
   <g id="patch_17">
    <path clip-path="url(#p74bbaccb6f)" d="M 175.841711 378 
L 181.809626 378 
L 181.809626 376.731092 
L 175.841711 376.731092 
z
" style="fill:#4c72b0;fill-opacity:0.5;stroke:#ffffff;stroke-linejoin:miter;stroke-width:0.596791;"/>
   </g>
   <g id="patch_18">
    <path clip-path="url(#p74bbaccb6f)" d="M 181.809626 378 
L 187.77754 378 
L 187.77754 377.238655 
L 181.809626 377.238655 
z
" style="fill:#4c72b0;fill-opacity:0.5;stroke:#ffffff;stroke-linejoin:miter;stroke-width:0.596791;"/>
   </g>
   <g id="patch_19">
    <path clip-path="url(#p74bbaccb6f)" d="M 187.77754 378 
L 193.745455 378 
L 193.745455 375.715966 
L 187.77754 375.715966 
z
" style="fill:#4c72b0;fill-opacity:0.5;stroke:#ffffff;stroke-linejoin:miter;stroke-width:0.596791;"/>
   </g>
   <g id="patch_20">
    <path clip-path="url(#p74bbaccb6f)" d="M 193.745455 378 
L 199.713369 378 
L 199.713369 375.715966 
L 193.745455 375.715966 
z
" style="fill:#4c72b0;fill-opacity:0.5;stroke:#ffffff;stroke-linejoin:miter;stroke-width:0.596791;"/>
   </g>
   <g id="patch_21">
    <path clip-path="url(#p74bbaccb6f)" d="M 199.713369 378 
L 205.681283 378 
L 205.681283 374.954622 
L 199.713369 374.954622 
z
" style="fill:#4c72b0;fill-opacity:0.5;stroke:#ffffff;stroke-linejoin:miter;stroke-width:0.596791;"/>
   </g>
   <g id="patch_22">
    <path clip-path="url(#p74bbaccb6f)" d="M 205.681283 378 
L 211.649198 378 
L 211.649198 374.70084 
L 205.681283 374.70084 
z
" style="fill:#4c72b0;fill-opacity:0.5;stroke:#ffffff;stroke-linejoin:miter;stroke-width:0.596791;"/>
   </g>
   <g id="patch_23">
    <path clip-path="url(#p74bbaccb6f)" d="M 211.649198 378 
L 217.617112 378 
L 217.617112 374.447059 
L 211.649198 374.447059 
z
" style="fill:#4c72b0;fill-opacity:0.5;stroke:#ffffff;stroke-linejoin:miter;stroke-width:0.596791;"/>
   </g>
   <g id="patch_24">
    <path clip-path="url(#p74bbaccb6f)" d="M 217.617112 378 
L 223.585027 378 
L 223.585027 374.193277 
L 217.617112 374.193277 
z
" style="fill:#4c72b0;fill-opacity:0.5;stroke:#ffffff;stroke-linejoin:miter;stroke-width:0.596791;"/>
   </g>
   <g id="patch_25">
    <path clip-path="url(#p74bbaccb6f)" d="M 223.585027 378 
L 229.552941 378 
L 229.552941 372.670588 
L 223.585027 372.670588 
z
" style="fill:#4c72b0;fill-opacity:0.5;stroke:#ffffff;stroke-linejoin:miter;stroke-width:0.596791;"/>
   </g>
   <g id="patch_26">
    <path clip-path="url(#p74bbaccb6f)" d="M 229.552941 378 
L 235.520856 378 
L 235.520856 372.92437 
L 229.552941 372.92437 
z
" style="fill:#4c72b0;fill-opacity:0.5;stroke:#ffffff;stroke-linejoin:miter;stroke-width:0.596791;"/>
   </g>
   <g id="patch_27">
    <path clip-path="url(#p74bbaccb6f)" d="M 235.520856 378 
L 241.48877 378 
L 241.48877 368.102521 
L 235.520856 368.102521 
z
" style="fill:#4c72b0;fill-opacity:0.5;stroke:#ffffff;stroke-linejoin:miter;stroke-width:0.596791;"/>
   </g>
   <g id="patch_28">
    <path clip-path="url(#p74bbaccb6f)" d="M 241.48877 378 
L 247.456684 378 
L 247.456684 370.132773 
L 241.48877 370.132773 
z
" style="fill:#4c72b0;fill-opacity:0.5;stroke:#ffffff;stroke-linejoin:miter;stroke-width:0.596791;"/>
   </g>
   <g id="patch_29">
    <path clip-path="url(#p74bbaccb6f)" d="M 247.456684 378 
L 253.424599 378 
L 253.424599 367.087395 
L 247.456684 367.087395 
z
" style="fill:#4c72b0;fill-opacity:0.5;stroke:#ffffff;stroke-linejoin:miter;stroke-width:0.596791;"/>
   </g>
   <g id="patch_30">
    <path clip-path="url(#p74bbaccb6f)" d="M 253.424599 378 
L 259.392513 378 
L 259.392513 364.803361 
L 253.424599 364.803361 
z
" style="fill:#4c72b0;fill-opacity:0.5;stroke:#ffffff;stroke-linejoin:miter;stroke-width:0.596791;"/>
   </g>
   <g id="patch_31">
    <path clip-path="url(#p74bbaccb6f)" d="M 259.392513 378 
L 265.360428 378 
L 265.360428 358.205042 
L 259.392513 358.205042 
z
" style="fill:#4c72b0;fill-opacity:0.5;stroke:#ffffff;stroke-linejoin:miter;stroke-width:0.596791;"/>
   </g>
   <g id="patch_32">
    <path clip-path="url(#p74bbaccb6f)" d="M 265.360428 378 
L 271.328342 378 
L 271.328342 345.515966 
L 265.360428 345.515966 
z
" style="fill:#4c72b0;fill-opacity:0.5;stroke:#ffffff;stroke-linejoin:miter;stroke-width:0.596791;"/>
   </g>
   <g id="patch_33">
    <path clip-path="url(#p74bbaccb6f)" d="M 271.328342 378 
L 277.296257 378 
L 277.296257 365.057143 
L 271.328342 365.057143 
z
" style="fill:#4c72b0;fill-opacity:0.5;stroke:#ffffff;stroke-linejoin:miter;stroke-width:0.596791;"/>
   </g>
   <g id="patch_34">
    <path clip-path="url(#p74bbaccb6f)" d="M 277.296257 378 
L 283.264171 378 
L 283.264171 370.386555 
L 277.296257 370.386555 
z
" style="fill:#4c72b0;fill-opacity:0.5;stroke:#ffffff;stroke-linejoin:miter;stroke-width:0.596791;"/>
   </g>
   <g id="patch_35">
    <path clip-path="url(#p74bbaccb6f)" d="M 283.264171 378 
L 289.232086 378 
L 289.232086 373.178151 
L 283.264171 373.178151 
z
" style="fill:#4c72b0;fill-opacity:0.5;stroke:#ffffff;stroke-linejoin:miter;stroke-width:0.596791;"/>
   </g>
   <g id="patch_36">
    <path clip-path="url(#p74bbaccb6f)" d="M 289.232086 378 
L 295.2 378 
L 295.2 368.610084 
L 289.232086 368.610084 
z
" style="fill:#4c72b0;fill-opacity:0.5;stroke:#ffffff;stroke-linejoin:miter;stroke-width:0.596791;"/>
   </g>
   <g id="patch_37">
    <path clip-path="url(#p74bbaccb6f)" d="M 295.2 378 
L 301.167914 378 
L 301.167914 341.201681 
L 295.2 341.201681 
z
" style="fill:#4c72b0;fill-opacity:0.5;stroke:#ffffff;stroke-linejoin:miter;stroke-width:0.596791;"/>
   </g>
   <g id="patch_38">
    <path clip-path="url(#p74bbaccb6f)" d="M 301.167914 378 
L 307.135829 378 
L 307.135829 355.159664 
L 301.167914 355.159664 
z
" style="fill:#4c72b0;fill-opacity:0.5;stroke:#ffffff;stroke-linejoin:miter;stroke-width:0.596791;"/>
   </g>
   <g id="patch_39">
    <path clip-path="url(#p74bbaccb6f)" d="M 307.135829 378 
L 313.103743 378 
L 313.103743 345.008403 
L 307.135829 345.008403 
z
" style="fill:#4c72b0;fill-opacity:0.5;stroke:#ffffff;stroke-linejoin:miter;stroke-width:0.596791;"/>
   </g>
   <g id="patch_40">
    <path clip-path="url(#p74bbaccb6f)" d="M 313.103743 378 
L 319.071658 378 
L 319.071658 298.566387 
L 313.103743 298.566387 
z
" style="fill:#4c72b0;fill-opacity:0.5;stroke:#ffffff;stroke-linejoin:miter;stroke-width:0.596791;"/>
   </g>
   <g id="patch_41">
    <path clip-path="url(#p74bbaccb6f)" d="M 319.071658 378 
L 325.039572 378 
L 325.039572 205.428571 
L 319.071658 205.428571 
z
" style="fill:#4c72b0;fill-opacity:0.5;stroke:#ffffff;stroke-linejoin:miter;stroke-width:0.596791;"/>
   </g>
   <g id="patch_42">
    <path clip-path="url(#p74bbaccb6f)" d="M 325.039572 378 
L 331.007487 378 
L 331.007487 213.54958 
L 325.039572 213.54958 
z
" style="fill:#4c72b0;fill-opacity:0.5;stroke:#ffffff;stroke-linejoin:miter;stroke-width:0.596791;"/>
   </g>
   <g id="patch_43">
    <path clip-path="url(#p74bbaccb6f)" d="M 331.007487 378 
L 336.975401 378 
L 336.975401 320.89916 
L 331.007487 320.89916 
z
" style="fill:#4c72b0;fill-opacity:0.5;stroke:#ffffff;stroke-linejoin:miter;stroke-width:0.596791;"/>
   </g>
   <g id="patch_44">
    <path clip-path="url(#p74bbaccb6f)" d="M 336.975401 378 
L 342.943316 378 
L 342.943316 341.455462 
L 336.975401 341.455462 
z
" style="fill:#4c72b0;fill-opacity:0.5;stroke:#ffffff;stroke-linejoin:miter;stroke-width:0.596791;"/>
   </g>
   <g id="patch_45">
    <path clip-path="url(#p74bbaccb6f)" d="M 342.943316 378 
L 348.91123 378 
L 348.91123 332.826891 
L 342.943316 332.826891 
z
" style="fill:#4c72b0;fill-opacity:0.5;stroke:#ffffff;stroke-linejoin:miter;stroke-width:0.596791;"/>
   </g>
   <g id="patch_46">
    <path clip-path="url(#p74bbaccb6f)" d="M 348.91123 378 
L 354.879144 378 
L 354.879144 330.289076 
L 348.91123 330.289076 
z
" style="fill:#4c72b0;fill-opacity:0.5;stroke:#ffffff;stroke-linejoin:miter;stroke-width:0.596791;"/>
   </g>
   <g id="patch_47">
    <path clip-path="url(#p74bbaccb6f)" d="M 354.879144 378 
L 360.847059 378 
L 360.847059 326.482353 
L 354.879144 326.482353 
z
" style="fill:#4c72b0;fill-opacity:0.5;stroke:#ffffff;stroke-linejoin:miter;stroke-width:0.596791;"/>
   </g>
   <g id="patch_48">
    <path clip-path="url(#p74bbaccb6f)" d="M 360.847059 378 
L 366.814973 378 
L 366.814973 332.573109 
L 360.847059 332.573109 
z
" style="fill:#4c72b0;fill-opacity:0.5;stroke:#ffffff;stroke-linejoin:miter;stroke-width:0.596791;"/>
   </g>
   <g id="patch_49">
    <path clip-path="url(#p74bbaccb6f)" d="M 366.814973 378 
L 372.782888 378 
L 372.782888 369.62521 
L 366.814973 369.62521 
z
" style="fill:#4c72b0;fill-opacity:0.5;stroke:#ffffff;stroke-linejoin:miter;stroke-width:0.596791;"/>
   </g>
   <g id="patch_50">
    <path clip-path="url(#p74bbaccb6f)" d="M 372.782888 378 
L 378.750802 378 
L 378.750802 369.371429 
L 372.782888 369.371429 
z
" style="fill:#4c72b0;fill-opacity:0.5;stroke:#ffffff;stroke-linejoin:miter;stroke-width:0.596791;"/>
   </g>
   <g id="patch_51">
    <path clip-path="url(#p74bbaccb6f)" d="M 378.750802 378 
L 384.718717 378 
L 384.718717 223.70084 
L 378.750802 223.70084 
z
" style="fill:#4c72b0;fill-opacity:0.5;stroke:#ffffff;stroke-linejoin:miter;stroke-width:0.596791;"/>
   </g>
   <g id="patch_52">
    <path clip-path="url(#p74bbaccb6f)" d="M 384.718717 378 
L 390.686631 378 
L 390.686631 199.845378 
L 384.718717 199.845378 
z
" style="fill:#4c72b0;fill-opacity:0.5;stroke:#ffffff;stroke-linejoin:miter;stroke-width:0.596791;"/>
   </g>
   <g id="patch_53">
    <path clip-path="url(#p74bbaccb6f)" d="M 390.686631 378 
L 396.654545 378 
L 396.654545 67.371429 
L 390.686631 67.371429 
z
" style="fill:#4c72b0;fill-opacity:0.5;stroke:#ffffff;stroke-linejoin:miter;stroke-width:0.596791;"/>
   </g>
   <g id="patch_54">
    <path clip-path="url(#p74bbaccb6f)" d="M 396.654545 378 
L 402.62246 378 
L 402.62246 190.709244 
L 396.654545 190.709244 
z
" style="fill:#4c72b0;fill-opacity:0.5;stroke:#ffffff;stroke-linejoin:miter;stroke-width:0.596791;"/>
   </g>
   <g id="patch_55">
    <path clip-path="url(#p74bbaccb6f)" d="M 402.62246 378 
L 408.590374 378 
L 408.590374 225.731092 
L 402.62246 225.731092 
z
" style="fill:#4c72b0;fill-opacity:0.5;stroke:#ffffff;stroke-linejoin:miter;stroke-width:0.596791;"/>
   </g>
   <g id="patch_56">
    <path clip-path="url(#p74bbaccb6f)" d="M 408.590374 378 
L 414.558289 378 
L 414.558289 209.235294 
L 408.590374 209.235294 
z
" style="fill:#4c72b0;fill-opacity:0.5;stroke:#ffffff;stroke-linejoin:miter;stroke-width:0.596791;"/>
   </g>
   <g id="patch_57">
    <path clip-path="url(#p74bbaccb6f)" d="M 414.558289 378 
L 420.526203 378 
L 420.526203 100.363025 
L 414.558289 100.363025 
z
" style="fill:#4c72b0;fill-opacity:0.5;stroke:#ffffff;stroke-linejoin:miter;stroke-width:0.596791;"/>
   </g>
   <g id="patch_58">
    <path clip-path="url(#p74bbaccb6f)" d="M 420.526203 378 
L 426.494118 378 
L 426.494118 138.684034 
L 420.526203 138.684034 
z
" style="fill:#4c72b0;fill-opacity:0.5;stroke:#ffffff;stroke-linejoin:miter;stroke-width:0.596791;"/>
   </g>
   <g id="patch_59">
    <path clip-path="url(#p74bbaccb6f)" d="M 426.494118 378 
L 432.462032 378 
L 432.462032 189.694118 
L 426.494118 189.694118 
z
" style="fill:#4c72b0;fill-opacity:0.5;stroke:#ffffff;stroke-linejoin:miter;stroke-width:0.596791;"/>
   </g>
   <g id="patch_60">
    <path clip-path="url(#p74bbaccb6f)" d="M 432.462032 378 
L 438.429947 378 
L 438.429947 378 
L 432.462032 378 
z
" style="fill:#4c72b0;fill-opacity:0.5;stroke:#ffffff;stroke-linejoin:miter;stroke-width:0.596791;"/>
   </g>
   <g id="patch_61">
    <path clip-path="url(#p74bbaccb6f)" d="M 438.429947 378 
L 444.397861 378 
L 444.397861 115.589916 
L 438.429947 115.589916 
z
" style="fill:#4c72b0;fill-opacity:0.5;stroke:#ffffff;stroke-linejoin:miter;stroke-width:0.596791;"/>
   </g>
   <g id="patch_62">
    <path clip-path="url(#p74bbaccb6f)" d="M 444.397861 378 
L 450.365775 378 
L 450.365775 360.489076 
L 444.397861 360.489076 
z
" style="fill:#4c72b0;fill-opacity:0.5;stroke:#ffffff;stroke-linejoin:miter;stroke-width:0.596791;"/>
   </g>
   <g id="patch_63">
    <path clip-path="url(#p74bbaccb6f)" d="M 450.365775 378 
L 456.33369 378 
L 456.33369 369.371429 
L 450.365775 369.371429 
z
" style="fill:#4c72b0;fill-opacity:0.5;stroke:#ffffff;stroke-linejoin:miter;stroke-width:0.596791;"/>
   </g>
   <g id="patch_64">
    <path clip-path="url(#p74bbaccb6f)" d="M 456.33369 378 
L 462.301604 378 
L 462.301604 377.746218 
L 456.33369 377.746218 
z
" style="fill:#4c72b0;fill-opacity:0.5;stroke:#ffffff;stroke-linejoin:miter;stroke-width:0.596791;"/>
   </g>
   <g id="patch_65">
    <path clip-path="url(#p74bbaccb6f)" d="M 462.301604 378 
L 468.269519 378 
L 468.269519 378 
L 462.301604 378 
z
" style="fill:#4c72b0;fill-opacity:0.5;stroke:#ffffff;stroke-linejoin:miter;stroke-width:0.596791;"/>
   </g>
   <g id="patch_66">
    <path clip-path="url(#p74bbaccb6f)" d="M 468.269519 378 
L 474.237433 378 
L 474.237433 378 
L 468.269519 378 
z
" style="fill:#4c72b0;fill-opacity:0.5;stroke:#ffffff;stroke-linejoin:miter;stroke-width:0.596791;"/>
   </g>
   <g id="patch_67">
    <path clip-path="url(#p74bbaccb6f)" d="M 474.237433 378 
L 480.205348 378 
L 480.205348 378 
L 474.237433 378 
z
" style="fill:#4c72b0;fill-opacity:0.5;stroke:#ffffff;stroke-linejoin:miter;stroke-width:0.596791;"/>
   </g>
   <g id="patch_68">
    <path clip-path="url(#p74bbaccb6f)" d="M 480.205348 378 
L 486.173262 378 
L 486.173262 378 
L 480.205348 378 
z
" style="fill:#4c72b0;fill-opacity:0.5;stroke:#ffffff;stroke-linejoin:miter;stroke-width:0.596791;"/>
   </g>
   <g id="patch_69">
    <path clip-path="url(#p74bbaccb6f)" d="M 486.173262 378 
L 492.141176 378 
L 492.141176 378 
L 486.173262 378 
z
" style="fill:#4c72b0;fill-opacity:0.5;stroke:#ffffff;stroke-linejoin:miter;stroke-width:0.596791;"/>
   </g>
   <g id="patch_70">
    <path clip-path="url(#p74bbaccb6f)" d="M 492.141176 378 
L 498.109091 378 
L 498.109091 99.094118 
L 492.141176 99.094118 
z
" style="fill:#4c72b0;fill-opacity:0.5;stroke:#ffffff;stroke-linejoin:miter;stroke-width:0.596791;"/>
   </g>
   <g id="line2d_13">
    <path clip-path="url(#p74bbaccb6f)" d="M 92.290909 375.826481 
L 96.369484 376.026689 
L 108.605208 377.315883 
L 112.683783 377.396938 
L 141.233805 377.263475 
L 151.430242 377.414478 
L 159.587392 377.295894 
L 182.019552 376.645631 
L 192.215989 375.927818 
L 218.726725 373.905707 
L 224.844587 373.041853 
L 230.962449 371.873857 
L 237.080311 370.446457 
L 241.158885 369.323181 
L 245.23746 367.964066 
L 249.316035 366.255803 
L 253.394609 364.171754 
L 259.512471 360.876273 
L 261.551759 360.010165 
L 263.591046 359.410192 
L 265.630333 359.154535 
L 267.669621 359.290369 
L 269.708908 359.819916 
L 271.748196 360.693319 
L 275.82677 363.031185 
L 277.866058 364.193058 
L 279.905345 365.131395 
L 281.944632 365.700353 
L 283.98392 365.790848 
L 286.023207 365.343035 
L 288.062494 364.35057 
L 290.101782 362.854113 
L 292.141069 360.922607 
L 294.180356 358.623518 
L 296.219644 355.987178 
L 298.258931 352.97439 
L 300.298218 349.458751 
L 302.337506 345.233982 
L 304.376793 340.051408 
L 306.41608 333.684597 
L 308.455368 326.009189 
L 310.494655 317.07919 
L 314.57323 296.832086 
L 316.612517 286.762361 
L 318.651804 277.803008 
L 320.691092 270.775351 
L 322.730379 266.356012 
L 324.769667 264.960584 
L 326.808954 266.667903 
L 328.848241 271.201504 
L 330.887529 277.973278 
L 332.926816 286.181186 
L 337.005391 303.424299 
L 339.044678 310.975047 
L 341.083965 317.182122 
L 343.123253 321.899371 
L 345.16254 325.21669 
L 347.201827 327.396895 
L 349.241115 328.797058 
L 355.358977 331.743903 
L 361.476839 335.5768 
L 363.516126 336.206444 
L 365.555413 335.713339 
L 367.594701 333.519926 
L 369.633988 329.102506 
L 371.673275 322.08335 
L 373.712563 312.304226 
L 375.75185 299.867116 
L 377.791138 285.137307 
L 379.830425 268.713758 
L 385.948287 217.58821 
L 387.987574 202.965215 
L 390.026862 190.905727 
L 392.066149 181.922602 
L 394.105436 176.20316 
L 396.144724 173.557791 
L 398.184011 173.424985 
L 400.223298 174.944119 
L 402.262586 177.091612 
L 404.301873 178.859694 
L 406.34116 179.444965 
L 408.380448 178.408861 
L 410.419735 175.775142 
L 414.49831 168.085537 
L 416.537597 165.01048 
L 418.576884 163.904749 
L 420.616172 165.6188 
L 422.655459 170.57892 
L 424.694746 178.697842 
L 426.734034 189.409327 
L 428.773321 201.823409 
L 432.851896 228.006054 
L 436.930471 252.289183 
L 443.048333 286.675296 
L 451.205482 334.307956 
L 453.244769 344.504408 
L 455.284057 353.214809 
L 457.323344 360.295128 
L 459.362631 365.779378 
L 461.401919 369.831815 
L 463.441206 372.683408 
L 465.480493 374.571514 
L 467.519781 375.692454 
L 469.559068 376.168569 
L 471.598355 376.027418 
L 473.637643 375.191628 
L 475.67693 373.481977 
L 477.716217 370.640564 
L 479.755505 366.38235 
L 481.794792 360.478675 
L 483.834079 352.864998 
L 485.873367 343.749306 
L 489.951942 323.563758 
L 491.991229 314.519255 
L 494.030516 307.72296 
L 496.069804 304.141554 
L 498.109091 304.31129 
L 498.109091 304.31129 
" style="fill:none;stroke:#4c72b0;stroke-linecap:round;stroke-width:1.5;"/>
   </g>
   <g id="patch_71">
    <path d="M 72 378 
L 72 51.84 
" style="fill:none;stroke:#ffffff;stroke-linecap:square;stroke-linejoin:miter;stroke-width:1.25;"/>
   </g>
   <g id="patch_72">
    <path d="M 518.4 378 
L 518.4 51.84 
" style="fill:none;stroke:#ffffff;stroke-linecap:square;stroke-linejoin:miter;stroke-width:1.25;"/>
   </g>
   <g id="patch_73">
    <path d="M 72 378 
L 518.4 378 
" style="fill:none;stroke:#ffffff;stroke-linecap:square;stroke-linejoin:miter;stroke-width:1.25;"/>
   </g>
   <g id="patch_74">
    <path d="M 72 51.84 
L 518.4 51.84 
" style="fill:none;stroke:#ffffff;stroke-linecap:square;stroke-linejoin:miter;stroke-width:1.25;"/>
   </g>
  </g>
 </g>
 <defs>
  <clipPath id="p74bbaccb6f">
   <rect height="326.16" width="446.4" x="72" y="51.84"/>
  </clipPath>
 </defs>
</svg>
