<?xml version="1.0" encoding="utf-8" standalone="no"?>
<!DOCTYPE svg PUBLIC "-//W3C//DTD SVG 1.1//EN"
  "http://www.w3.org/Graphics/SVG/1.1/DTD/svg11.dtd">
<svg xmlns:xlink="http://www.w3.org/1999/xlink" width="576pt" height="432pt" viewBox="0 0 576 432" xmlns="http://www.w3.org/2000/svg" version="1.1">
 <metadata>
  <rdf:RDF xmlns:dc="http://purl.org/dc/elements/1.1/" xmlns:cc="http://creativecommons.org/ns#" xmlns:rdf="http://www.w3.org/1999/02/22-rdf-syntax-ns#">
   <cc:Work>
    <dc:type rdf:resource="http://purl.org/dc/dcmitype/StillImage"/>
    <dc:date>2022-06-05T22:44:11.706974</dc:date>
    <dc:format>image/svg+xml</dc:format>
    <dc:creator>
     <cc:Agent>
      <dc:title>Matplotlib v3.5.1, https://matplotlib.org/</dc:title>
     </cc:Agent>
    </dc:creator>
   </cc:Work>
  </rdf:RDF>
 </metadata>
 <defs>
  <style type="text/css">*{stroke-linejoin: round; stroke-linecap: butt}</style>
 </defs>
 <g id="figure_1">
  <g id="patch_1">
   <path d="M 0 432 
L 576 432 
L 576 0 
L 0 0 
z
" style="fill: #ffffff"/>
  </g>
  <g id="axes_1">
   <g id="patch_2">
    <path d="M 72 378 
L 518.4 378 
L 518.4 51.84 
L 72 51.84 
z
" style="fill: #eaeaf2"/>
   </g>
   <g id="matplotlib.axis_1">
    <g id="xtick_1">
     <g id="line2d_1">
      <path d="M 92.279392 378 
L 92.279392 51.84 
" clip-path="url(#pf745914bd5)" style="fill: none; stroke: #ffffff; stroke-linecap: round"/>
     </g>
     <g id="line2d_2">
      <defs>
       <path id="mbac1408cbb" d="M 0 0 
L 0 6 
" style="stroke: #262626; stroke-width: 1.25"/>
      </defs>
      <g>
       <use xlink:href="#mbac1408cbb" x="92.279392" y="378" style="fill: #262626; stroke: #262626; stroke-width: 1.25"/>
      </g>
     </g>
     <g id="text_1">
      <!-- 0 -->
      <g style="fill: #262626" transform="translate(89.220876 395.373594)scale(0.11 -0.11)">
       <defs>
        <path id="ArialMT-30" d="M 266 2259 
Q 266 3072 433 3567 
Q 600 4063 929 4331 
Q 1259 4600 1759 4600 
Q 2128 4600 2406 4451 
Q 2684 4303 2865 4023 
Q 3047 3744 3150 3342 
Q 3253 2941 3253 2259 
Q 3253 1453 3087 958 
Q 2922 463 2592 192 
Q 2263 -78 1759 -78 
Q 1097 -78 719 397 
Q 266 969 266 2259 
z
M 844 2259 
Q 844 1131 1108 757 
Q 1372 384 1759 384 
Q 2147 384 2411 759 
Q 2675 1134 2675 2259 
Q 2675 3391 2411 3762 
Q 2147 4134 1753 4134 
Q 1366 4134 1134 3806 
Q 844 3388 844 2259 
z
" transform="scale(0.015625)"/>
       </defs>
       <use xlink:href="#ArialMT-30"/>
      </g>
     </g>
    </g>
    <g id="xtick_2">
     <g id="line2d_3">
      <path d="M 149.865126 378 
L 149.865126 51.84 
" clip-path="url(#pf745914bd5)" style="fill: none; stroke: #ffffff; stroke-linecap: round"/>
     </g>
     <g id="line2d_4">
      <g>
       <use xlink:href="#mbac1408cbb" x="149.865126" y="378" style="fill: #262626; stroke: #262626; stroke-width: 1.25"/>
      </g>
     </g>
     <g id="text_2">
      <!-- 5000 -->
      <g style="fill: #262626" transform="translate(137.631063 395.373594)scale(0.11 -0.11)">
       <defs>
        <path id="ArialMT-35" d="M 266 1200 
L 856 1250 
Q 922 819 1161 601 
Q 1400 384 1738 384 
Q 2144 384 2425 690 
Q 2706 997 2706 1503 
Q 2706 1984 2436 2262 
Q 2166 2541 1728 2541 
Q 1456 2541 1237 2417 
Q 1019 2294 894 2097 
L 366 2166 
L 809 4519 
L 3088 4519 
L 3088 3981 
L 1259 3981 
L 1013 2750 
Q 1425 3038 1878 3038 
Q 2478 3038 2890 2622 
Q 3303 2206 3303 1553 
Q 3303 931 2941 478 
Q 2500 -78 1738 -78 
Q 1113 -78 717 272 
Q 322 622 266 1200 
z
" transform="scale(0.015625)"/>
       </defs>
       <use xlink:href="#ArialMT-35"/>
       <use xlink:href="#ArialMT-30" x="55.615234"/>
       <use xlink:href="#ArialMT-30" x="111.230469"/>
       <use xlink:href="#ArialMT-30" x="166.845703"/>
      </g>
     </g>
    </g>
    <g id="xtick_3">
     <g id="line2d_5">
      <path d="M 207.450859 378 
L 207.450859 51.84 
" clip-path="url(#pf745914bd5)" style="fill: none; stroke: #ffffff; stroke-linecap: round"/>
     </g>
     <g id="line2d_6">
      <g>
       <use xlink:href="#mbac1408cbb" x="207.450859" y="378" style="fill: #262626; stroke: #262626; stroke-width: 1.25"/>
      </g>
     </g>
     <g id="text_3">
      <!-- 10000 -->
      <g style="fill: #262626" transform="translate(192.158281 395.373594)scale(0.11 -0.11)">
       <defs>
        <path id="ArialMT-31" d="M 2384 0 
L 1822 0 
L 1822 3584 
Q 1619 3391 1289 3197 
Q 959 3003 697 2906 
L 697 3450 
Q 1169 3672 1522 3987 
Q 1875 4303 2022 4600 
L 2384 4600 
L 2384 0 
z
" transform="scale(0.015625)"/>
       </defs>
       <use xlink:href="#ArialMT-31"/>
       <use xlink:href="#ArialMT-30" x="55.615234"/>
       <use xlink:href="#ArialMT-30" x="111.230469"/>
       <use xlink:href="#ArialMT-30" x="166.845703"/>
       <use xlink:href="#ArialMT-30" x="222.460938"/>
      </g>
     </g>
    </g>
    <g id="xtick_4">
     <g id="line2d_7">
      <path d="M 265.036593 378 
L 265.036593 51.84 
" clip-path="url(#pf745914bd5)" style="fill: none; stroke: #ffffff; stroke-linecap: round"/>
     </g>
     <g id="line2d_8">
      <g>
       <use xlink:href="#mbac1408cbb" x="265.036593" y="378" style="fill: #262626; stroke: #262626; stroke-width: 1.25"/>
      </g>
     </g>
     <g id="text_4">
      <!-- 15000 -->
      <g style="fill: #262626" transform="translate(249.744015 395.373594)scale(0.11 -0.11)">
       <use xlink:href="#ArialMT-31"/>
       <use xlink:href="#ArialMT-35" x="55.615234"/>
       <use xlink:href="#ArialMT-30" x="111.230469"/>
       <use xlink:href="#ArialMT-30" x="166.845703"/>
       <use xlink:href="#ArialMT-30" x="222.460938"/>
      </g>
     </g>
    </g>
    <g id="xtick_5">
     <g id="line2d_9">
      <path d="M 322.622326 378 
L 322.622326 51.84 
" clip-path="url(#pf745914bd5)" style="fill: none; stroke: #ffffff; stroke-linecap: round"/>
     </g>
     <g id="line2d_10">
      <g>
       <use xlink:href="#mbac1408cbb" x="322.622326" y="378" style="fill: #262626; stroke: #262626; stroke-width: 1.25"/>
      </g>
     </g>
     <g id="text_5">
      <!-- 20000 -->
      <g style="fill: #262626" transform="translate(307.329748 395.373594)scale(0.11 -0.11)">
       <defs>
        <path id="ArialMT-32" d="M 3222 541 
L 3222 0 
L 194 0 
Q 188 203 259 391 
Q 375 700 629 1000 
Q 884 1300 1366 1694 
Q 2113 2306 2375 2664 
Q 2638 3022 2638 3341 
Q 2638 3675 2398 3904 
Q 2159 4134 1775 4134 
Q 1369 4134 1125 3890 
Q 881 3647 878 3216 
L 300 3275 
Q 359 3922 746 4261 
Q 1134 4600 1788 4600 
Q 2447 4600 2831 4234 
Q 3216 3869 3216 3328 
Q 3216 3053 3103 2787 
Q 2991 2522 2730 2228 
Q 2469 1934 1863 1422 
Q 1356 997 1212 845 
Q 1069 694 975 541 
L 3222 541 
z
" transform="scale(0.015625)"/>
       </defs>
       <use xlink:href="#ArialMT-32"/>
       <use xlink:href="#ArialMT-30" x="55.615234"/>
       <use xlink:href="#ArialMT-30" x="111.230469"/>
       <use xlink:href="#ArialMT-30" x="166.845703"/>
       <use xlink:href="#ArialMT-30" x="222.460938"/>
      </g>
     </g>
    </g>
    <g id="xtick_6">
     <g id="line2d_11">
      <path d="M 380.20806 378 
L 380.20806 51.84 
" clip-path="url(#pf745914bd5)" style="fill: none; stroke: #ffffff; stroke-linecap: round"/>
     </g>
     <g id="line2d_12">
      <g>
       <use xlink:href="#mbac1408cbb" x="380.20806" y="378" style="fill: #262626; stroke: #262626; stroke-width: 1.25"/>
      </g>
     </g>
     <g id="text_6">
      <!-- 25000 -->
      <g style="fill: #262626" transform="translate(364.915482 395.373594)scale(0.11 -0.11)">
       <use xlink:href="#ArialMT-32"/>
       <use xlink:href="#ArialMT-35" x="55.615234"/>
       <use xlink:href="#ArialMT-30" x="111.230469"/>
       <use xlink:href="#ArialMT-30" x="166.845703"/>
       <use xlink:href="#ArialMT-30" x="222.460938"/>
      </g>
     </g>
    </g>
    <g id="xtick_7">
     <g id="line2d_13">
      <path d="M 437.793794 378 
L 437.793794 51.84 
" clip-path="url(#pf745914bd5)" style="fill: none; stroke: #ffffff; stroke-linecap: round"/>
     </g>
     <g id="line2d_14">
      <g>
       <use xlink:href="#mbac1408cbb" x="437.793794" y="378" style="fill: #262626; stroke: #262626; stroke-width: 1.25"/>
      </g>
     </g>
     <g id="text_7">
      <!-- 30000 -->
      <g style="fill: #262626" transform="translate(422.501215 395.373594)scale(0.11 -0.11)">
       <defs>
        <path id="ArialMT-33" d="M 269 1209 
L 831 1284 
Q 928 806 1161 595 
Q 1394 384 1728 384 
Q 2125 384 2398 659 
Q 2672 934 2672 1341 
Q 2672 1728 2419 1979 
Q 2166 2231 1775 2231 
Q 1616 2231 1378 2169 
L 1441 2663 
Q 1497 2656 1531 2656 
Q 1891 2656 2178 2843 
Q 2466 3031 2466 3422 
Q 2466 3731 2256 3934 
Q 2047 4138 1716 4138 
Q 1388 4138 1169 3931 
Q 950 3725 888 3313 
L 325 3413 
Q 428 3978 793 4289 
Q 1159 4600 1703 4600 
Q 2078 4600 2393 4439 
Q 2709 4278 2876 4000 
Q 3044 3722 3044 3409 
Q 3044 3113 2884 2869 
Q 2725 2625 2413 2481 
Q 2819 2388 3044 2092 
Q 3269 1797 3269 1353 
Q 3269 753 2831 336 
Q 2394 -81 1725 -81 
Q 1122 -81 723 278 
Q 325 638 269 1209 
z
" transform="scale(0.015625)"/>
       </defs>
       <use xlink:href="#ArialMT-33"/>
       <use xlink:href="#ArialMT-30" x="55.615234"/>
       <use xlink:href="#ArialMT-30" x="111.230469"/>
       <use xlink:href="#ArialMT-30" x="166.845703"/>
       <use xlink:href="#ArialMT-30" x="222.460938"/>
      </g>
     </g>
    </g>
    <g id="xtick_8">
     <g id="line2d_15">
      <path d="M 495.379527 378 
L 495.379527 51.84 
" clip-path="url(#pf745914bd5)" style="fill: none; stroke: #ffffff; stroke-linecap: round"/>
     </g>
     <g id="line2d_16">
      <g>
       <use xlink:href="#mbac1408cbb" x="495.379527" y="378" style="fill: #262626; stroke: #262626; stroke-width: 1.25"/>
      </g>
     </g>
     <g id="text_8">
      <!-- 35000 -->
      <g style="fill: #262626" transform="translate(480.086949 395.373594)scale(0.11 -0.11)">
       <use xlink:href="#ArialMT-33"/>
       <use xlink:href="#ArialMT-35" x="55.615234"/>
       <use xlink:href="#ArialMT-30" x="111.230469"/>
       <use xlink:href="#ArialMT-30" x="166.845703"/>
       <use xlink:href="#ArialMT-30" x="222.460938"/>
      </g>
     </g>
    </g>
    <g id="text_9">
     <!-- file_size -->
     <g style="fill: #262626" transform="translate(273.524063 410.295469)scale(0.12 -0.12)">
      <defs>
       <path id="ArialMT-66" d="M 556 0 
L 556 2881 
L 59 2881 
L 59 3319 
L 556 3319 
L 556 3672 
Q 556 4006 616 4169 
Q 697 4388 901 4523 
Q 1106 4659 1475 4659 
Q 1713 4659 2000 4603 
L 1916 4113 
Q 1741 4144 1584 4144 
Q 1328 4144 1222 4034 
Q 1116 3925 1116 3625 
L 1116 3319 
L 1763 3319 
L 1763 2881 
L 1116 2881 
L 1116 0 
L 556 0 
z
" transform="scale(0.015625)"/>
       <path id="ArialMT-69" d="M 425 3934 
L 425 4581 
L 988 4581 
L 988 3934 
L 425 3934 
z
M 425 0 
L 425 3319 
L 988 3319 
L 988 0 
L 425 0 
z
" transform="scale(0.015625)"/>
       <path id="ArialMT-6c" d="M 409 0 
L 409 4581 
L 972 4581 
L 972 0 
L 409 0 
z
" transform="scale(0.015625)"/>
       <path id="ArialMT-65" d="M 2694 1069 
L 3275 997 
Q 3138 488 2766 206 
Q 2394 -75 1816 -75 
Q 1088 -75 661 373 
Q 234 822 234 1631 
Q 234 2469 665 2931 
Q 1097 3394 1784 3394 
Q 2450 3394 2872 2941 
Q 3294 2488 3294 1666 
Q 3294 1616 3291 1516 
L 816 1516 
Q 847 969 1125 678 
Q 1403 388 1819 388 
Q 2128 388 2347 550 
Q 2566 713 2694 1069 
z
M 847 1978 
L 2700 1978 
Q 2663 2397 2488 2606 
Q 2219 2931 1791 2931 
Q 1403 2931 1139 2672 
Q 875 2413 847 1978 
z
" transform="scale(0.015625)"/>
       <path id="ArialMT-5f" d="M -97 -1272 
L -97 -866 
L 3631 -866 
L 3631 -1272 
L -97 -1272 
z
" transform="scale(0.015625)"/>
       <path id="ArialMT-73" d="M 197 991 
L 753 1078 
Q 800 744 1014 566 
Q 1228 388 1613 388 
Q 2000 388 2187 545 
Q 2375 703 2375 916 
Q 2375 1106 2209 1216 
Q 2094 1291 1634 1406 
Q 1016 1563 777 1677 
Q 538 1791 414 1992 
Q 291 2194 291 2438 
Q 291 2659 392 2848 
Q 494 3038 669 3163 
Q 800 3259 1026 3326 
Q 1253 3394 1513 3394 
Q 1903 3394 2198 3281 
Q 2494 3169 2634 2976 
Q 2775 2784 2828 2463 
L 2278 2388 
Q 2241 2644 2061 2787 
Q 1881 2931 1553 2931 
Q 1166 2931 1000 2803 
Q 834 2675 834 2503 
Q 834 2394 903 2306 
Q 972 2216 1119 2156 
Q 1203 2125 1616 2013 
Q 2213 1853 2448 1751 
Q 2684 1650 2818 1456 
Q 2953 1263 2953 975 
Q 2953 694 2789 445 
Q 2625 197 2315 61 
Q 2006 -75 1616 -75 
Q 969 -75 630 194 
Q 291 463 197 991 
z
" transform="scale(0.015625)"/>
       <path id="ArialMT-7a" d="M 125 0 
L 125 456 
L 2238 2881 
Q 1878 2863 1603 2863 
L 250 2863 
L 250 3319 
L 2963 3319 
L 2963 2947 
L 1166 841 
L 819 456 
Q 1197 484 1528 484 
L 3063 484 
L 3063 0 
L 125 0 
z
" transform="scale(0.015625)"/>
      </defs>
      <use xlink:href="#ArialMT-66"/>
      <use xlink:href="#ArialMT-69" x="27.783203"/>
      <use xlink:href="#ArialMT-6c" x="50"/>
      <use xlink:href="#ArialMT-65" x="72.216797"/>
      <use xlink:href="#ArialMT-5f" x="127.832031"/>
      <use xlink:href="#ArialMT-73" x="183.447266"/>
      <use xlink:href="#ArialMT-69" x="233.447266"/>
      <use xlink:href="#ArialMT-7a" x="255.664062"/>
      <use xlink:href="#ArialMT-65" x="305.664062"/>
     </g>
    </g>
   </g>
   <g id="matplotlib.axis_2">
    <g id="ytick_1">
     <g id="line2d_17">
      <path d="M 72 378 
L 518.4 378 
" clip-path="url(#pf745914bd5)" style="fill: none; stroke: #ffffff; stroke-linecap: round"/>
     </g>
     <g id="text_10">
      <!-- 0.0 -->
      <g style="fill: #262626" transform="translate(47.21 381.936797)scale(0.11 -0.11)">
       <defs>
        <path id="ArialMT-2e" d="M 581 0 
L 581 641 
L 1222 641 
L 1222 0 
L 581 0 
z
" transform="scale(0.015625)"/>
       </defs>
       <use xlink:href="#ArialMT-30"/>
       <use xlink:href="#ArialMT-2e" x="55.615234"/>
       <use xlink:href="#ArialMT-30" x="83.398438"/>
      </g>
     </g>
    </g>
    <g id="ytick_2">
     <g id="line2d_18">
      <path d="M 72 312.768 
L 518.4 312.768 
" clip-path="url(#pf745914bd5)" style="fill: none; stroke: #ffffff; stroke-linecap: round"/>
     </g>
     <g id="text_11">
      <!-- 0.2 -->
      <g style="fill: #262626" transform="translate(47.21 316.704797)scale(0.11 -0.11)">
       <use xlink:href="#ArialMT-30"/>
       <use xlink:href="#ArialMT-2e" x="55.615234"/>
       <use xlink:href="#ArialMT-32" x="83.398438"/>
      </g>
     </g>
    </g>
    <g id="ytick_3">
     <g id="line2d_19">
      <path d="M 72 247.536 
L 518.4 247.536 
" clip-path="url(#pf745914bd5)" style="fill: none; stroke: #ffffff; stroke-linecap: round"/>
     </g>
     <g id="text_12">
      <!-- 0.4 -->
      <g style="fill: #262626" transform="translate(47.21 251.472797)scale(0.11 -0.11)">
       <defs>
        <path id="ArialMT-34" d="M 2069 0 
L 2069 1097 
L 81 1097 
L 81 1613 
L 2172 4581 
L 2631 4581 
L 2631 1613 
L 3250 1613 
L 3250 1097 
L 2631 1097 
L 2631 0 
L 2069 0 
z
M 2069 1613 
L 2069 3678 
L 634 1613 
L 2069 1613 
z
" transform="scale(0.015625)"/>
       </defs>
       <use xlink:href="#ArialMT-30"/>
       <use xlink:href="#ArialMT-2e" x="55.615234"/>
       <use xlink:href="#ArialMT-34" x="83.398438"/>
      </g>
     </g>
    </g>
    <g id="ytick_4">
     <g id="line2d_20">
      <path d="M 72 182.304 
L 518.4 182.304 
" clip-path="url(#pf745914bd5)" style="fill: none; stroke: #ffffff; stroke-linecap: round"/>
     </g>
     <g id="text_13">
      <!-- 0.6 -->
      <g style="fill: #262626" transform="translate(47.21 186.240797)scale(0.11 -0.11)">
       <defs>
        <path id="ArialMT-36" d="M 3184 3459 
L 2625 3416 
Q 2550 3747 2413 3897 
Q 2184 4138 1850 4138 
Q 1581 4138 1378 3988 
Q 1113 3794 959 3422 
Q 806 3050 800 2363 
Q 1003 2672 1297 2822 
Q 1591 2972 1913 2972 
Q 2475 2972 2870 2558 
Q 3266 2144 3266 1488 
Q 3266 1056 3080 686 
Q 2894 316 2569 119 
Q 2244 -78 1831 -78 
Q 1128 -78 684 439 
Q 241 956 241 2144 
Q 241 3472 731 4075 
Q 1159 4600 1884 4600 
Q 2425 4600 2770 4297 
Q 3116 3994 3184 3459 
z
M 888 1484 
Q 888 1194 1011 928 
Q 1134 663 1356 523 
Q 1578 384 1822 384 
Q 2178 384 2434 671 
Q 2691 959 2691 1453 
Q 2691 1928 2437 2201 
Q 2184 2475 1800 2475 
Q 1419 2475 1153 2201 
Q 888 1928 888 1484 
z
" transform="scale(0.015625)"/>
       </defs>
       <use xlink:href="#ArialMT-30"/>
       <use xlink:href="#ArialMT-2e" x="55.615234"/>
       <use xlink:href="#ArialMT-36" x="83.398438"/>
      </g>
     </g>
    </g>
    <g id="ytick_5">
     <g id="line2d_21">
      <path d="M 72 117.072 
L 518.4 117.072 
" clip-path="url(#pf745914bd5)" style="fill: none; stroke: #ffffff; stroke-linecap: round"/>
     </g>
     <g id="text_14">
      <!-- 0.8 -->
      <g style="fill: #262626" transform="translate(47.21 121.008797)scale(0.11 -0.11)">
       <defs>
        <path id="ArialMT-38" d="M 1131 2484 
Q 781 2613 612 2850 
Q 444 3088 444 3419 
Q 444 3919 803 4259 
Q 1163 4600 1759 4600 
Q 2359 4600 2725 4251 
Q 3091 3903 3091 3403 
Q 3091 3084 2923 2848 
Q 2756 2613 2416 2484 
Q 2838 2347 3058 2040 
Q 3278 1734 3278 1309 
Q 3278 722 2862 322 
Q 2447 -78 1769 -78 
Q 1091 -78 675 323 
Q 259 725 259 1325 
Q 259 1772 486 2073 
Q 713 2375 1131 2484 
z
M 1019 3438 
Q 1019 3113 1228 2906 
Q 1438 2700 1772 2700 
Q 2097 2700 2305 2904 
Q 2513 3109 2513 3406 
Q 2513 3716 2298 3927 
Q 2084 4138 1766 4138 
Q 1444 4138 1231 3931 
Q 1019 3725 1019 3438 
z
M 838 1322 
Q 838 1081 952 856 
Q 1066 631 1291 507 
Q 1516 384 1775 384 
Q 2178 384 2440 643 
Q 2703 903 2703 1303 
Q 2703 1709 2433 1975 
Q 2163 2241 1756 2241 
Q 1359 2241 1098 1978 
Q 838 1716 838 1322 
z
" transform="scale(0.015625)"/>
       </defs>
       <use xlink:href="#ArialMT-30"/>
       <use xlink:href="#ArialMT-2e" x="55.615234"/>
       <use xlink:href="#ArialMT-38" x="83.398438"/>
      </g>
     </g>
    </g>
    <g id="ytick_6">
     <g id="line2d_22">
      <path d="M 72 51.84 
L 518.4 51.84 
" clip-path="url(#pf745914bd5)" style="fill: none; stroke: #ffffff; stroke-linecap: round"/>
     </g>
     <g id="text_15">
      <!-- 1.0 -->
      <g style="fill: #262626" transform="translate(47.21 55.776797)scale(0.11 -0.11)">
       <use xlink:href="#ArialMT-31"/>
       <use xlink:href="#ArialMT-2e" x="55.615234"/>
       <use xlink:href="#ArialMT-30" x="83.398438"/>
      </g>
     </g>
    </g>
    <g id="text_16">
     <!-- Proportion -->
     <g style="fill: #262626" transform="translate(40.825 242.600625)rotate(-90)scale(0.12 -0.12)">
      <defs>
       <path id="ArialMT-50" d="M 494 0 
L 494 4581 
L 2222 4581 
Q 2678 4581 2919 4538 
Q 3256 4481 3484 4323 
Q 3713 4166 3852 3881 
Q 3991 3597 3991 3256 
Q 3991 2672 3619 2267 
Q 3247 1863 2275 1863 
L 1100 1863 
L 1100 0 
L 494 0 
z
M 1100 2403 
L 2284 2403 
Q 2872 2403 3119 2622 
Q 3366 2841 3366 3238 
Q 3366 3525 3220 3729 
Q 3075 3934 2838 4000 
Q 2684 4041 2272 4041 
L 1100 4041 
L 1100 2403 
z
" transform="scale(0.015625)"/>
       <path id="ArialMT-72" d="M 416 0 
L 416 3319 
L 922 3319 
L 922 2816 
Q 1116 3169 1280 3281 
Q 1444 3394 1641 3394 
Q 1925 3394 2219 3213 
L 2025 2691 
Q 1819 2813 1613 2813 
Q 1428 2813 1281 2702 
Q 1134 2591 1072 2394 
Q 978 2094 978 1738 
L 978 0 
L 416 0 
z
" transform="scale(0.015625)"/>
       <path id="ArialMT-6f" d="M 213 1659 
Q 213 2581 725 3025 
Q 1153 3394 1769 3394 
Q 2453 3394 2887 2945 
Q 3322 2497 3322 1706 
Q 3322 1066 3130 698 
Q 2938 331 2570 128 
Q 2203 -75 1769 -75 
Q 1072 -75 642 372 
Q 213 819 213 1659 
z
M 791 1659 
Q 791 1022 1069 705 
Q 1347 388 1769 388 
Q 2188 388 2466 706 
Q 2744 1025 2744 1678 
Q 2744 2294 2464 2611 
Q 2184 2928 1769 2928 
Q 1347 2928 1069 2612 
Q 791 2297 791 1659 
z
" transform="scale(0.015625)"/>
       <path id="ArialMT-70" d="M 422 -1272 
L 422 3319 
L 934 3319 
L 934 2888 
Q 1116 3141 1344 3267 
Q 1572 3394 1897 3394 
Q 2322 3394 2647 3175 
Q 2972 2956 3137 2557 
Q 3303 2159 3303 1684 
Q 3303 1175 3120 767 
Q 2938 359 2589 142 
Q 2241 -75 1856 -75 
Q 1575 -75 1351 44 
Q 1128 163 984 344 
L 984 -1272 
L 422 -1272 
z
M 931 1641 
Q 931 1000 1190 694 
Q 1450 388 1819 388 
Q 2194 388 2461 705 
Q 2728 1022 2728 1688 
Q 2728 2322 2467 2637 
Q 2206 2953 1844 2953 
Q 1484 2953 1207 2617 
Q 931 2281 931 1641 
z
" transform="scale(0.015625)"/>
       <path id="ArialMT-74" d="M 1650 503 
L 1731 6 
Q 1494 -44 1306 -44 
Q 1000 -44 831 53 
Q 663 150 594 308 
Q 525 466 525 972 
L 525 2881 
L 113 2881 
L 113 3319 
L 525 3319 
L 525 4141 
L 1084 4478 
L 1084 3319 
L 1650 3319 
L 1650 2881 
L 1084 2881 
L 1084 941 
Q 1084 700 1114 631 
Q 1144 563 1211 522 
Q 1278 481 1403 481 
Q 1497 481 1650 503 
z
" transform="scale(0.015625)"/>
       <path id="ArialMT-6e" d="M 422 0 
L 422 3319 
L 928 3319 
L 928 2847 
Q 1294 3394 1984 3394 
Q 2284 3394 2536 3286 
Q 2788 3178 2913 3003 
Q 3038 2828 3088 2588 
Q 3119 2431 3119 2041 
L 3119 0 
L 2556 0 
L 2556 2019 
Q 2556 2363 2490 2533 
Q 2425 2703 2258 2804 
Q 2091 2906 1866 2906 
Q 1506 2906 1245 2678 
Q 984 2450 984 1813 
L 984 0 
L 422 0 
z
" transform="scale(0.015625)"/>
      </defs>
      <use xlink:href="#ArialMT-50"/>
      <use xlink:href="#ArialMT-72" x="66.699219"/>
      <use xlink:href="#ArialMT-6f" x="100"/>
      <use xlink:href="#ArialMT-70" x="155.615234"/>
      <use xlink:href="#ArialMT-6f" x="211.230469"/>
      <use xlink:href="#ArialMT-72" x="266.845703"/>
      <use xlink:href="#ArialMT-74" x="300.146484"/>
      <use xlink:href="#ArialMT-69" x="327.929688"/>
      <use xlink:href="#ArialMT-6f" x="350.146484"/>
      <use xlink:href="#ArialMT-6e" x="405.761719"/>
     </g>
    </g>
   </g>
   <g id="line2d_23">
    <path d="M 92.290909 378 
L 92.394563 376.325019 
L 92.417598 376.252194 
L 92.417598 376.227919 
L 92.521252 375.208366 
L 92.532769 375.208366 
L 92.532769 375.111265 
L 92.636423 374.285912 
L 92.659458 374.188812 
L 92.763112 373.339184 
L 92.774629 373.339184 
L 92.774629 373.242084 
L 92.878284 372.101155 
L 92.889801 372.101155 
L 92.889801 372.004055 
L 92.993455 370.911676 
L 93.004972 370.911676 
L 93.004972 370.814576 
L 93.108627 369.697922 
L 93.131661 369.600822 
L 93.235315 367.998666 
L 93.246832 367.998666 
L 93.246832 367.901566 
L 93.350487 366.323686 
L 93.362004 366.323686 
L 93.362004 366.226585 
L 93.465658 364.284579 
L 93.500209 364.211753 
L 93.500209 364.187478 
L 93.603864 363.434951 
L 93.626898 363.386401 
L 93.626898 363.337851 
L 93.730552 362.852349 
L 93.776621 362.779524 
L 93.776621 362.755249 
L 93.834207 362.536773 
L 93.926344 362.439673 
L 94.029998 362.196922 
L 94.122135 362.099821 
L 94.22579 361.857071 
L 94.317927 361.75997 
L 94.421581 361.298744 
L 94.433098 361.298744 
L 94.433098 361.201643 
L 94.536753 360.27919 
L 94.54827 360.27919 
L 94.54827 360.18209 
L 94.651924 359.138261 
L 94.674958 359.041161 
L 94.767096 357.681756 
L 94.813164 357.584656 
L 94.916819 356.710753 
L 94.95137 356.637928 
L 94.95137 356.613653 
L 95.055024 356.128151 
L 95.124127 356.031051 
L 95.227782 355.424174 
L 95.27385 355.327074 
L 95.377504 354.768747 
L 95.412056 354.695921 
L 95.412056 354.671646 
L 95.51571 354.234695 
L 95.561779 354.16187 
L 95.561779 354.137595 
L 95.665433 352.72964 
L 95.67695 352.72964 
L 95.67695 352.632539 
L 95.780605 352.001387 
L 95.803639 351.952837 
L 95.803639 351.904287 
L 95.907293 351.151759 
L 95.91881 351.151759 
L 95.91881 351.054659 
L 96.022465 349.428229 
L 96.033982 349.428229 
L 96.033982 349.331128 
L 96.137636 347.583322 
L 96.149153 347.583322 
L 96.149153 347.486222 
L 96.252808 345.32574 
L 96.264325 345.32574 
L 96.264325 345.228639 
L 96.367979 342.801131 
L 96.379496 342.801131 
L 96.379496 342.704031 
L 96.48315 338.674367 
L 96.494668 338.674367 
L 96.494668 338.577267 
L 96.598322 335.761358 
L 96.609839 335.761358 
L 96.609839 335.664257 
L 96.713493 333.285299 
L 96.725011 333.285299 
L 96.725011 333.188199 
L 96.828665 330.46939 
L 96.840182 330.46939 
L 96.840182 330.372289 
L 96.943836 328.211807 
L 96.955354 328.211807 
L 96.955354 328.114707 
L 97.059008 326.779577 
L 97.070525 326.779577 
L 97.070525 326.682477 
L 97.174179 325.323072 
L 97.185696 325.323072 
L 97.185696 325.225972 
L 97.289351 323.11404 
L 97.300868 323.11404 
L 97.300868 323.01694 
L 97.404522 319.399952 
L 97.416039 319.399952 
L 97.416039 319.302852 
L 97.519694 316.219917 
L 97.531211 316.219917 
L 97.531211 316.122816 
L 97.634865 313.792408 
L 97.646382 313.792408 
L 97.646382 313.695308 
L 97.750037 312.214528 
L 97.761554 312.214528 
L 97.761554 312.117428 
L 97.865208 310.782298 
L 97.911277 310.685198 
L 98.014931 309.93267 
L 98.037965 309.859845 
L 98.037965 309.83557 
L 98.14162 309.034492 
L 98.164654 308.937392 
L 98.268308 308.573266 
L 98.30286 308.476166 
L 98.394997 308.063489 
L 98.441065 307.966389 
L 98.54472 307.310962 
L 98.579271 307.213861 
L 98.682926 306.898285 
L 98.8672 306.82546 
L 98.8672 306.801185 
L 98.959337 306.509884 
L 99.005406 306.412784 
L 99.10906 306.218583 
L 99.143611 306.145758 
L 99.143611 306.121483 
L 99.247266 305.538881 
L 99.293334 305.466055 
L 99.293334 305.44178 
L 99.396989 304.859178 
L 99.420023 304.810628 
L 99.420023 304.762078 
L 99.523677 304.349402 
L 99.558229 304.276576 
L 99.558229 304.252301 
L 99.661883 303.548324 
L 99.730986 303.451224 
L 99.823123 303.281298 
L 99.961329 303.184198 
L 100.064983 302.941447 
L 100.099535 302.844347 
L 100.191672 302.33457 
L 100.214706 302.33457 
L 100.214706 302.237469 
L 100.31836 301.873343 
L 100.364429 301.776243 
L 100.456566 301.557767 
L 100.629323 301.460667 
L 100.732978 300.878065 
L 100.744495 300.878065 
L 100.744495 300.780965 
L 100.848149 299.640036 
L 100.871183 299.542935 
L 100.974838 298.887508 
L 101.009389 298.790408 
L 101.113043 298.474832 
L 101.136078 298.402007 
L 101.136078 298.377731 
L 101.239732 298.013605 
L 101.262766 297.965055 
L 101.262766 297.916505 
L 101.366421 297.455278 
L 101.458558 297.358178 
L 101.562212 296.945502 
L 101.585246 296.872676 
L 101.585246 296.848401 
L 101.677384 296.532825 
L 101.758004 296.46 
L 101.758004 296.435725 
L 101.861658 295.877398 
L 101.896209 295.780298 
L 101.942278 295.610372 
L 102.092001 295.513272 
L 102.195655 295.02777 
L 102.253241 294.93067 
L 102.356895 294.639369 
L 102.402964 294.566544 
L 102.402964 294.542269 
L 102.506618 294.250968 
L 102.564204 294.178142 
L 102.564204 294.153867 
L 102.667858 293.59554 
L 102.70241 293.49844 
L 102.806064 293.110039 
L 102.829098 293.061489 
L 102.829098 293.012938 
L 102.840615 292.940113 
L 102.990338 292.843013 
L 103.093993 292.236136 
L 103.128544 292.139035 
L 103.128544 292.11476 
L 103.520127 292.041935 
L 103.520127 292.01766 
L 103.623781 291.289408 
L 103.646816 291.192307 
L 103.75047 290.925281 
L 103.83109 290.852456 
L 103.83109 290.828181 
L 103.923227 290.148479 
L 103.957779 290.099929 
L 103.957779 290.051378 
L 104.061433 289.687252 
L 104.119019 289.590152 
L 104.222673 288.789074 
L 104.257225 288.691974 
L 104.360879 288.036547 
L 104.39543 287.939446 
L 104.499085 287.041268 
L 104.522119 286.944168 
L 104.625773 286.652867 
L 104.671842 286.555767 
L 104.71791 286.337291 
L 104.925219 286.240191 
L 105.017356 286.09454 
L 105.351353 285.99744 
L 105.455008 285.657589 
L 105.501076 285.560488 
L 105.570179 285.390563 
L 107.804506 285.293462 
L 107.896643 284.783686 
L 108.057883 284.686585 
L 108.161537 284.61376 
L 108.345812 284.540935 
L 108.345812 284.51666 
L 108.414914 284.322459 
L 108.921669 284.225359 
L 108.921669 284.201084 
L 109.313252 284.103983 
L 109.313252 284.079708 
L 110.015798 284.055433 
L 110.015798 283.982608 
L 110.038832 283.812682 
L 110.960204 283.739857 
L 110.960204 283.715582 
L 111.063858 282.817404 
L 111.086893 282.744579 
L 111.086893 282.720304 
L 111.190547 282.307627 
L 111.236615 282.210527 
L 111.34027 281.967776 
L 111.374821 281.870676 
L 111.478476 280.001494 
L 111.489993 280.001494 
L 111.489993 279.904394 
L 111.593647 277.549711 
L 111.605164 277.549711 
L 111.605164 277.452611 
L 111.708818 276.505883 
L 111.731853 276.408782 
L 111.835507 276.020381 
L 111.858541 275.971831 
L 111.858541 275.923281 
L 111.962196 275.462054 
L 112.019781 275.364954 
L 112.123436 274.928002 
L 112.157987 274.855177 
L 112.157987 274.830902 
L 112.261642 273.908449 
L 112.296193 273.811349 
L 112.399847 273.083096 
L 112.434399 272.985996 
L 112.538053 272.160643 
L 112.561087 272.063543 
L 112.664742 271.650866 
L 112.768396 271.553766 
L 112.849016 271.480941 
L 112.998739 271.408116 
L 112.998739 271.38384 
L 113.102393 270.776963 
L 113.240599 270.679863 
L 113.344253 270.412837 
L 113.459425 270.315737 
L 113.528528 270.242912 
L 113.666733 270.145811 
L 113.758871 270.024436 
L 113.908593 269.951611 
L 113.908593 269.927336 
L 114.012248 269.174808 
L 114.035282 269.077708 
L 114.138936 268.519381 
L 114.150454 268.519381 
L 114.150454 268.42228 
L 114.254108 268.17953 
L 114.265625 268.17953 
L 114.265625 268.082429 
L 114.369279 267.281352 
L 114.426865 267.184251 
L 114.530519 266.431724 
L 114.553554 266.358898 
L 114.553554 266.334623 
L 114.657208 265.606371 
L 114.680242 265.533546 
L 114.680242 265.509271 
L 114.783897 265.242245 
L 114.806931 265.169419 
L 114.806931 265.145144 
L 114.910585 264.659643 
L 114.968171 264.611093 
L 114.968171 264.562542 
L 115.060308 263.810015 
L 115.106377 263.712915 
L 115.210031 263.178863 
L 115.2561 263.130313 
L 115.2561 263.081762 
L 115.359754 262.596261 
L 115.382788 262.523436 
L 115.382788 262.49916 
L 115.486443 261.843733 
L 115.509477 261.746633 
L 115.613131 261.503882 
L 115.705268 261.406782 
L 115.808923 261.115481 
L 115.947128 261.01838 
L 116.039266 260.702804 
L 116.085334 260.654254 
L 116.085334 260.605704 
L 116.188989 260.217303 
L 116.235057 260.120202 
L 116.338711 259.464775 
L 116.350229 259.464775 
L 116.350229 259.367675 
L 116.453883 258.153921 
L 116.4654 258.153921 
L 116.4654 258.05682 
L 116.569054 257.085817 
L 116.603606 257.061542 
L 116.603606 256.988717 
L 116.70726 256.43039 
L 116.730294 256.357565 
L 116.730294 256.33329 
L 116.833949 255.483662 
L 116.856983 255.410837 
L 116.856983 255.386561 
L 116.960637 254.731134 
L 117.02974 254.634034 
L 117.133395 254.099982 
L 117.179463 254.002882 
L 117.283117 253.46883 
L 117.329186 253.396005 
L 117.329186 253.37173 
L 117.398289 252.910503 
L 117.490426 252.837678 
L 117.490426 252.813403 
L 117.59408 252.303626 
L 117.628632 252.230801 
L 117.628632 252.206526 
L 117.732286 251.623924 
L 117.778355 251.526823 
L 117.882009 251.235522 
L 117.928078 251.138422 
L 118.031732 250.50727 
L 118.066283 250.45872 
L 118.066283 250.41017 
L 118.158421 249.609092 
L 118.181455 249.609092 
L 118.181455 249.511992 
L 118.285109 248.516713 
L 118.296626 248.516713 
L 118.296626 248.419613 
L 118.400281 247.133034 
L 118.423315 247.060208 
L 118.423315 247.035933 
L 118.526969 245.797904 
L 118.538486 245.797904 
L 118.538486 245.700804 
L 118.642141 244.025823 
L 118.653658 244.025823 
L 118.653658 243.928723 
L 118.757312 242.95772 
L 118.780347 242.909169 
L 118.780347 242.860619 
L 118.884001 241.598315 
L 118.907035 241.501215 
L 119.010689 240.627312 
L 119.033724 240.554486 
L 119.033724 240.530211 
L 119.137378 239.850509 
L 119.160412 239.801959 
L 119.160412 239.753409 
L 119.264067 239.000881 
L 119.275584 239.000881 
L 119.275584 238.903781 
L 119.379238 238.151253 
L 119.402272 238.054153 
L 119.505927 237.107425 
L 119.528961 237.0346 
L 119.528961 237.010325 
L 119.632615 236.403447 
L 119.65565 236.330622 
L 119.65565 236.306347 
L 119.759304 235.723745 
L 119.782338 235.675195 
L 119.782338 235.626645 
L 119.885993 235.141143 
L 119.89751 235.141143 
L 119.89751 235.044043 
L 120.001164 234.31579 
L 120.024198 234.242965 
L 120.024198 234.21869 
L 120.127853 233.417612 
L 120.150887 233.320512 
L 120.254541 232.470884 
L 120.289093 232.373784 
L 120.392747 231.815457 
L 120.415781 231.791182 
L 120.415781 231.718357 
L 120.519436 231.281405 
L 120.54247 231.232855 
L 120.54247 231.184305 
L 120.646124 229.897726 
L 120.680676 229.800625 
L 120.78433 228.538321 
L 120.818882 228.465496 
L 120.818882 228.441221 
L 120.922536 227.931444 
L 120.957087 227.834344 
L 121.060742 227.251742 
L 121.072259 227.251742 
L 121.072259 227.154641 
L 121.175913 226.523489 
L 121.198947 226.450664 
L 121.198947 226.426389 
L 121.302602 226.110813 
L 121.360187 226.013712 
L 121.463842 225.18836 
L 121.486876 225.091259 
L 121.59053 224.023156 
L 121.602047 224.023156 
L 121.602047 223.926055 
L 121.694185 223.246353 
L 121.774805 223.149253 
L 121.878459 222.27535 
L 121.936045 222.202525 
L 121.936045 222.178249 
L 122.028182 221.668473 
L 122.108802 221.571372 
L 122.200939 221.377172 
L 122.281559 221.280071 
L 122.362179 221.158696 
L 122.454316 221.061596 
L 122.557971 220.867395 
L 122.592522 220.79457 
L 122.592522 220.770295 
L 122.684659 220.576094 
L 122.776796 220.478994 
L 122.880451 219.944942 
L 122.938037 219.872117 
L 122.938037 219.847842 
L 123.041691 219.556541 
L 123.110794 219.45944 
L 123.202931 218.998214 
L 123.283551 218.901113 
L 123.387205 218.342787 
L 123.467825 218.245686 
L 123.57148 217.857285 
L 123.617548 217.760185 
L 123.721202 217.080482 
L 123.73272 217.080482 
L 123.73272 216.983382 
L 123.836374 216.133754 
L 123.870925 216.036654 
L 123.97458 215.648252 
L 123.997614 215.599702 
L 123.997614 215.551152 
L 124.101268 215.0171 
L 124.124303 214.944275 
L 124.124303 214.92 
L 124.227957 214.483049 
L 124.262508 214.410223 
L 124.262508 214.385948 
L 124.366163 213.560595 
L 124.389197 213.53632 
L 124.389197 213.463495 
L 124.492851 212.977993 
L 124.515886 212.880893 
L 124.61954 212.346841 
L 124.665609 212.274016 
L 124.665609 212.249741 
L 124.769263 211.982715 
L 124.815331 211.90989 
L 124.815331 211.885615 
L 124.918986 211.351563 
L 124.930503 211.351563 
L 124.930503 211.254463 
L 125.034157 210.57476 
L 125.068709 210.52621 
L 125.068709 210.47766 
L 125.172363 210.137809 
L 125.241466 210.040709 
L 125.34512 209.725132 
L 125.368154 209.652307 
L 125.368154 209.628032 
L 125.471809 208.802679 
L 125.50636 208.705579 
L 125.610015 208.171527 
L 125.6676 208.074427 
L 125.771255 207.443275 
L 125.782772 207.443275 
L 125.782772 207.346174 
L 125.840357 206.860673 
L 125.932495 206.787848 
L 125.932495 206.763572 
L 126.024632 206.447996 
L 126.0707 206.375171 
L 126.0707 206.350896 
L 126.174355 205.962495 
L 126.266492 205.865394 
L 126.370146 205.501268 
L 126.393181 205.428443 
L 126.393181 205.404168 
L 126.485318 204.845841 
L 126.658075 204.748741 
L 126.750212 204.384614 
L 126.830832 204.311789 
L 126.830832 204.287514 
L 126.934486 203.729187 
L 126.980555 203.632087 
L 127.084209 203.316511 
L 127.118761 203.243686 
L 127.118761 203.219411 
L 127.222415 202.539708 
L 127.268484 202.442608 
L 127.372138 202.175582 
L 127.383655 202.175582 
L 127.383655 202.078482 
L 127.487309 201.301679 
L 127.521861 201.204579 
L 127.625515 200.621977 
L 127.64855 200.549152 
L 127.64855 200.524876 
L 127.752204 200.282126 
L 127.775238 200.233575 
L 127.775238 200.185025 
L 127.878892 199.869449 
L 127.913444 199.820899 
L 127.913444 199.772349 
L 128.017098 199.141197 
L 128.05165 199.044096 
L 128.155304 198.53432 
L 128.258958 198.437219 
L 128.362613 198.145918 
L 128.466267 198.048818 
L 128.558404 197.830342 
L 128.708127 197.733242 
L 128.811781 197.514766 
L 128.869367 197.417666 
L 128.973021 197.24774 
L 129.030607 197.15064 
L 129.134261 196.762239 
L 129.157296 196.713689 
L 129.157296 196.665138 
L 129.26095 195.888336 
L 129.295502 195.815511 
L 129.295502 195.791235 
L 129.399156 195.305734 
L 129.433707 195.208634 
L 129.479776 195.135808 
L 129.606464 195.038708 
L 129.710119 194.868782 
L 129.74467 194.771682 
L 129.848325 194.407556 
L 129.882876 194.334731 
L 129.882876 194.310455 
L 129.98653 194.14053 
L 130.06715 194.04343 
L 130.159288 193.922054 
L 130.239908 193.849229 
L 130.239908 193.824954 
L 130.343562 193.557928 
L 130.458733 193.460828 
L 130.516319 193.315177 
L 130.643008 193.218077 
L 130.735145 192.926776 
L 130.781213 192.829675 
L 130.884868 192.368449 
L 130.919419 192.271349 
L 131.011556 192.101423 
L 131.080659 192.004323 
L 131.184314 191.543096 
L 131.241899 191.494546 
L 131.241899 191.445996 
L 131.345554 191.203245 
L 131.483759 191.13042 
L 131.483759 191.106145 
L 131.587414 190.911944 
L 131.610448 190.814844 
L 131.714102 190.402167 
L 131.783205 190.305067 
L 131.88686 190.183692 
L 132.036582 190.086591 
L 132.059617 190.038041 
L 132.28996 189.940941 
L 132.359063 189.84384 
L 132.589405 189.74674 
L 132.681543 189.673915 
L 132.865817 189.576815 
L 132.969471 189.406889 
L 133.01554 189.309789 
L 133.073126 189.018488 
L 133.211331 188.921387 
L 133.291951 188.702912 
L 133.510777 188.605811 
L 133.614432 188.31451 
L 133.637466 188.26596 
L 133.637466 188.21741 
L 133.74112 187.197857 
L 133.764154 187.100756 
L 133.867809 186.421054 
L 133.890843 186.372504 
L 133.890843 186.323954 
L 133.994497 185.911277 
L 134.052083 185.814177 
L 134.121186 185.571426 
L 134.236357 185.474326 
L 134.340012 185.2073 
L 134.374563 185.134475 
L 134.374563 185.110199 
L 134.478218 184.746073 
L 134.524286 184.648973 
L 134.62794 184.187746 
L 134.731595 184.090646 
L 134.835249 184.017821 
L 134.984972 183.92072 
L 135.088626 182.998267 
L 135.111661 182.901167 
L 135.215315 182.658416 
L 135.272901 182.561316 
L 135.342004 182.34284 
L 135.526278 182.24574 
L 135.629932 181.590313 
L 135.664484 181.517487 
L 135.664484 181.493212 
L 135.768138 181.274737 
L 135.906344 181.177636 
L 136.009998 180.86206 
L 136.12517 180.76496 
L 136.228824 180.595034 
L 136.320961 180.497934 
L 136.390064 180.425109 
L 136.562821 180.328008 
L 136.666475 179.988157 
L 136.712544 179.891057 
L 136.793164 179.793957 
L 136.873784 179.696856 
L 136.908335 179.624031 
L 137.484193 179.526931 
L 137.564813 179.42983 
L 137.691501 179.357005 
L 137.691501 179.33273 
L 137.795156 178.944329 
L 137.81819 178.847228 
L 137.921844 178.313177 
L 137.97943 178.240351 
L 137.97943 178.216076 
L 138.083084 177.9976 
L 138.129153 177.9005 
L 138.22129 177.390723 
L 138.267359 177.342173 
L 138.267359 177.293623 
L 138.371013 176.686746 
L 138.394047 176.613921 
L 138.394047 176.589646 
L 138.497702 175.764293 
L 138.532253 175.691468 
L 138.532253 175.667193 
L 138.635907 174.93894 
L 138.670459 174.84184 
L 138.774113 174.429163 
L 138.820182 174.332063 
L 138.923836 174.137862 
L 139.062042 174.040762 
L 139.165696 173.700911 
L 139.292385 173.603811 
L 139.396039 173.336785 
L 139.637899 173.239684 
L 139.707002 173.069759 
L 139.845208 172.996934 
L 139.845208 172.972659 
L 139.948862 172.268681 
L 139.983414 172.171581 
L 140.087068 171.97738 
L 140.121619 171.904555 
L 140.121619 171.88028 
L 140.225274 171.443328 
L 140.271342 171.346228 
L 140.374997 170.763626 
L 140.409548 170.690801 
L 140.409548 170.666526 
L 140.513202 170.083924 
L 140.536237 169.986823 
L 140.639891 169.574147 
L 140.68596 169.477047 
L 140.789614 168.96727 
L 140.812648 168.91872 
L 140.812648 168.87017 
L 140.916303 168.554594 
L 140.973888 168.481768 
L 140.973888 168.457493 
L 141.077543 167.850616 
L 141.100577 167.753516 
L 141.135128 167.559315 
L 141.73402 167.48649 
L 141.73402 167.462215 
L 141.837674 166.952438 
L 141.952846 166.855338 
L 142.044983 166.685412 
L 142.091052 166.636862 
L 142.091052 166.588312 
L 142.194706 166.05426 
L 142.29836 165.95716 
L 142.390497 165.762959 
L 142.505669 165.665859 
L 142.609323 165.131807 
L 142.643875 165.034707 
L 142.747529 164.646305 
L 142.770563 164.549205 
L 142.874217 164.233629 
L 142.920286 164.160804 
L 142.920286 164.136529 
L 143.02394 163.772403 
L 143.058492 163.699577 
L 143.058492 163.675302 
L 143.162146 163.165525 
L 143.18518 163.116975 
L 143.18518 163.068425 
L 143.288835 162.607199 
L 143.311869 162.534373 
L 143.311869 162.510098 
L 143.415523 162.121697 
L 143.438558 162.024597 
L 143.542212 160.883668 
L 143.565246 160.810843 
L 143.565246 160.786567 
L 143.668901 158.65036 
L 143.680418 158.65036 
L 143.680418 158.55326 
L 143.784072 157.096755 
L 143.795589 157.096755 
L 143.795589 156.999655 
L 143.899244 156.368503 
L 143.910761 156.368503 
L 143.910761 156.271402 
L 144.014415 155.713075 
L 144.048966 155.64025 
L 144.048966 155.615975 
L 144.152621 154.960548 
L 144.210207 154.863447 
L 144.313861 154.547871 
L 144.336895 154.450771 
L 144.440549 153.965269 
L 144.475101 153.868169 
L 144.578755 153.528318 
L 144.659375 153.431218 
L 144.739995 153.285567 
L 144.809098 153.212742 
L 144.809098 153.188467 
L 144.901235 152.969991 
L 144.947304 152.897166 
L 144.947304 152.872891 
L 145.050958 152.53304 
L 145.097027 152.460214 
L 145.097027 152.435939 
L 145.154613 152.168913 
L 145.24675 152.071813 
L 145.350404 151.829062 
L 145.442541 151.731962 
L 145.523161 151.537761 
L 145.615298 151.440661 
L 145.718953 151.19791 
L 145.776538 151.10081 
L 145.880193 150.639583 
L 145.914744 150.566758 
L 145.914744 150.542483 
L 146.018399 150.251182 
L 146.075984 150.154082 
L 146.179639 150.008431 
L 146.225707 149.911331 
L 146.329362 149.207353 
L 146.352396 149.134528 
L 146.352396 149.110253 
L 146.45605 148.527651 
L 146.490602 148.454826 
L 146.490602 148.430551 
L 146.582739 147.969324 
L 146.640324 147.872224 
L 146.743979 147.653748 
L 146.813082 147.580923 
L 146.813082 147.556648 
L 146.916736 147.313897 
L 146.997356 147.216797 
L 147.089493 147.071146 
L 147.193148 146.974046 
L 147.285285 146.731295 
L 147.354388 146.634195 
L 147.458042 146.294344 
L 147.481076 146.221518 
L 147.481076 146.197243 
L 147.58473 144.983489 
L 147.619282 144.886389 
L 147.711419 144.279512 
L 147.757488 144.206687 
L 147.757488 144.182411 
L 147.861142 143.79401 
L 147.895693 143.721185 
L 147.895693 143.69691 
L 147.999348 143.235683 
L 148.045416 143.138583 
L 148.149071 142.701631 
L 148.218174 142.604531 
L 148.321828 142.386055 
L 148.436999 142.288955 
L 148.540654 141.852004 
L 148.563688 141.803453 
L 148.563688 141.754903 
L 148.667342 141.439327 
L 148.805548 141.342227 
L 148.897685 141.148026 
L 148.966788 141.075201 
L 148.966788 141.050926 
L 149.070442 140.7839 
L 149.16258 140.6868 
L 149.266234 140.419774 
L 149.312303 140.322673 
L 149.415957 140.031372 
L 149.508094 139.934272 
L 149.600231 139.764347 
L 149.657817 139.667246 
L 149.761471 139.521596 
L 149.796023 139.44877 
L 149.796023 139.424495 
L 149.853608 139.30312 
L 149.991814 139.20602 
L 150.083951 139.084644 
L 150.164571 138.987544 
L 150.268226 138.817618 
L 150.325811 138.720518 
L 150.429466 138.574868 
L 150.579189 138.477767 
L 150.682843 138.137916 
L 150.77498 138.040816 
L 150.878634 137.798065 
L 150.947737 137.700965 
L 151.051392 137.336838 
L 151.074426 137.264013 
L 151.074426 137.239738 
L 151.17808 136.802787 
L 151.212632 136.705686 
L 151.316286 136.39011 
L 151.454492 136.317285 
L 151.454492 136.29301 
L 151.558146 136.025984 
L 151.592698 135.953159 
L 151.592698 135.928884 
L 151.673318 135.783233 
L 151.765455 135.686133 
L 151.869109 135.419107 
L 151.961246 135.322007 
L 152.064901 134.933605 
L 152.099452 134.836505 
L 152.191589 134.351003 
L 152.387381 134.253903 
L 152.491035 134.035427 
L 152.537104 133.962602 
L 152.537104 133.938327 
L 152.629241 133.768401 
L 152.652275 133.768401 
L 152.652275 133.671301 
L 152.721378 133.33145 
L 152.825032 133.23435 
L 152.928687 133.112974 
L 152.997789 133.040149 
L 152.997789 133.015874 
L 153.101444 132.603197 
L 153.15903 132.506097 
L 153.262684 131.972045 
L 153.285718 131.874945 
L 153.389372 131.389443 
L 153.412407 131.316618 
L 153.412407 131.292343 
L 153.516061 130.976767 
L 153.539095 130.928217 
L 153.539095 130.879667 
L 153.64275 130.564091 
L 153.677301 130.46699 
L 153.780955 129.981489 
L 153.80399 129.932938 
L 153.80399 129.884388 
L 153.907644 129.374611 
L 153.942195 129.301786 
L 153.942195 129.277511 
L 154.04585 129.010485 
L 154.057367 129.010485 
L 154.057367 128.913385 
L 154.161021 128.573534 
L 154.20709 128.476433 
L 154.310744 128.355058 
L 154.44895 128.257958 
L 154.541087 128.063757 
L 154.621707 127.966657 
L 154.725361 127.699631 
L 154.794464 127.602531 
L 154.886602 127.189854 
L 154.955704 127.117029 
L 154.955704 127.092754 
L 155.059359 126.922828 
L 155.220599 126.825728 
L 155.324253 126.582977 
L 155.404873 126.485877 
L 155.508527 126.267401 
L 155.600665 126.170301 
L 155.704319 125.903275 
L 155.750388 125.806174 
L 155.854042 125.199297 
L 155.923145 125.102197 
L 156.026799 124.713796 
L 156.084385 124.640971 
L 156.084385 124.616695 
L 156.188039 124.179744 
L 156.326245 124.082644 
L 156.429899 123.888443 
L 156.452933 123.839893 
L 156.452933 123.791343 
L 156.556588 123.208741 
L 156.591139 123.11164 
L 156.694794 122.723239 
L 156.729345 122.650414 
L 156.729345 122.626139 
L 156.832999 122.116362 
L 156.867551 122.043537 
L 156.867551 122.019262 
L 156.971205 121.48521 
L 156.994239 121.38811 
L 157.097894 120.611307 
L 157.132445 120.514207 
L 157.236099 118.742126 
L 157.247617 118.742126 
L 157.247617 118.645025 
L 157.351271 116.460268 
L 157.374305 116.387443 
L 157.374305 116.363168 
L 157.47796 114.566812 
L 157.489477 114.566812 
L 157.489477 114.469711 
L 157.593131 112.284954 
L 157.6392 112.187854 
L 157.742854 111.629527 
L 157.80044 111.532426 
L 157.892577 110.755624 
L 157.915611 110.755624 
L 157.915611 110.658523 
L 157.96168 110.318672 
L 158.860017 110.245847 
L 158.860017 110.221572 
L 158.963671 109.881721 
L 158.998223 109.78462 
L 159.021257 109.68752 
L 161.520478 109.59042 
L 161.624132 109.444769 
L 161.739304 109.347669 
L 161.79689 109.250569 
L 161.900544 109.153468 
L 161.981164 109.032093 
L 162.03875 109.007818 
L 162.03875 108.934993 
L 162.142404 108.595141 
L 162.19999 108.546591 
L 162.19999 108.498041 
L 162.303644 107.672688 
L 162.338195 107.599863 
L 162.338195 107.575588 
L 162.44185 107.138636 
L 162.510953 107.090086 
L 162.510953 107.041536 
L 162.510953 106.992986 
L 165.885477 106.895886 
L 165.95458 106.531759 
L 166.046717 106.458934 
L 166.046717 106.434659 
L 166.138854 106.216183 
L 179.47571 106.119083 
L 179.579364 105.002429 
L 179.648467 104.929604 
L 179.648467 104.905329 
L 179.752121 104.759678 
L 179.832741 104.662578 
L 179.936396 104.541203 
L 179.993981 104.468377 
L 179.993981 104.444102 
L 180.086119 104.395552 
L 180.132187 104.371277 
L 180.132187 104.298452 
L 180.235841 103.6673 
L 180.258876 103.61875 
L 180.258876 103.570199 
L 180.36253 103.011873 
L 180.431633 102.914772 
L 180.535287 102.33217 
L 180.546804 102.33217 
L 180.546804 102.23507 
L 180.638942 101.919494 
L 180.673493 101.822394 
L 180.777147 101.191241 
L 180.834733 101.118416 
L 180.834733 101.094141 
L 180.92687 100.80284 
L 180.984456 100.70574 
L 181.08811 100.487264 
L 181.122662 100.414439 
L 181.122662 100.390164 
L 181.226316 99.928937 
L 181.272385 99.831837 
L 181.376039 99.346335 
L 181.422108 99.249235 
L 181.525762 98.472432 
L 181.548796 98.399607 
L 181.548796 98.375332 
L 181.65245 97.93838 
L 181.698519 97.865555 
L 181.698519 97.84128 
L 181.802173 97.574254 
L 181.859759 97.477154 
L 181.951896 97.234403 
L 182.055551 97.137303 
L 182.124654 97.040202 
L 182.308928 96.967377 
L 182.308928 96.943102 
L 182.412582 96.336225 
L 182.481685 96.239125 
L 182.585339 96.142024 
L 182.792648 96.044924 
L 182.873268 95.923549 
L 183.034508 95.826448 
L 183.138162 95.729348 
L 183.195748 95.632248 
L 183.287885 95.389497 
L 183.449125 95.292397 
L 183.55278 95.171021 
L 183.644917 95.073921 
L 183.71402 94.952545 
L 183.806157 94.855445 
L 183.909811 94.345668 
L 183.932846 94.248568 
L 184.0365 93.568866 
L 184.048017 93.568866 
L 184.048017 93.471765 
L 184.151671 93.180464 
L 184.174706 93.083364 
L 184.27836 92.719238 
L 184.312911 92.646413 
L 184.312911 92.622138 
L 184.416566 91.72396 
L 184.451117 91.626859 
L 184.554771 91.384108 
L 184.635391 91.287008 
L 184.739046 91.189908 
L 184.819666 91.092807 
L 184.865734 91.019982 
L 185.050009 90.947157 
L 185.050009 90.922882 
L 185.153663 90.825781 
L 185.384006 90.728681 
L 185.476143 90.558756 
L 185.56828 90.461655 
L 185.671935 90.316005 
L 185.764072 90.218904 
L 185.856209 90.146079 
L 186.028966 90.048979 
L 186.109586 89.879053 
L 186.167172 89.806228 
L 186.167172 89.781953 
L 186.270826 88.835225 
L 186.316895 88.738124 
L 186.420549 88.616749 
L 186.466618 88.543924 
L 186.466618 88.519649 
L 186.570272 88.082697 
L 186.593306 87.985597 
L 186.696961 87.815671 
L 186.858201 87.718571 
L 186.881235 87.670021 
L 187.065509 87.621471 
L 187.065509 87.572921 
L 187.169164 85.825115 
L 187.203715 85.752289 
L 187.203715 85.728014 
L 187.30737 85.072587 
L 187.399507 84.975487 
L 187.503161 84.757011 
L 187.606815 84.659911 
L 187.698953 84.56281 
L 187.768055 84.46571 
L 187.87171 84.32006 
L 188.079018 84.222959 
L 188.148121 84.125859 
L 188.205707 84.101584 
L 188.205707 84.028759 
L 188.297844 83.713182 
L 189.760522 83.616082 
L 189.841142 83.446157 
L 190.681894 83.397606 
L 190.681894 83.349056 
L 190.785548 83.130581 
L 190.797065 83.130581 
L 190.797065 83.03348 
L 190.866168 82.426603 
L 190.958305 82.378053 
L 190.958305 82.329503 
L 191.061959 81.625525 
L 191.280785 81.528425 
L 191.384439 81.4556 
L 191.430508 81.3585 
L 191.442025 81.164299 
L 192.950771 81.067199 
L 192.950771 81.042923 
L 195.473027 80.970098 
L 195.473027 80.945823 
L 195.473027 80.921548 
L 198.467485 80.824448 
L 198.467485 80.775898 
L 203.465926 80.703072 
L 203.465926 80.678797 
L 203.488961 80.557422 
L 208.176439 80.460322 
L 208.176439 80.411771 
L 209.316637 80.314671 
L 209.420291 79.901995 
L 209.443326 79.804894 
L 209.46636 79.465043 
L 211.101795 79.367943 
L 211.205449 79.270843 
L 212.921504 79.173742 
L 212.97909 79.076642 
L 215.743205 78.979542 
L 215.754722 78.906716 
L 221.087161 78.809616 
L 221.087161 78.761066 
L 226.292911 78.663965 
L 226.292911 78.615415 
L 474.556526 78.518315 
L 474.556526 78.49404 
L 475.558518 78.39694 
L 475.581552 78.324114 
L 475.915549 78.227014 
L 475.938583 78.178464 
L 476.214995 78.081364 
L 476.238029 77.959988 
L 476.525958 77.887163 
L 476.525958 77.862888 
L 476.537475 77.790063 
L 476.894507 77.692962 
L 476.998161 76.819059 
L 477.04423 76.721959 
L 477.147884 76.357833 
L 477.412778 76.285007 
L 477.412778 76.260732 
L 477.516433 75.872331 
L 477.539467 75.799506 
L 477.539467 75.775231 
L 477.585535 75.53248 
L 477.700707 75.43538 
L 477.804361 75.314004 
L 477.838913 75.216904 
L 477.942567 74.779952 
L 478.149876 74.682852 
L 478.149876 74.658577 
L 478.311116 74.561477 
L 478.41477 74.391551 
L 478.529941 74.294451 
L 478.564493 74.221625 
L 478.714216 74.124525 
L 478.81787 74.00315 
L 479.048213 73.906049 
L 479.071247 73.833224 
L 479.255522 73.736124 
L 479.347659 73.639024 
L 479.393727 73.541923 
L 479.497382 73.177797 
L 479.54345 73.104972 
L 479.54345 73.080697 
L 479.647105 71.842667 
L 479.70469 71.745567 
L 479.796828 70.944489 
L 479.854413 70.847389 
L 479.958068 70.191962 
L 480.211445 70.094862 
L 480.211445 70.070586 
L 480.729717 69.973486 
L 480.821854 69.827836 
L 480.902474 69.730735 
L 480.913991 69.65791 
L 481.178885 69.56081 
L 481.271022 69.463709 
L 481.36316 69.366609 
L 481.409228 69.220959 
L 481.547434 69.123858 
L 481.547434 69.075308 
L 482.134808 68.978208 
L 482.238463 68.784007 
L 482.319083 68.711182 
L 482.319083 68.686907 
L 482.41122 68.541256 
L 482.883423 68.444156 
L 482.964043 68.371331 
L 483.275006 68.27423 
L 483.275006 68.249955 
L 483.86238 68.152855 
L 483.931483 68.055755 
L 484.714649 67.958654 
L 484.714649 67.934379 
L 485.428712 67.837279 
L 485.463264 67.764454 
L 490.058605 67.667353 
L 490.16226 67.376052 
L 490.219845 67.278952 
L 490.3235 66.987651 
L 490.346534 66.939101 
L 490.346534 66.890551 
L 490.438671 66.7449 
L 490.48474 66.6478 
L 490.588394 65.749622 
L 490.599911 65.749622 
L 490.599911 65.652522 
L 490.703566 64.681518 
L 490.715083 64.681518 
L 490.715083 64.584418 
L 490.818737 62.569586 
L 490.830254 62.569586 
L 490.830254 62.472486 
L 490.933909 61.550033 
L 490.945426 61.550033 
L 490.945426 61.452932 
L 491.04908 60.214903 
L 491.083631 60.117803 
L 491.187286 59.122525 
L 491.198803 59.122525 
L 491.198803 59.025424 
L 491.302457 57.471819 
L 491.313974 57.471819 
L 491.313974 57.374719 
L 491.417629 55.966764 
L 491.463697 55.893939 
L 491.463697 55.869664 
L 491.475214 55.821113 
L 492.09714 55.724013 
L 492.143209 55.602638 
L 492.373552 55.529812 
L 492.373552 55.505537 
L 492.477206 55.092861 
L 492.511758 54.995761 
L 492.615412 54.485984 
L 492.742101 54.388884 
L 492.845755 53.782007 
L 492.868789 53.709181 
L 492.868789 53.684906 
L 492.972443 53.46643 
L 493.018512 53.36933 
L 493.122166 53.22368 
L 493.156718 53.126579 
L 493.156718 53.102304 
L 497.452614 53.005204 
L 497.556268 52.689628 
L 497.705991 52.592528 
L 497.809645 52.422602 
L 497.878748 52.349777 
L 497.878748 52.325502 
L 497.982402 52.058476 
L 498.063022 51.961375 
L 498.109091 51.84 
L 498.109091 51.84 
" clip-path="url(#pf745914bd5)" style="fill: none; stroke: #4c72b0; stroke-width: 1.5; stroke-linecap: round"/>
   </g>
   <g id="patch_3">
    <path d="M 72 378 
L 72 51.84 
" style="fill: none; stroke: #ffffff; stroke-width: 1.25; stroke-linejoin: miter; stroke-linecap: square"/>
   </g>
   <g id="patch_4">
    <path d="M 518.4 378 
L 518.4 51.84 
" style="fill: none; stroke: #ffffff; stroke-width: 1.25; stroke-linejoin: miter; stroke-linecap: square"/>
   </g>
   <g id="patch_5">
    <path d="M 72 378 
L 518.4 378 
" style="fill: none; stroke: #ffffff; stroke-width: 1.25; stroke-linejoin: miter; stroke-linecap: square"/>
   </g>
   <g id="patch_6">
    <path d="M 72 51.84 
L 518.4 51.84 
" style="fill: none; stroke: #ffffff; stroke-width: 1.25; stroke-linejoin: miter; stroke-linecap: square"/>
   </g>
  </g>
 </g>
 <defs>
  <clipPath id="pf745914bd5">
   <rect x="72" y="51.84" width="446.4" height="326.16"/>
  </clipPath>
 </defs>
</svg>
