<?xml version="1.0" encoding="utf-8" standalone="no"?>
<!DOCTYPE svg PUBLIC "-//W3C//DTD SVG 1.1//EN"
  "http://www.w3.org/Graphics/SVG/1.1/DTD/svg11.dtd">
<svg xmlns:xlink="http://www.w3.org/1999/xlink" width="576pt" height="432pt" viewBox="0 0 576 432" xmlns="http://www.w3.org/2000/svg" version="1.1">
 <metadata>
  <rdf:RDF xmlns:dc="http://purl.org/dc/elements/1.1/" xmlns:cc="http://creativecommons.org/ns#" xmlns:rdf="http://www.w3.org/1999/02/22-rdf-syntax-ns#">
   <cc:Work>
    <dc:type rdf:resource="http://purl.org/dc/dcmitype/StillImage"/>
    <dc:date>2022-06-05T22:43:38.914570</dc:date>
    <dc:format>image/svg+xml</dc:format>
    <dc:creator>
     <cc:Agent>
      <dc:title>Matplotlib v3.5.1, https://matplotlib.org/</dc:title>
     </cc:Agent>
    </dc:creator>
   </cc:Work>
  </rdf:RDF>
 </metadata>
 <defs>
  <style type="text/css">*{stroke-linejoin: round; stroke-linecap: butt}</style>
 </defs>
 <g id="figure_1">
  <g id="patch_1">
   <path d="M 0 432 
L 576 432 
L 576 0 
L 0 0 
z
" style="fill: #ffffff"/>
  </g>
  <g id="axes_1">
   <g id="patch_2">
    <path d="M 72 378 
L 518.4 378 
L 518.4 51.84 
L 72 51.84 
z
" style="fill: #eaeaf2"/>
   </g>
   <g id="matplotlib.axis_1">
    <g id="xtick_1">
     <g id="line2d_1">
      <path d="M 92.021977 378 
L 92.021977 51.84 
" clip-path="url(#p7930794011)" style="fill: none; stroke: #ffffff; stroke-linecap: round"/>
     </g>
     <g id="line2d_2">
      <defs>
       <path id="m5ad1149e9c" d="M 0 0 
L 0 6 
" style="stroke: #262626; stroke-width: 1.25"/>
      </defs>
      <g>
       <use xlink:href="#m5ad1149e9c" x="92.021977" y="378" style="fill: #262626; stroke: #262626; stroke-width: 1.25"/>
      </g>
     </g>
     <g id="text_1">
      <!-- 0 -->
      <g style="fill: #262626" transform="translate(88.963462 395.373594)scale(0.11 -0.11)">
       <defs>
        <path id="ArialMT-30" d="M 266 2259 
Q 266 3072 433 3567 
Q 600 4063 929 4331 
Q 1259 4600 1759 4600 
Q 2128 4600 2406 4451 
Q 2684 4303 2865 4023 
Q 3047 3744 3150 3342 
Q 3253 2941 3253 2259 
Q 3253 1453 3087 958 
Q 2922 463 2592 192 
Q 2263 -78 1759 -78 
Q 1097 -78 719 397 
Q 266 969 266 2259 
z
M 844 2259 
Q 844 1131 1108 757 
Q 1372 384 1759 384 
Q 2147 384 2411 759 
Q 2675 1134 2675 2259 
Q 2675 3391 2411 3762 
Q 2147 4134 1753 4134 
Q 1366 4134 1134 3806 
Q 844 3388 844 2259 
z
" transform="scale(0.015625)"/>
       </defs>
       <use xlink:href="#ArialMT-30"/>
      </g>
     </g>
    </g>
    <g id="xtick_2">
     <g id="line2d_3">
      <path d="M 145.80835 378 
L 145.80835 51.84 
" clip-path="url(#p7930794011)" style="fill: none; stroke: #ffffff; stroke-linecap: round"/>
     </g>
     <g id="line2d_4">
      <g>
       <use xlink:href="#m5ad1149e9c" x="145.80835" y="378" style="fill: #262626; stroke: #262626; stroke-width: 1.25"/>
      </g>
     </g>
     <g id="text_2">
      <!-- 200 -->
      <g style="fill: #262626" transform="translate(136.632803 395.373594)scale(0.11 -0.11)">
       <defs>
        <path id="ArialMT-32" d="M 3222 541 
L 3222 0 
L 194 0 
Q 188 203 259 391 
Q 375 700 629 1000 
Q 884 1300 1366 1694 
Q 2113 2306 2375 2664 
Q 2638 3022 2638 3341 
Q 2638 3675 2398 3904 
Q 2159 4134 1775 4134 
Q 1369 4134 1125 3890 
Q 881 3647 878 3216 
L 300 3275 
Q 359 3922 746 4261 
Q 1134 4600 1788 4600 
Q 2447 4600 2831 4234 
Q 3216 3869 3216 3328 
Q 3216 3053 3103 2787 
Q 2991 2522 2730 2228 
Q 2469 1934 1863 1422 
Q 1356 997 1212 845 
Q 1069 694 975 541 
L 3222 541 
z
" transform="scale(0.015625)"/>
       </defs>
       <use xlink:href="#ArialMT-32"/>
       <use xlink:href="#ArialMT-30" x="55.615234"/>
       <use xlink:href="#ArialMT-30" x="111.230469"/>
      </g>
     </g>
    </g>
    <g id="xtick_3">
     <g id="line2d_5">
      <path d="M 199.594723 378 
L 199.594723 51.84 
" clip-path="url(#p7930794011)" style="fill: none; stroke: #ffffff; stroke-linecap: round"/>
     </g>
     <g id="line2d_6">
      <g>
       <use xlink:href="#m5ad1149e9c" x="199.594723" y="378" style="fill: #262626; stroke: #262626; stroke-width: 1.25"/>
      </g>
     </g>
     <g id="text_3">
      <!-- 400 -->
      <g style="fill: #262626" transform="translate(190.419176 395.373594)scale(0.11 -0.11)">
       <defs>
        <path id="ArialMT-34" d="M 2069 0 
L 2069 1097 
L 81 1097 
L 81 1613 
L 2172 4581 
L 2631 4581 
L 2631 1613 
L 3250 1613 
L 3250 1097 
L 2631 1097 
L 2631 0 
L 2069 0 
z
M 2069 1613 
L 2069 3678 
L 634 1613 
L 2069 1613 
z
" transform="scale(0.015625)"/>
       </defs>
       <use xlink:href="#ArialMT-34"/>
       <use xlink:href="#ArialMT-30" x="55.615234"/>
       <use xlink:href="#ArialMT-30" x="111.230469"/>
      </g>
     </g>
    </g>
    <g id="xtick_4">
     <g id="line2d_7">
      <path d="M 253.381095 378 
L 253.381095 51.84 
" clip-path="url(#p7930794011)" style="fill: none; stroke: #ffffff; stroke-linecap: round"/>
     </g>
     <g id="line2d_8">
      <g>
       <use xlink:href="#m5ad1149e9c" x="253.381095" y="378" style="fill: #262626; stroke: #262626; stroke-width: 1.25"/>
      </g>
     </g>
     <g id="text_4">
      <!-- 600 -->
      <g style="fill: #262626" transform="translate(244.205548 395.373594)scale(0.11 -0.11)">
       <defs>
        <path id="ArialMT-36" d="M 3184 3459 
L 2625 3416 
Q 2550 3747 2413 3897 
Q 2184 4138 1850 4138 
Q 1581 4138 1378 3988 
Q 1113 3794 959 3422 
Q 806 3050 800 2363 
Q 1003 2672 1297 2822 
Q 1591 2972 1913 2972 
Q 2475 2972 2870 2558 
Q 3266 2144 3266 1488 
Q 3266 1056 3080 686 
Q 2894 316 2569 119 
Q 2244 -78 1831 -78 
Q 1128 -78 684 439 
Q 241 956 241 2144 
Q 241 3472 731 4075 
Q 1159 4600 1884 4600 
Q 2425 4600 2770 4297 
Q 3116 3994 3184 3459 
z
M 888 1484 
Q 888 1194 1011 928 
Q 1134 663 1356 523 
Q 1578 384 1822 384 
Q 2178 384 2434 671 
Q 2691 959 2691 1453 
Q 2691 1928 2437 2201 
Q 2184 2475 1800 2475 
Q 1419 2475 1153 2201 
Q 888 1928 888 1484 
z
" transform="scale(0.015625)"/>
       </defs>
       <use xlink:href="#ArialMT-36"/>
       <use xlink:href="#ArialMT-30" x="55.615234"/>
       <use xlink:href="#ArialMT-30" x="111.230469"/>
      </g>
     </g>
    </g>
    <g id="xtick_5">
     <g id="line2d_9">
      <path d="M 307.167468 378 
L 307.167468 51.84 
" clip-path="url(#p7930794011)" style="fill: none; stroke: #ffffff; stroke-linecap: round"/>
     </g>
     <g id="line2d_10">
      <g>
       <use xlink:href="#m5ad1149e9c" x="307.167468" y="378" style="fill: #262626; stroke: #262626; stroke-width: 1.25"/>
      </g>
     </g>
     <g id="text_5">
      <!-- 800 -->
      <g style="fill: #262626" transform="translate(297.991921 395.373594)scale(0.11 -0.11)">
       <defs>
        <path id="ArialMT-38" d="M 1131 2484 
Q 781 2613 612 2850 
Q 444 3088 444 3419 
Q 444 3919 803 4259 
Q 1163 4600 1759 4600 
Q 2359 4600 2725 4251 
Q 3091 3903 3091 3403 
Q 3091 3084 2923 2848 
Q 2756 2613 2416 2484 
Q 2838 2347 3058 2040 
Q 3278 1734 3278 1309 
Q 3278 722 2862 322 
Q 2447 -78 1769 -78 
Q 1091 -78 675 323 
Q 259 725 259 1325 
Q 259 1772 486 2073 
Q 713 2375 1131 2484 
z
M 1019 3438 
Q 1019 3113 1228 2906 
Q 1438 2700 1772 2700 
Q 2097 2700 2305 2904 
Q 2513 3109 2513 3406 
Q 2513 3716 2298 3927 
Q 2084 4138 1766 4138 
Q 1444 4138 1231 3931 
Q 1019 3725 1019 3438 
z
M 838 1322 
Q 838 1081 952 856 
Q 1066 631 1291 507 
Q 1516 384 1775 384 
Q 2178 384 2440 643 
Q 2703 903 2703 1303 
Q 2703 1709 2433 1975 
Q 2163 2241 1756 2241 
Q 1359 2241 1098 1978 
Q 838 1716 838 1322 
z
" transform="scale(0.015625)"/>
       </defs>
       <use xlink:href="#ArialMT-38"/>
       <use xlink:href="#ArialMT-30" x="55.615234"/>
       <use xlink:href="#ArialMT-30" x="111.230469"/>
      </g>
     </g>
    </g>
    <g id="xtick_6">
     <g id="line2d_11">
      <path d="M 360.953841 378 
L 360.953841 51.84 
" clip-path="url(#p7930794011)" style="fill: none; stroke: #ffffff; stroke-linecap: round"/>
     </g>
     <g id="line2d_12">
      <g>
       <use xlink:href="#m5ad1149e9c" x="360.953841" y="378" style="fill: #262626; stroke: #262626; stroke-width: 1.25"/>
      </g>
     </g>
     <g id="text_6">
      <!-- 1000 -->
      <g style="fill: #262626" transform="translate(348.719778 395.373594)scale(0.11 -0.11)">
       <defs>
        <path id="ArialMT-31" d="M 2384 0 
L 1822 0 
L 1822 3584 
Q 1619 3391 1289 3197 
Q 959 3003 697 2906 
L 697 3450 
Q 1169 3672 1522 3987 
Q 1875 4303 2022 4600 
L 2384 4600 
L 2384 0 
z
" transform="scale(0.015625)"/>
       </defs>
       <use xlink:href="#ArialMT-31"/>
       <use xlink:href="#ArialMT-30" x="55.615234"/>
       <use xlink:href="#ArialMT-30" x="111.230469"/>
       <use xlink:href="#ArialMT-30" x="166.845703"/>
      </g>
     </g>
    </g>
    <g id="xtick_7">
     <g id="line2d_13">
      <path d="M 414.740213 378 
L 414.740213 51.84 
" clip-path="url(#p7930794011)" style="fill: none; stroke: #ffffff; stroke-linecap: round"/>
     </g>
     <g id="line2d_14">
      <g>
       <use xlink:href="#m5ad1149e9c" x="414.740213" y="378" style="fill: #262626; stroke: #262626; stroke-width: 1.25"/>
      </g>
     </g>
     <g id="text_7">
      <!-- 1200 -->
      <g style="fill: #262626" transform="translate(402.506151 395.373594)scale(0.11 -0.11)">
       <use xlink:href="#ArialMT-31"/>
       <use xlink:href="#ArialMT-32" x="55.615234"/>
       <use xlink:href="#ArialMT-30" x="111.230469"/>
       <use xlink:href="#ArialMT-30" x="166.845703"/>
      </g>
     </g>
    </g>
    <g id="xtick_8">
     <g id="line2d_15">
      <path d="M 468.526586 378 
L 468.526586 51.84 
" clip-path="url(#p7930794011)" style="fill: none; stroke: #ffffff; stroke-linecap: round"/>
     </g>
     <g id="line2d_16">
      <g>
       <use xlink:href="#m5ad1149e9c" x="468.526586" y="378" style="fill: #262626; stroke: #262626; stroke-width: 1.25"/>
      </g>
     </g>
     <g id="text_8">
      <!-- 1400 -->
      <g style="fill: #262626" transform="translate(456.292523 395.373594)scale(0.11 -0.11)">
       <use xlink:href="#ArialMT-31"/>
       <use xlink:href="#ArialMT-34" x="55.615234"/>
       <use xlink:href="#ArialMT-30" x="111.230469"/>
       <use xlink:href="#ArialMT-30" x="166.845703"/>
      </g>
     </g>
    </g>
    <g id="text_9">
     <!-- linearization_size -->
     <g style="fill: #262626" transform="translate(249.177188 410.149219)scale(0.12 -0.12)">
      <defs>
       <path id="ArialMT-6c" d="M 409 0 
L 409 4581 
L 972 4581 
L 972 0 
L 409 0 
z
" transform="scale(0.015625)"/>
       <path id="ArialMT-69" d="M 425 3934 
L 425 4581 
L 988 4581 
L 988 3934 
L 425 3934 
z
M 425 0 
L 425 3319 
L 988 3319 
L 988 0 
L 425 0 
z
" transform="scale(0.015625)"/>
       <path id="ArialMT-6e" d="M 422 0 
L 422 3319 
L 928 3319 
L 928 2847 
Q 1294 3394 1984 3394 
Q 2284 3394 2536 3286 
Q 2788 3178 2913 3003 
Q 3038 2828 3088 2588 
Q 3119 2431 3119 2041 
L 3119 0 
L 2556 0 
L 2556 2019 
Q 2556 2363 2490 2533 
Q 2425 2703 2258 2804 
Q 2091 2906 1866 2906 
Q 1506 2906 1245 2678 
Q 984 2450 984 1813 
L 984 0 
L 422 0 
z
" transform="scale(0.015625)"/>
       <path id="ArialMT-65" d="M 2694 1069 
L 3275 997 
Q 3138 488 2766 206 
Q 2394 -75 1816 -75 
Q 1088 -75 661 373 
Q 234 822 234 1631 
Q 234 2469 665 2931 
Q 1097 3394 1784 3394 
Q 2450 3394 2872 2941 
Q 3294 2488 3294 1666 
Q 3294 1616 3291 1516 
L 816 1516 
Q 847 969 1125 678 
Q 1403 388 1819 388 
Q 2128 388 2347 550 
Q 2566 713 2694 1069 
z
M 847 1978 
L 2700 1978 
Q 2663 2397 2488 2606 
Q 2219 2931 1791 2931 
Q 1403 2931 1139 2672 
Q 875 2413 847 1978 
z
" transform="scale(0.015625)"/>
       <path id="ArialMT-61" d="M 2588 409 
Q 2275 144 1986 34 
Q 1697 -75 1366 -75 
Q 819 -75 525 192 
Q 231 459 231 875 
Q 231 1119 342 1320 
Q 453 1522 633 1644 
Q 813 1766 1038 1828 
Q 1203 1872 1538 1913 
Q 2219 1994 2541 2106 
Q 2544 2222 2544 2253 
Q 2544 2597 2384 2738 
Q 2169 2928 1744 2928 
Q 1347 2928 1158 2789 
Q 969 2650 878 2297 
L 328 2372 
Q 403 2725 575 2942 
Q 747 3159 1072 3276 
Q 1397 3394 1825 3394 
Q 2250 3394 2515 3294 
Q 2781 3194 2906 3042 
Q 3031 2891 3081 2659 
Q 3109 2516 3109 2141 
L 3109 1391 
Q 3109 606 3145 398 
Q 3181 191 3288 0 
L 2700 0 
Q 2613 175 2588 409 
z
M 2541 1666 
Q 2234 1541 1622 1453 
Q 1275 1403 1131 1340 
Q 988 1278 909 1158 
Q 831 1038 831 891 
Q 831 666 1001 516 
Q 1172 366 1500 366 
Q 1825 366 2078 508 
Q 2331 650 2450 897 
Q 2541 1088 2541 1459 
L 2541 1666 
z
" transform="scale(0.015625)"/>
       <path id="ArialMT-72" d="M 416 0 
L 416 3319 
L 922 3319 
L 922 2816 
Q 1116 3169 1280 3281 
Q 1444 3394 1641 3394 
Q 1925 3394 2219 3213 
L 2025 2691 
Q 1819 2813 1613 2813 
Q 1428 2813 1281 2702 
Q 1134 2591 1072 2394 
Q 978 2094 978 1738 
L 978 0 
L 416 0 
z
" transform="scale(0.015625)"/>
       <path id="ArialMT-7a" d="M 125 0 
L 125 456 
L 2238 2881 
Q 1878 2863 1603 2863 
L 250 2863 
L 250 3319 
L 2963 3319 
L 2963 2947 
L 1166 841 
L 819 456 
Q 1197 484 1528 484 
L 3063 484 
L 3063 0 
L 125 0 
z
" transform="scale(0.015625)"/>
       <path id="ArialMT-74" d="M 1650 503 
L 1731 6 
Q 1494 -44 1306 -44 
Q 1000 -44 831 53 
Q 663 150 594 308 
Q 525 466 525 972 
L 525 2881 
L 113 2881 
L 113 3319 
L 525 3319 
L 525 4141 
L 1084 4478 
L 1084 3319 
L 1650 3319 
L 1650 2881 
L 1084 2881 
L 1084 941 
Q 1084 700 1114 631 
Q 1144 563 1211 522 
Q 1278 481 1403 481 
Q 1497 481 1650 503 
z
" transform="scale(0.015625)"/>
       <path id="ArialMT-6f" d="M 213 1659 
Q 213 2581 725 3025 
Q 1153 3394 1769 3394 
Q 2453 3394 2887 2945 
Q 3322 2497 3322 1706 
Q 3322 1066 3130 698 
Q 2938 331 2570 128 
Q 2203 -75 1769 -75 
Q 1072 -75 642 372 
Q 213 819 213 1659 
z
M 791 1659 
Q 791 1022 1069 705 
Q 1347 388 1769 388 
Q 2188 388 2466 706 
Q 2744 1025 2744 1678 
Q 2744 2294 2464 2611 
Q 2184 2928 1769 2928 
Q 1347 2928 1069 2612 
Q 791 2297 791 1659 
z
" transform="scale(0.015625)"/>
       <path id="ArialMT-5f" d="M -97 -1272 
L -97 -866 
L 3631 -866 
L 3631 -1272 
L -97 -1272 
z
" transform="scale(0.015625)"/>
       <path id="ArialMT-73" d="M 197 991 
L 753 1078 
Q 800 744 1014 566 
Q 1228 388 1613 388 
Q 2000 388 2187 545 
Q 2375 703 2375 916 
Q 2375 1106 2209 1216 
Q 2094 1291 1634 1406 
Q 1016 1563 777 1677 
Q 538 1791 414 1992 
Q 291 2194 291 2438 
Q 291 2659 392 2848 
Q 494 3038 669 3163 
Q 800 3259 1026 3326 
Q 1253 3394 1513 3394 
Q 1903 3394 2198 3281 
Q 2494 3169 2634 2976 
Q 2775 2784 2828 2463 
L 2278 2388 
Q 2241 2644 2061 2787 
Q 1881 2931 1553 2931 
Q 1166 2931 1000 2803 
Q 834 2675 834 2503 
Q 834 2394 903 2306 
Q 972 2216 1119 2156 
Q 1203 2125 1616 2013 
Q 2213 1853 2448 1751 
Q 2684 1650 2818 1456 
Q 2953 1263 2953 975 
Q 2953 694 2789 445 
Q 2625 197 2315 61 
Q 2006 -75 1616 -75 
Q 969 -75 630 194 
Q 291 463 197 991 
z
" transform="scale(0.015625)"/>
      </defs>
      <use xlink:href="#ArialMT-6c"/>
      <use xlink:href="#ArialMT-69" x="22.216797"/>
      <use xlink:href="#ArialMT-6e" x="44.433594"/>
      <use xlink:href="#ArialMT-65" x="100.048828"/>
      <use xlink:href="#ArialMT-61" x="155.664062"/>
      <use xlink:href="#ArialMT-72" x="211.279297"/>
      <use xlink:href="#ArialMT-69" x="244.580078"/>
      <use xlink:href="#ArialMT-7a" x="266.796875"/>
      <use xlink:href="#ArialMT-61" x="316.796875"/>
      <use xlink:href="#ArialMT-74" x="372.412109"/>
      <use xlink:href="#ArialMT-69" x="400.195312"/>
      <use xlink:href="#ArialMT-6f" x="422.412109"/>
      <use xlink:href="#ArialMT-6e" x="478.027344"/>
      <use xlink:href="#ArialMT-5f" x="533.642578"/>
      <use xlink:href="#ArialMT-73" x="589.257812"/>
      <use xlink:href="#ArialMT-69" x="639.257812"/>
      <use xlink:href="#ArialMT-7a" x="661.474609"/>
      <use xlink:href="#ArialMT-65" x="711.474609"/>
     </g>
    </g>
   </g>
   <g id="matplotlib.axis_2">
    <g id="ytick_1">
     <g id="line2d_17">
      <path d="M 72 378 
L 518.4 378 
" clip-path="url(#p7930794011)" style="fill: none; stroke: #ffffff; stroke-linecap: round"/>
     </g>
     <g id="text_10">
      <!-- 0.0 -->
      <g style="fill: #262626" transform="translate(47.21 381.936797)scale(0.11 -0.11)">
       <defs>
        <path id="ArialMT-2e" d="M 581 0 
L 581 641 
L 1222 641 
L 1222 0 
L 581 0 
z
" transform="scale(0.015625)"/>
       </defs>
       <use xlink:href="#ArialMT-30"/>
       <use xlink:href="#ArialMT-2e" x="55.615234"/>
       <use xlink:href="#ArialMT-30" x="83.398438"/>
      </g>
     </g>
    </g>
    <g id="ytick_2">
     <g id="line2d_18">
      <path d="M 72 312.768 
L 518.4 312.768 
" clip-path="url(#p7930794011)" style="fill: none; stroke: #ffffff; stroke-linecap: round"/>
     </g>
     <g id="text_11">
      <!-- 0.2 -->
      <g style="fill: #262626" transform="translate(47.21 316.704797)scale(0.11 -0.11)">
       <use xlink:href="#ArialMT-30"/>
       <use xlink:href="#ArialMT-2e" x="55.615234"/>
       <use xlink:href="#ArialMT-32" x="83.398438"/>
      </g>
     </g>
    </g>
    <g id="ytick_3">
     <g id="line2d_19">
      <path d="M 72 247.536 
L 518.4 247.536 
" clip-path="url(#p7930794011)" style="fill: none; stroke: #ffffff; stroke-linecap: round"/>
     </g>
     <g id="text_12">
      <!-- 0.4 -->
      <g style="fill: #262626" transform="translate(47.21 251.472797)scale(0.11 -0.11)">
       <use xlink:href="#ArialMT-30"/>
       <use xlink:href="#ArialMT-2e" x="55.615234"/>
       <use xlink:href="#ArialMT-34" x="83.398438"/>
      </g>
     </g>
    </g>
    <g id="ytick_4">
     <g id="line2d_20">
      <path d="M 72 182.304 
L 518.4 182.304 
" clip-path="url(#p7930794011)" style="fill: none; stroke: #ffffff; stroke-linecap: round"/>
     </g>
     <g id="text_13">
      <!-- 0.6 -->
      <g style="fill: #262626" transform="translate(47.21 186.240797)scale(0.11 -0.11)">
       <use xlink:href="#ArialMT-30"/>
       <use xlink:href="#ArialMT-2e" x="55.615234"/>
       <use xlink:href="#ArialMT-36" x="83.398438"/>
      </g>
     </g>
    </g>
    <g id="ytick_5">
     <g id="line2d_21">
      <path d="M 72 117.072 
L 518.4 117.072 
" clip-path="url(#p7930794011)" style="fill: none; stroke: #ffffff; stroke-linecap: round"/>
     </g>
     <g id="text_14">
      <!-- 0.8 -->
      <g style="fill: #262626" transform="translate(47.21 121.008797)scale(0.11 -0.11)">
       <use xlink:href="#ArialMT-30"/>
       <use xlink:href="#ArialMT-2e" x="55.615234"/>
       <use xlink:href="#ArialMT-38" x="83.398438"/>
      </g>
     </g>
    </g>
    <g id="ytick_6">
     <g id="line2d_22">
      <path d="M 72 51.84 
L 518.4 51.84 
" clip-path="url(#p7930794011)" style="fill: none; stroke: #ffffff; stroke-linecap: round"/>
     </g>
     <g id="text_15">
      <!-- 1.0 -->
      <g style="fill: #262626" transform="translate(47.21 55.776797)scale(0.11 -0.11)">
       <use xlink:href="#ArialMT-31"/>
       <use xlink:href="#ArialMT-2e" x="55.615234"/>
       <use xlink:href="#ArialMT-30" x="83.398438"/>
      </g>
     </g>
    </g>
    <g id="text_16">
     <!-- Proportion -->
     <g style="fill: #262626" transform="translate(40.825 242.600625)rotate(-90)scale(0.12 -0.12)">
      <defs>
       <path id="ArialMT-50" d="M 494 0 
L 494 4581 
L 2222 4581 
Q 2678 4581 2919 4538 
Q 3256 4481 3484 4323 
Q 3713 4166 3852 3881 
Q 3991 3597 3991 3256 
Q 3991 2672 3619 2267 
Q 3247 1863 2275 1863 
L 1100 1863 
L 1100 0 
L 494 0 
z
M 1100 2403 
L 2284 2403 
Q 2872 2403 3119 2622 
Q 3366 2841 3366 3238 
Q 3366 3525 3220 3729 
Q 3075 3934 2838 4000 
Q 2684 4041 2272 4041 
L 1100 4041 
L 1100 2403 
z
" transform="scale(0.015625)"/>
       <path id="ArialMT-70" d="M 422 -1272 
L 422 3319 
L 934 3319 
L 934 2888 
Q 1116 3141 1344 3267 
Q 1572 3394 1897 3394 
Q 2322 3394 2647 3175 
Q 2972 2956 3137 2557 
Q 3303 2159 3303 1684 
Q 3303 1175 3120 767 
Q 2938 359 2589 142 
Q 2241 -75 1856 -75 
Q 1575 -75 1351 44 
Q 1128 163 984 344 
L 984 -1272 
L 422 -1272 
z
M 931 1641 
Q 931 1000 1190 694 
Q 1450 388 1819 388 
Q 2194 388 2461 705 
Q 2728 1022 2728 1688 
Q 2728 2322 2467 2637 
Q 2206 2953 1844 2953 
Q 1484 2953 1207 2617 
Q 931 2281 931 1641 
z
" transform="scale(0.015625)"/>
      </defs>
      <use xlink:href="#ArialMT-50"/>
      <use xlink:href="#ArialMT-72" x="66.699219"/>
      <use xlink:href="#ArialMT-6f" x="100"/>
      <use xlink:href="#ArialMT-70" x="155.615234"/>
      <use xlink:href="#ArialMT-6f" x="211.230469"/>
      <use xlink:href="#ArialMT-72" x="266.845703"/>
      <use xlink:href="#ArialMT-74" x="300.146484"/>
      <use xlink:href="#ArialMT-69" x="327.929688"/>
      <use xlink:href="#ArialMT-6f" x="350.146484"/>
      <use xlink:href="#ArialMT-6e" x="405.761719"/>
     </g>
    </g>
   </g>
   <g id="line2d_23">
    <path d="M 92.290909 378 
L 92.290909 285.568136 
L 92.559841 285.568136 
L 92.559841 285.303289 
L 92.828773 285.303289 
L 92.828773 274.841803 
L 93.097705 274.841803 
L 93.097705 272.723021 
L 93.366637 272.723021 
L 93.366637 268.088185 
L 93.635568 268.088185 
L 93.635568 267.823337 
L 93.9045 267.823337 
L 93.9045 264.512741 
L 94.173432 264.512741 
L 94.173432 251.005505 
L 94.442364 251.005505 
L 94.442364 250.608234 
L 94.711296 250.608234 
L 94.711296 249.151571 
L 94.980228 249.151571 
L 94.980228 243.192497 
L 95.24916 243.192497 
L 95.24916 242.530378 
L 95.518091 242.530378 
L 95.518091 242.133106 
L 96.324887 242.133106 
L 96.324887 239.484629 
L 96.593819 239.484629 
L 96.593819 238.292814 
L 96.862751 238.292814 
L 96.862751 236.174032 
L 97.131683 236.174032 
L 97.131683 235.247065 
L 97.400614 235.247065 
L 97.400614 226.639513 
L 97.669546 226.639513 
L 97.669546 220.548015 
L 97.938478 220.548015 
L 97.938478 220.415591 
L 98.20741 220.415591 
L 98.20741 217.899537 
L 98.745274 217.899537 
L 98.745274 217.104994 
L 99.014206 217.104994 
L 99.014206 216.310451 
L 99.283138 216.310451 
L 99.283138 214.191669 
L 99.552069 214.191669 
L 99.552069 209.291985 
L 99.821001 209.291985 
L 99.821001 208.497442 
L 100.089933 208.497442 
L 100.089933 207.438051 
L 100.358865 207.438051 
L 100.358865 207.04078 
L 100.627797 207.04078 
L 100.627797 206.908356 
L 100.896729 206.908356 
L 100.896729 205.981389 
L 101.165661 205.981389 
L 101.165661 205.848965 
L 101.434592 205.848965 
L 101.434592 205.451693 
L 101.972456 205.451693 
L 101.972456 204.127454 
L 103.048184 204.127454 
L 103.048184 203.730183 
L 103.317115 203.730183 
L 103.317115 203.597759 
L 106.81323 203.597759 
L 106.81323 203.465335 
L 108.157889 203.465335 
L 108.157889 198.035956 
L 109.233616 198.035956 
L 109.233616 194.06324 
L 111.654003 194.06324 
L 111.654003 192.34173 
L 111.922935 192.34173 
L 111.922935 187.309622 
L 112.191867 187.309622 
L 112.191867 187.177199 
L 112.460799 187.177199 
L 112.460799 181.350548 
L 112.998663 181.350548 
L 112.998663 172.742996 
L 113.267594 172.742996 
L 113.267594 171.418758 
L 113.805458 171.418758 
L 113.805458 171.15391 
L 114.07439 171.15391 
L 114.07439 168.108161 
L 114.612254 168.108161 
L 114.612254 166.916346 
L 114.881186 166.916346 
L 114.881186 166.783922 
L 115.150117 166.783922 
L 115.150117 166.38665 
L 115.687981 166.38665 
L 115.687981 165.327259 
L 115.956913 165.327259 
L 115.956913 163.605749 
L 116.225845 163.605749 
L 116.225845 163.473325 
L 116.494777 163.473325 
L 116.494777 162.546358 
L 116.763709 162.546358 
L 116.763709 158.83849 
L 118.108368 158.83849 
L 118.108368 158.573642 
L 118.3773 158.573642 
L 118.3773 158.441218 
L 118.646232 158.441218 
L 118.646232 158.043946 
L 118.915164 158.043946 
L 118.915164 155.395469 
L 119.721959 155.395469 
L 119.721959 154.336078 
L 120.259823 154.336078 
L 120.259823 150.893057 
L 120.528755 150.893057 
L 120.528755 147.58246 
L 120.797687 147.58246 
L 120.797687 145.86095 
L 121.066618 145.86095 
L 121.066618 145.728526 
L 121.604482 145.728526 
L 121.604482 144.536711 
L 122.142346 144.536711 
L 122.142346 143.874592 
L 122.68021 143.874592 
L 122.68021 143.742168 
L 122.949142 143.742168 
L 122.949142 143.47732 
L 123.218073 143.47732 
L 123.218073 142.815201 
L 123.487005 142.815201 
L 123.487005 142.682777 
L 123.755937 142.682777 
L 123.755937 140.696419 
L 124.024869 140.696419 
L 124.024869 139.769452 
L 124.293801 139.769452 
L 124.293801 139.107333 
L 124.562733 139.107333 
L 124.562733 138.710061 
L 124.831665 138.710061 
L 124.831665 138.047942 
L 125.100596 138.047942 
L 125.100596 136.061583 
L 125.369528 136.061583 
L 125.369528 135.399464 
L 125.63846 135.399464 
L 125.63846 134.472497 
L 125.907392 134.472497 
L 125.907392 134.340073 
L 126.176324 134.340073 
L 126.176324 134.075225 
L 126.445256 134.075225 
L 126.445256 131.824019 
L 126.714188 131.824019 
L 126.714188 131.426748 
L 126.983119 131.426748 
L 126.983119 130.764629 
L 127.252051 130.764629 
L 127.252051 129.44039 
L 127.520983 129.44039 
L 127.520983 128.248575 
L 127.789915 128.248575 
L 127.789915 128.116151 
L 128.058847 128.116151 
L 128.058847 127.189184 
L 128.865643 127.189184 
L 128.865643 126.924336 
L 137.471462 126.924336 
L 137.471462 126.659488 
L 137.740394 126.659488 
L 137.740394 126.394641 
L 138.816121 126.394641 
L 138.816121 126.262217 
L 139.085053 126.262217 
L 139.085053 126.129793 
L 139.353985 126.129793 
L 139.353985 125.997369 
L 140.429713 125.997369 
L 140.429713 125.33525 
L 141.236508 125.33525 
L 141.236508 124.937978 
L 141.50544 124.937978 
L 141.50544 123.216468 
L 141.774372 123.216468 
L 141.774372 123.084044 
L 142.043304 123.084044 
L 142.043304 122.95162 
L 142.312236 122.95162 
L 142.312236 122.819196 
L 142.581168 122.819196 
L 142.581168 122.554348 
L 142.850099 122.554348 
L 142.850099 120.832838 
L 144.463691 120.832838 
L 144.463691 120.700414 
L 145.001554 120.700414 
L 145.001554 120.435566 
L 145.539418 120.435566 
L 145.539418 119.111328 
L 147.690873 119.111328 
L 147.690873 118.714056 
L 147.959805 118.714056 
L 147.959805 93.023825 
L 148.228737 93.023825 
L 148.228737 92.891401 
L 149.304464 92.891401 
L 149.304464 92.494129 
L 154.952033 92.494129 
L 154.952033 91.434738 
L 155.489897 91.434738 
L 155.489897 91.302314 
L 155.758829 91.302314 
L 155.758829 91.16989 
L 157.37242 91.16989 
L 157.37242 91.037467 
L 158.986011 91.037467 
L 158.986011 90.772619 
L 159.523875 90.772619 
L 159.523875 89.44838 
L 160.868534 89.44838 
L 160.868534 89.315956 
L 165.97824 89.315956 
L 165.97824 88.918685 
L 166.247172 88.918685 
L 166.247172 88.653837 
L 166.516103 88.653837 
L 166.516103 87.859294 
L 167.053967 87.859294 
L 167.053967 87.462022 
L 168.129695 87.462022 
L 168.129695 87.329598 
L 169.743286 87.329598 
L 169.743286 86.932326 
L 170.281149 86.932326 
L 170.281149 85.475664 
L 171.356877 85.475664 
L 171.356877 84.945968 
L 172.163673 84.945968 
L 172.163673 84.548697 
L 173.508332 84.548697 
L 173.508332 84.151425 
L 174.046196 84.151425 
L 174.046196 81.2381 
L 174.315127 81.2381 
L 174.315127 80.708404 
L 174.584059 80.708404 
L 174.584059 79.251742 
L 175.121923 79.251742 
L 175.121923 78.589622 
L 176.19765 78.589622 
L 176.19765 77.927503 
L 176.735514 77.927503 
L 176.735514 77.662655 
L 177.273378 77.662655 
L 177.273378 76.868112 
L 179.693765 76.868112 
L 179.693765 76.603264 
L 180.231628 76.603264 
L 180.231628 76.205993 
L 180.769492 76.205993 
L 180.769492 74.881754 
L 183.189879 74.881754 
L 183.189879 71.968429 
L 183.727743 71.968429 
L 183.727743 71.438733 
L 184.534538 71.438733 
L 184.534538 71.041462 
L 192.871426 71.041462 
L 192.871426 67.863289 
L 193.140358 67.863289 
L 193.140358 66.803898 
L 193.678222 66.803898 
L 193.678222 66.274202 
L 193.947153 66.274202 
L 193.947153 66.141778 
L 194.216085 66.141778 
L 194.216085 65.479659 
L 194.485017 65.479659 
L 194.485017 65.347235 
L 195.022881 65.347235 
L 195.022881 65.214811 
L 195.560745 65.214811 
L 195.560745 65.082387 
L 196.098608 65.082387 
L 196.098608 62.963605 
L 196.36754 62.963605 
L 196.36754 61.904214 
L 196.905404 61.904214 
L 196.905404 61.77179 
L 197.443268 61.77179 
L 197.443268 61.639367 
L 199.325791 61.639367 
L 199.325791 61.506943 
L 200.132586 61.506943 
L 200.132586 59.123313 
L 202.284041 59.123313 
L 202.284041 58.990889 
L 203.359769 58.990889 
L 203.359769 58.461194 
L 203.628701 58.461194 
L 203.628701 58.32877 
L 203.897632 58.32877 
L 203.897632 58.196346 
L 204.435496 58.196346 
L 204.435496 58.063922 
L 209.27627 58.063922 
L 209.27627 57.136955 
L 210.083065 57.136955 
L 210.083065 57.004531 
L 221.109272 57.004531 
L 221.109272 55.150597 
L 221.378204 55.150597 
L 221.378204 54.488477 
L 239.127706 54.488477 
L 239.127706 52.766967 
L 248.002458 52.766967 
L 248.002458 52.502119 
L 248.540322 52.502119 
L 248.540322 52.237272 
L 497.033363 52.237272 
L 497.033363 51.972424 
L 498.109091 51.972424 
L 498.109091 51.84 
L 498.109091 51.84 
" clip-path="url(#p7930794011)" style="fill: none; stroke: #c44e52; stroke-width: 1.5; stroke-linecap: round"/>
   </g>
   <g id="line2d_24">
    <path d="M 115.956913 378 
L 115.956913 371.343673 
L 115.956913 371.343673 
L 115.956913 364.687347 
L 124.831665 364.687347 
L 124.831665 358.03102 
L 124.831665 358.03102 
L 124.831665 351.374694 
L 146.615145 351.374694 
L 146.615145 344.718367 
L 146.615145 344.718367 
L 146.615145 338.062041 
L 146.615145 338.062041 
L 146.615145 331.405714 
L 146.615145 331.405714 
L 146.615145 324.749388 
L 146.615145 324.749388 
L 146.615145 318.093061 
L 146.615145 318.093061 
L 146.615145 311.436735 
L 146.615145 311.436735 
L 146.615145 304.780408 
L 146.615145 304.780408 
L 146.615145 298.124082 
L 146.615145 298.124082 
L 146.615145 291.467755 
L 147.959805 291.467755 
L 147.959805 284.811429 
L 147.959805 284.811429 
L 147.959805 278.155102 
L 147.959805 278.155102 
L 147.959805 271.498776 
L 170.281149 271.498776 
L 170.281149 264.842449 
L 170.281149 264.842449 
L 170.281149 258.186122 
L 170.281149 258.186122 
L 170.281149 251.529796 
L 170.281149 251.529796 
L 170.281149 244.873469 
L 170.281149 244.873469 
L 170.281149 238.217143 
L 170.281149 238.217143 
L 170.281149 231.560816 
L 184.534538 231.560816 
L 184.534538 224.90449 
L 184.534538 224.90449 
L 184.534538 218.248163 
L 184.534538 218.248163 
L 184.534538 211.591837 
L 184.534538 211.591837 
L 184.534538 204.93551 
L 184.534538 204.93551 
L 184.534538 198.279184 
L 184.534538 198.279184 
L 184.534538 191.622857 
L 184.534538 191.622857 
L 184.534538 184.966531 
L 184.534538 184.966531 
L 184.534538 178.310204 
L 184.534538 178.310204 
L 184.534538 171.653878 
L 184.534538 171.653878 
L 184.534538 164.997551 
L 184.534538 164.997551 
L 184.534538 158.341224 
L 184.534538 158.341224 
L 184.534538 151.684898 
L 497.033363 151.684898 
L 497.033363 145.028571 
L 497.033363 145.028571 
L 497.033363 138.372245 
L 497.033363 138.372245 
L 497.033363 131.715918 
L 497.033363 131.715918 
L 497.033363 125.059592 
L 497.033363 125.059592 
L 497.033363 118.403265 
L 497.033363 118.403265 
L 497.033363 111.746939 
L 497.033363 111.746939 
L 497.033363 105.090612 
L 497.033363 105.090612 
L 497.033363 98.434286 
L 497.033363 98.434286 
L 497.033363 91.777959 
L 497.033363 91.777959 
L 497.033363 85.121633 
L 497.033363 85.121633 
L 497.033363 78.465306 
L 497.033363 78.465306 
L 497.033363 71.80898 
L 497.033363 71.80898 
L 497.033363 65.152653 
L 497.033363 65.152653 
L 497.033363 58.496327 
L 497.033363 58.496327 
L 497.033363 51.84 
" clip-path="url(#p7930794011)" style="fill: none; stroke: #55a868; stroke-width: 1.5; stroke-linecap: round"/>
   </g>
   <g id="line2d_25">
    <path d="M 92.290909 378 
L 92.290909 359.1552 
L 94.173432 359.1552 
L 94.173432 357.7056 
L 115.956913 357.7056 
L 115.956913 350.4576 
L 124.831665 350.4576 
L 124.831665 349.008 
L 146.615145 349.008 
L 146.615145 344.6592 
L 147.959805 344.6592 
L 147.959805 341.76 
L 170.281149 341.76 
L 170.281149 256.2336 
L 171.625809 256.2336 
L 171.625809 253.3344 
L 173.508332 253.3344 
L 173.508332 250.4352 
L 174.315127 250.4352 
L 174.315127 246.0864 
L 174.584059 246.0864 
L 174.584059 238.8384 
L 176.19765 238.8384 
L 176.19765 237.3888 
L 180.769492 237.3888 
L 180.769492 222.8928 
L 184.534538 222.8928 
L 184.534538 59.088 
L 497.033363 59.088 
L 497.033363 51.84 
L 497.033363 51.84 
" clip-path="url(#p7930794011)" style="fill: none; stroke: #dd8452; stroke-width: 1.5; stroke-linecap: round"/>
   </g>
   <g id="line2d_26">
    <path d="M 115.956913 378 
L 115.956913 367.964308 
L 124.831665 367.964308 
L 124.831665 347.892923 
L 126.176324 347.892923 
L 126.176324 342.875077 
L 146.615145 342.875077 
L 146.615145 322.803692 
L 147.959805 322.803692 
L 147.959805 307.750154 
L 166.516103 307.750154 
L 166.516103 297.714462 
L 170.281149 297.714462 
L 170.281149 192.339692 
L 174.046196 192.339692 
L 174.046196 187.321846 
L 174.315127 187.321846 
L 174.315127 172.268308 
L 174.584059 172.268308 
L 174.584059 167.250462 
L 180.769492 167.250462 
L 180.769492 157.214769 
L 184.534538 157.214769 
L 184.534538 117.072 
L 497.033363 117.072 
L 497.033363 51.84 
L 497.033363 51.84 
" clip-path="url(#p7930794011)" style="fill: none; stroke: #4c72b0; stroke-width: 1.5; stroke-linecap: round"/>
   </g>
   <g id="patch_3">
    <path d="M 72 378 
L 72 51.84 
" style="fill: none; stroke: #ffffff; stroke-width: 1.25; stroke-linejoin: miter; stroke-linecap: square"/>
   </g>
   <g id="patch_4">
    <path d="M 518.4 378 
L 518.4 51.84 
" style="fill: none; stroke: #ffffff; stroke-width: 1.25; stroke-linejoin: miter; stroke-linecap: square"/>
   </g>
   <g id="patch_5">
    <path d="M 72 378 
L 518.4 378 
" style="fill: none; stroke: #ffffff; stroke-width: 1.25; stroke-linejoin: miter; stroke-linecap: square"/>
   </g>
   <g id="patch_6">
    <path d="M 72 51.84 
L 518.4 51.84 
" style="fill: none; stroke: #ffffff; stroke-width: 1.25; stroke-linejoin: miter; stroke-linecap: square"/>
   </g>
   <g id="legend_1">
    <g id="patch_7">
     <path d="M 351.3925 372.5 
L 510.7 372.5 
Q 512.9 372.5 512.9 370.3 
L 512.9 292.552188 
Q 512.9 290.352188 510.7 290.352188 
L 351.3925 290.352188 
Q 349.1925 290.352188 349.1925 292.552188 
L 349.1925 370.3 
Q 349.1925 372.5 351.3925 372.5 
z
" style="fill: #eaeaf2; opacity: 0.8; stroke: #cccccc; stroke-linejoin: miter"/>
    </g>
    <g id="text_17">
     <!-- method -->
     <g style="fill: #262626" transform="translate(411.035312 303.341563)scale(0.12 -0.12)">
      <defs>
       <path id="ArialMT-6d" d="M 422 0 
L 422 3319 
L 925 3319 
L 925 2853 
Q 1081 3097 1340 3245 
Q 1600 3394 1931 3394 
Q 2300 3394 2536 3241 
Q 2772 3088 2869 2813 
Q 3263 3394 3894 3394 
Q 4388 3394 4653 3120 
Q 4919 2847 4919 2278 
L 4919 0 
L 4359 0 
L 4359 2091 
Q 4359 2428 4304 2576 
Q 4250 2725 4106 2815 
Q 3963 2906 3769 2906 
Q 3419 2906 3187 2673 
Q 2956 2441 2956 1928 
L 2956 0 
L 2394 0 
L 2394 2156 
Q 2394 2531 2256 2718 
Q 2119 2906 1806 2906 
Q 1569 2906 1367 2781 
Q 1166 2656 1075 2415 
Q 984 2175 984 1722 
L 984 0 
L 422 0 
z
" transform="scale(0.015625)"/>
       <path id="ArialMT-68" d="M 422 0 
L 422 4581 
L 984 4581 
L 984 2938 
Q 1378 3394 1978 3394 
Q 2347 3394 2619 3248 
Q 2891 3103 3008 2847 
Q 3125 2591 3125 2103 
L 3125 0 
L 2563 0 
L 2563 2103 
Q 2563 2525 2380 2717 
Q 2197 2909 1863 2909 
Q 1613 2909 1392 2779 
Q 1172 2650 1078 2428 
Q 984 2206 984 1816 
L 984 0 
L 422 0 
z
" transform="scale(0.015625)"/>
       <path id="ArialMT-64" d="M 2575 0 
L 2575 419 
Q 2259 -75 1647 -75 
Q 1250 -75 917 144 
Q 584 363 401 755 
Q 219 1147 219 1656 
Q 219 2153 384 2558 
Q 550 2963 881 3178 
Q 1213 3394 1622 3394 
Q 1922 3394 2156 3267 
Q 2391 3141 2538 2938 
L 2538 4581 
L 3097 4581 
L 3097 0 
L 2575 0 
z
M 797 1656 
Q 797 1019 1065 703 
Q 1334 388 1700 388 
Q 2069 388 2326 689 
Q 2584 991 2584 1609 
Q 2584 2291 2321 2609 
Q 2059 2928 1675 2928 
Q 1300 2928 1048 2622 
Q 797 2316 797 1656 
z
" transform="scale(0.015625)"/>
      </defs>
      <use xlink:href="#ArialMT-6d"/>
      <use xlink:href="#ArialMT-65" x="83.300781"/>
      <use xlink:href="#ArialMT-74" x="138.916016"/>
      <use xlink:href="#ArialMT-68" x="166.699219"/>
      <use xlink:href="#ArialMT-6f" x="222.314453"/>
      <use xlink:href="#ArialMT-64" x="277.929688"/>
     </g>
    </g>
    <g id="line2d_27">
     <path d="M 353.5925 315.250156 
L 364.5925 315.250156 
L 364.5925 315.250156 
L 375.5925 315.250156 
L 375.5925 315.250156 
" style="fill: none; stroke: #4c72b0; stroke-width: 1.5; stroke-linecap: round"/>
    </g>
    <g id="text_18">
     <!-- textDocument/definition -->
     <g style="fill: #262626" transform="translate(384.3925 319.100156)scale(0.11 -0.11)">
      <defs>
       <path id="ArialMT-78" d="M 47 0 
L 1259 1725 
L 138 3319 
L 841 3319 
L 1350 2541 
Q 1494 2319 1581 2169 
Q 1719 2375 1834 2534 
L 2394 3319 
L 3066 3319 
L 1919 1756 
L 3153 0 
L 2463 0 
L 1781 1031 
L 1600 1309 
L 728 0 
L 47 0 
z
" transform="scale(0.015625)"/>
       <path id="ArialMT-44" d="M 494 0 
L 494 4581 
L 2072 4581 
Q 2606 4581 2888 4516 
Q 3281 4425 3559 4188 
Q 3922 3881 4101 3404 
Q 4281 2928 4281 2316 
Q 4281 1794 4159 1391 
Q 4038 988 3847 723 
Q 3656 459 3429 307 
Q 3203 156 2883 78 
Q 2563 0 2147 0 
L 494 0 
z
M 1100 541 
L 2078 541 
Q 2531 541 2789 625 
Q 3047 709 3200 863 
Q 3416 1078 3536 1442 
Q 3656 1806 3656 2325 
Q 3656 3044 3420 3430 
Q 3184 3816 2847 3947 
Q 2603 4041 2063 4041 
L 1100 4041 
L 1100 541 
z
" transform="scale(0.015625)"/>
       <path id="ArialMT-63" d="M 2588 1216 
L 3141 1144 
Q 3050 572 2676 248 
Q 2303 -75 1759 -75 
Q 1078 -75 664 370 
Q 250 816 250 1647 
Q 250 2184 428 2587 
Q 606 2991 970 3192 
Q 1334 3394 1763 3394 
Q 2303 3394 2647 3120 
Q 2991 2847 3088 2344 
L 2541 2259 
Q 2463 2594 2264 2762 
Q 2066 2931 1784 2931 
Q 1359 2931 1093 2626 
Q 828 2322 828 1663 
Q 828 994 1084 691 
Q 1341 388 1753 388 
Q 2084 388 2306 591 
Q 2528 794 2588 1216 
z
" transform="scale(0.015625)"/>
       <path id="ArialMT-75" d="M 2597 0 
L 2597 488 
Q 2209 -75 1544 -75 
Q 1250 -75 995 37 
Q 741 150 617 320 
Q 494 491 444 738 
Q 409 903 409 1263 
L 409 3319 
L 972 3319 
L 972 1478 
Q 972 1038 1006 884 
Q 1059 663 1231 536 
Q 1403 409 1656 409 
Q 1909 409 2131 539 
Q 2353 669 2445 892 
Q 2538 1116 2538 1541 
L 2538 3319 
L 3100 3319 
L 3100 0 
L 2597 0 
z
" transform="scale(0.015625)"/>
       <path id="ArialMT-2f" d="M 0 -78 
L 1328 4659 
L 1778 4659 
L 453 -78 
L 0 -78 
z
" transform="scale(0.015625)"/>
       <path id="ArialMT-66" d="M 556 0 
L 556 2881 
L 59 2881 
L 59 3319 
L 556 3319 
L 556 3672 
Q 556 4006 616 4169 
Q 697 4388 901 4523 
Q 1106 4659 1475 4659 
Q 1713 4659 2000 4603 
L 1916 4113 
Q 1741 4144 1584 4144 
Q 1328 4144 1222 4034 
Q 1116 3925 1116 3625 
L 1116 3319 
L 1763 3319 
L 1763 2881 
L 1116 2881 
L 1116 0 
L 556 0 
z
" transform="scale(0.015625)"/>
      </defs>
      <use xlink:href="#ArialMT-74"/>
      <use xlink:href="#ArialMT-65" x="27.783203"/>
      <use xlink:href="#ArialMT-78" x="83.398438"/>
      <use xlink:href="#ArialMT-74" x="133.398438"/>
      <use xlink:href="#ArialMT-44" x="161.181641"/>
      <use xlink:href="#ArialMT-6f" x="233.398438"/>
      <use xlink:href="#ArialMT-63" x="289.013672"/>
      <use xlink:href="#ArialMT-75" x="339.013672"/>
      <use xlink:href="#ArialMT-6d" x="394.628906"/>
      <use xlink:href="#ArialMT-65" x="477.929688"/>
      <use xlink:href="#ArialMT-6e" x="533.544922"/>
      <use xlink:href="#ArialMT-74" x="589.160156"/>
      <use xlink:href="#ArialMT-2f" x="616.943359"/>
      <use xlink:href="#ArialMT-64" x="644.726562"/>
      <use xlink:href="#ArialMT-65" x="700.341797"/>
      <use xlink:href="#ArialMT-66" x="755.957031"/>
      <use xlink:href="#ArialMT-69" x="783.740234"/>
      <use xlink:href="#ArialMT-6e" x="805.957031"/>
      <use xlink:href="#ArialMT-69" x="861.572266"/>
      <use xlink:href="#ArialMT-74" x="883.789062"/>
      <use xlink:href="#ArialMT-69" x="911.572266"/>
      <use xlink:href="#ArialMT-6f" x="933.789062"/>
      <use xlink:href="#ArialMT-6e" x="989.404297"/>
     </g>
    </g>
    <g id="line2d_28">
     <path d="M 353.5925 330.81 
L 364.5925 330.81 
L 364.5925 330.81 
L 375.5925 330.81 
L 375.5925 330.81 
" style="fill: none; stroke: #dd8452; stroke-width: 1.5; stroke-linecap: round"/>
    </g>
    <g id="text_19">
     <!-- textDocument/hover -->
     <g style="fill: #262626" transform="translate(384.3925 334.66)scale(0.11 -0.11)">
      <defs>
       <path id="ArialMT-76" d="M 1344 0 
L 81 3319 
L 675 3319 
L 1388 1331 
Q 1503 1009 1600 663 
Q 1675 925 1809 1294 
L 2547 3319 
L 3125 3319 
L 1869 0 
L 1344 0 
z
" transform="scale(0.015625)"/>
      </defs>
      <use xlink:href="#ArialMT-74"/>
      <use xlink:href="#ArialMT-65" x="27.783203"/>
      <use xlink:href="#ArialMT-78" x="83.398438"/>
      <use xlink:href="#ArialMT-74" x="133.398438"/>
      <use xlink:href="#ArialMT-44" x="161.181641"/>
      <use xlink:href="#ArialMT-6f" x="233.398438"/>
      <use xlink:href="#ArialMT-63" x="289.013672"/>
      <use xlink:href="#ArialMT-75" x="339.013672"/>
      <use xlink:href="#ArialMT-6d" x="394.628906"/>
      <use xlink:href="#ArialMT-65" x="477.929688"/>
      <use xlink:href="#ArialMT-6e" x="533.544922"/>
      <use xlink:href="#ArialMT-74" x="589.160156"/>
      <use xlink:href="#ArialMT-2f" x="616.943359"/>
      <use xlink:href="#ArialMT-68" x="644.726562"/>
      <use xlink:href="#ArialMT-6f" x="700.341797"/>
      <use xlink:href="#ArialMT-76" x="755.957031"/>
      <use xlink:href="#ArialMT-65" x="805.957031"/>
      <use xlink:href="#ArialMT-72" x="861.572266"/>
     </g>
    </g>
    <g id="line2d_29">
     <path d="M 353.5925 346.369844 
L 364.5925 346.369844 
L 364.5925 346.369844 
L 375.5925 346.369844 
L 375.5925 346.369844 
" style="fill: none; stroke: #55a868; stroke-width: 1.5; stroke-linecap: round"/>
    </g>
    <g id="text_20">
     <!-- textDocument/references -->
     <g style="fill: #262626" transform="translate(384.3925 350.219844)scale(0.11 -0.11)">
      <use xlink:href="#ArialMT-74"/>
      <use xlink:href="#ArialMT-65" x="27.783203"/>
      <use xlink:href="#ArialMT-78" x="83.398438"/>
      <use xlink:href="#ArialMT-74" x="133.398438"/>
      <use xlink:href="#ArialMT-44" x="161.181641"/>
      <use xlink:href="#ArialMT-6f" x="233.398438"/>
      <use xlink:href="#ArialMT-63" x="289.013672"/>
      <use xlink:href="#ArialMT-75" x="339.013672"/>
      <use xlink:href="#ArialMT-6d" x="394.628906"/>
      <use xlink:href="#ArialMT-65" x="477.929688"/>
      <use xlink:href="#ArialMT-6e" x="533.544922"/>
      <use xlink:href="#ArialMT-74" x="589.160156"/>
      <use xlink:href="#ArialMT-2f" x="616.943359"/>
      <use xlink:href="#ArialMT-72" x="644.726562"/>
      <use xlink:href="#ArialMT-65" x="678.027344"/>
      <use xlink:href="#ArialMT-66" x="733.642578"/>
      <use xlink:href="#ArialMT-65" x="761.425781"/>
      <use xlink:href="#ArialMT-72" x="817.041016"/>
      <use xlink:href="#ArialMT-65" x="850.341797"/>
      <use xlink:href="#ArialMT-6e" x="905.957031"/>
      <use xlink:href="#ArialMT-63" x="961.572266"/>
      <use xlink:href="#ArialMT-65" x="1011.572266"/>
      <use xlink:href="#ArialMT-73" x="1067.1875"/>
     </g>
    </g>
    <g id="line2d_30">
     <path d="M 353.5925 362.06375 
L 364.5925 362.06375 
L 364.5925 362.06375 
L 375.5925 362.06375 
L 375.5925 362.06375 
" style="fill: none; stroke: #c44e52; stroke-width: 1.5; stroke-linecap: round"/>
    </g>
    <g id="text_21">
     <!-- textDocument/completion -->
     <g style="fill: #262626" transform="translate(384.3925 365.91375)scale(0.11 -0.11)">
      <use xlink:href="#ArialMT-74"/>
      <use xlink:href="#ArialMT-65" x="27.783203"/>
      <use xlink:href="#ArialMT-78" x="83.398438"/>
      <use xlink:href="#ArialMT-74" x="133.398438"/>
      <use xlink:href="#ArialMT-44" x="161.181641"/>
      <use xlink:href="#ArialMT-6f" x="233.398438"/>
      <use xlink:href="#ArialMT-63" x="289.013672"/>
      <use xlink:href="#ArialMT-75" x="339.013672"/>
      <use xlink:href="#ArialMT-6d" x="394.628906"/>
      <use xlink:href="#ArialMT-65" x="477.929688"/>
      <use xlink:href="#ArialMT-6e" x="533.544922"/>
      <use xlink:href="#ArialMT-74" x="589.160156"/>
      <use xlink:href="#ArialMT-2f" x="616.943359"/>
      <use xlink:href="#ArialMT-63" x="644.726562"/>
      <use xlink:href="#ArialMT-6f" x="694.726562"/>
      <use xlink:href="#ArialMT-6d" x="750.341797"/>
      <use xlink:href="#ArialMT-70" x="833.642578"/>
      <use xlink:href="#ArialMT-6c" x="889.257812"/>
      <use xlink:href="#ArialMT-65" x="911.474609"/>
      <use xlink:href="#ArialMT-74" x="967.089844"/>
      <use xlink:href="#ArialMT-69" x="994.873047"/>
      <use xlink:href="#ArialMT-6f" x="1017.089844"/>
      <use xlink:href="#ArialMT-6e" x="1072.705078"/>
     </g>
    </g>
   </g>
  </g>
 </g>
 <defs>
  <clipPath id="p7930794011">
   <rect x="72" y="51.84" width="446.4" height="326.16"/>
  </clipPath>
 </defs>
</svg>
